<ttFont>
    <TTGlyph name=".notdef" xMin="100" yMin="-1" xMax="935" yMax="806">
      <contour>
        <pt x="745" y="351" on="1"/>
        <pt x="745" y="367" on="1"/>
        <pt x="935" y="367" on="1"/>
        <pt x="935" y="112" on="1"/>
        <pt x="819" y="-1" on="1"/>
        <pt x="532" y="-1" on="1"/>
        <pt x="449" y="80" on="1"/>
        <pt x="417" y="80" on="1"/>
        <pt x="417" y="2" on="1"/>
        <pt x="100" y="2" on="1"/>
        <pt x="100" y="274" on="1"/>
        <pt x="179" y="274" on="1"/>
        <pt x="179" y="84" on="1"/>
        <pt x="339" y="84" on="1"/>
        <pt x="339" y="292" on="1"/>
        <pt x="100" y="292" on="1"/>
        <pt x="100" y="573" on="1"/>
        <pt x="417" y="573" on="1"/>
        <pt x="417" y="546" on="1"/>
        <pt x="446" y="546" on="1"/>
        <pt x="510" y="608" on="1"/>
        <pt x="510" y="806" on="1"/>
        <pt x="677" y="806" on="1"/>
        <pt x="757" y="726" on="1"/>
        <pt x="757" y="575" on="1"/>
        <pt x="855" y="575" on="1"/>
        <pt x="855" y="575" on="1"/>
        <pt x="935" y="492" on="1"/>
        <pt x="935" y="384" on="1"/>
        <pt x="859" y="384" on="1"/>
        <pt x="859" y="461" on="1"/>
        <pt x="858" y="461" on="1"/>
        <pt x="825" y="492" on="1"/>
        <pt x="825" y="493" on="1"/>
        <pt x="680" y="493" on="1"/>
        <pt x="680" y="695" on="1"/>
        <pt x="647" y="726" on="1"/>
        <pt x="589" y="726" on="1"/>
        <pt x="589" y="576" on="1"/>
        <pt x="480" y="467" on="1"/>
        <pt x="417" y="467" on="1"/>
        <pt x="417" y="324" on="1"/>
        <pt x="339" y="324" on="1"/>
        <pt x="339" y="494" on="1"/>
        <pt x="179" y="494" on="1"/>
        <pt x="179" y="308" on="1"/>
        <pt x="417" y="308" on="1"/>
        <pt x="417" y="158" on="1"/>
        <pt x="482" y="158" on="1"/>
        <pt x="561" y="83" on="1"/>
        <pt x="790" y="83" on="1"/>
        <pt x="859" y="147" on="1"/>
        <pt x="859" y="351" on="1"/>
        <pt x="745" y="351" on="1"/>
      </contour>
    </TTGlyph>
    <TTGlyph name="A" xMin="80" yMin="0" xMax="769" yMax="575">
      <contour>
        <pt x="80" y="506" on="1"/>
        <pt x="194" y="575" on="1"/>
        <pt x="400" y="575" on="1"/>
        <pt x="400" y="462" on="1"/>
        <pt x="206" y="462" on="1"/>
        <pt x="206" y="344" on="1"/>
        <pt x="400" y="344" on="1"/>
        <pt x="400" y="230" on="1"/>
        <pt x="206" y="230" on="1"/>
        <pt x="206" y="0" on="1"/>
        <pt x="80" y="0" on="1"/>
        <pt x="80" y="506" on="1"/>
      </contour>
      <contour>
        <pt x="769" y="506" on="1"/>
        <pt x="651" y="575" on="1"/>
        <pt x="445" y="575" on="1"/>
        <pt x="445" y="462" on="1"/>
        <pt x="643" y="462" on="1"/>
        <pt x="643" y="344" on="1"/>
        <pt x="445" y="344" on="1"/>
        <pt x="445" y="230" on="1"/>
        <pt x="643" y="230" on="1"/>
        <pt x="643" y="0" on="1"/>
        <pt x="769" y="0" on="1"/>
        <pt x="769" y="506" on="1"/>
      </contour>
    </TTGlyph>
    <TTGlyph name="AE" xMin="90" yMin="1" xMax="778" yMax="574">
      <contour>
        <pt x="457" y="574" on="1"/>
        <pt x="778" y="574" on="1"/>
        <pt x="778" y="460" on="1"/>
        <pt x="583" y="460" on="1"/>
        <pt x="583" y="345" on="1"/>
        <pt x="654" y="345" on="1"/>
        <pt x="654" y="230" on="1"/>
        <pt x="583" y="230" on="1"/>
        <pt x="583" y="115" on="1"/>
        <pt x="776" y="115" on="1"/>
        <pt x="776" y="1" on="1"/>
        <pt x="457" y="1" on="1"/>
        <pt x="457" y="574" on="1"/>
      </contour>
      <contour>
        <pt x="90" y="505" on="1"/>
        <pt x="205" y="574" on="1"/>
        <pt x="412" y="574" on="1"/>
        <pt x="412" y="437" on="1"/>
        <pt x="216" y="437" on="1"/>
        <pt x="216" y="345" on="1"/>
        <pt x="412" y="345" on="1"/>
        <pt x="412" y="230" on="1"/>
        <pt x="216" y="230" on="1"/>
        <pt x="216" y="1" on="1"/>
        <pt x="90" y="1" on="1"/>
        <pt x="90" y="505" on="1"/>
      </contour>
    </TTGlyph>
    <TTGlyph name="Aacute" xMin="90" yMin="0" xMax="779" yMax="698">
      <component glyphName="A" x="10" y="0" flags="0x1004"/>
      <component glyphName="acute" x="-10" y="50" flags="0x1004"/>
    </TTGlyph>
    <TTGlyph name="Acircumflex" xMin="90" yMin="0" xMax="779" yMax="711">
      <component glyphName="A" x="10" y="0" flags="0x1004"/>
      <component glyphName="circumflex" x="200" y="0" flags="0x1004"/>
    </TTGlyph>
    <TTGlyph name="Adieresis" xMin="90" yMin="0" xMax="779" yMax="710">
      <component glyphName="A" x="10" y="0" flags="0x1004"/>
      <component glyphName="dieresis" x="176" y="136" flags="0x1004"/>
    </TTGlyph>
    <TTGlyph name="Agrave" xMin="90" yMin="0" xMax="779" yMax="712">
      <component glyphName="A" x="10" y="0" flags="0x1004"/>
      <component glyphName="grave" x="109" y="50" flags="0x1004"/>
    </TTGlyph>
    <TTGlyph name="Aring" xMin="90" yMin="0" xMax="779" yMax="713">
      <contour>
        <pt x="653" y="0" on="1"/>
        <pt x="653" y="230" on="1"/>
        <pt x="459" y="230" on="1"/>
        <pt x="459" y="344" on="1"/>
        <pt x="653" y="344" on="1"/>
        <pt x="653" y="462" on="1"/>
        <pt x="459" y="462" on="1"/>
        <pt x="459" y="462" on="1"/>
        <pt x="459" y="514" on="1"/>
        <pt x="528" y="543" on="1"/>
        <pt x="528" y="632" on="1"/>
        <pt x="459" y="660" on="1"/>
        <pt x="459" y="713" on="1"/>
        <pt x="572" y="668" on="1"/>
        <pt x="572" y="575" on="1"/>
        <pt x="666" y="575" on="1"/>
        <pt x="779" y="506" on="1"/>
        <pt x="779" y="0" on="1"/>
      </contour>
      <contour>
        <pt x="414" y="514" on="1"/>
        <pt x="414" y="462" on="1"/>
        <pt x="414" y="462" on="1"/>
        <pt x="216" y="462" on="1"/>
        <pt x="216" y="344" on="1"/>
        <pt x="414" y="344" on="1"/>
        <pt x="414" y="230" on="1"/>
        <pt x="216" y="230" on="1"/>
        <pt x="216" y="0" on="1"/>
        <pt x="90" y="0" on="1"/>
        <pt x="90" y="506" on="1"/>
        <pt x="207" y="575" on="1"/>
        <pt x="297" y="575" on="1"/>
        <pt x="297" y="668" on="1"/>
        <pt x="414" y="713" on="1"/>
        <pt x="414" y="660" on="1"/>
        <pt x="342" y="632" on="1"/>
        <pt x="342" y="543" on="1"/>
      </contour>
    </TTGlyph>
    <TTGlyph name="Atilde" xMin="90" yMin="0" xMax="779" yMax="722">
      <component glyphName="A" x="10" y="0" flags="0x1004"/>
      <component glyphName="tilde" x="165" y="103" flags="0x1004"/>
    </TTGlyph>
    <TTGlyph name="B" xMin="100" yMin="0" xMax="789" yMax="575">
      <contour>
        <pt x="100" y="575" on="1"/>
        <pt x="420" y="575" on="1"/>
        <pt x="420" y="462" on="1"/>
        <pt x="226" y="462" on="1"/>
        <pt x="226" y="344" on="1"/>
        <pt x="420" y="344" on="1"/>
        <pt x="420" y="230" on="1"/>
        <pt x="226" y="230" on="1"/>
        <pt x="226" y="117" on="1"/>
        <pt x="420" y="117" on="1"/>
        <pt x="420" y="0" on="1"/>
        <pt x="100" y="0" on="1"/>
      </contour>
      <contour>
        <pt x="789" y="68" on="1"/>
        <pt x="789" y="243" on="1"/>
        <pt x="695" y="287" on="1"/>
        <pt x="789" y="332" on="1"/>
        <pt x="789" y="506" on="1"/>
        <pt x="676" y="575" on="1"/>
        <pt x="469" y="575" on="1"/>
        <pt x="469" y="462" on="1"/>
        <pt x="663" y="462" on="1"/>
        <pt x="663" y="344" on="1"/>
        <pt x="469" y="344" on="1"/>
        <pt x="469" y="230" on="1"/>
        <pt x="663" y="230" on="1"/>
        <pt x="663" y="117" on="1"/>
        <pt x="469" y="117" on="1"/>
        <pt x="469" y="0" on="1"/>
        <pt x="676" y="0" on="1"/>
      </contour>
    </TTGlyph>
    <TTGlyph name="C" xMin="80" yMin="0" xMax="773" yMax="575">
      <contour>
        <pt x="80" y="506" on="1"/>
        <pt x="197" y="575" on="1"/>
        <pt x="404" y="575" on="1"/>
        <pt x="404" y="462" on="1"/>
        <pt x="210" y="462" on="1"/>
        <pt x="210" y="117" on="1"/>
        <pt x="400" y="117" on="1"/>
        <pt x="400" y="0" on="1"/>
        <pt x="197" y="0" on="1"/>
        <pt x="80" y="68" on="1"/>
      </contour>
      <contour>
        <pt x="643" y="186" on="1"/>
        <pt x="643" y="117" on="1"/>
        <pt x="453" y="117" on="1"/>
        <pt x="453" y="0" on="1"/>
        <pt x="656" y="0" on="1"/>
        <pt x="773" y="68" on="1"/>
        <pt x="773" y="186" on="1"/>
      </contour>
      <contour>
        <pt x="773" y="392" on="1"/>
        <pt x="773" y="506" on="1"/>
        <pt x="656" y="575" on="1"/>
        <pt x="449" y="575" on="1"/>
        <pt x="449" y="462" on="1"/>
        <pt x="643" y="462" on="1"/>
        <pt x="643" y="392" on="1"/>
      </contour>
    </TTGlyph>
    <TTGlyph name="Ccedilla" xMin="90" yMin="-194" xMax="783" yMax="575">
      <component glyphName="C" x="10" y="0" flags="0x1004"/>
      <component glyphName="cedilla" x="235" y="0" flags="0x1004"/>
    </TTGlyph>
    <TTGlyph name="D" xMin="100" yMin="0" xMax="789" yMax="575">
      <contour>
        <pt x="100" y="575" on="1"/>
        <pt x="420" y="575" on="1"/>
        <pt x="420" y="462" on="1"/>
        <pt x="226" y="462" on="1"/>
        <pt x="226" y="117" on="1"/>
        <pt x="420" y="117" on="1"/>
        <pt x="420" y="0" on="1"/>
        <pt x="100" y="0" on="1"/>
      </contour>
      <contour>
        <pt x="789" y="506" on="1"/>
        <pt x="676" y="575" on="1"/>
        <pt x="469" y="575" on="1"/>
        <pt x="469" y="462" on="1"/>
        <pt x="663" y="462" on="1"/>
        <pt x="663" y="117" on="1"/>
        <pt x="469" y="117" on="1"/>
        <pt x="469" y="0" on="1"/>
        <pt x="676" y="0" on="1"/>
        <pt x="789" y="68" on="1"/>
      </contour>
    </TTGlyph>
    <TTGlyph name="E" xMin="100" yMin="0" xMax="789" yMax="575">
      <contour>
        <pt x="100" y="575" on="1"/>
        <pt x="420" y="575" on="1"/>
        <pt x="420" y="457" on="1"/>
        <pt x="226" y="457" on="1"/>
        <pt x="226" y="344" on="1"/>
        <pt x="420" y="344" on="1"/>
        <pt x="420" y="230" on="1"/>
        <pt x="226" y="230" on="1"/>
        <pt x="226" y="113" on="1"/>
        <pt x="416" y="113" on="1"/>
        <pt x="416" y="0" on="1"/>
        <pt x="100" y="0" on="1"/>
        <pt x="100" y="575" on="1"/>
      </contour>
      <contour>
        <pt x="469" y="113" on="1"/>
        <pt x="469" y="0" on="1"/>
        <pt x="789" y="0" on="1"/>
        <pt x="789" y="113" on="1"/>
        <pt x="469" y="113" on="1"/>
      </contour>
      <contour>
        <pt x="789" y="457" on="1"/>
        <pt x="789" y="575" on="1"/>
        <pt x="465" y="575" on="1"/>
        <pt x="465" y="457" on="1"/>
        <pt x="789" y="457" on="1"/>
      </contour>
      <contour>
        <pt x="627" y="230" on="1"/>
        <pt x="627" y="344" on="1"/>
        <pt x="465" y="344" on="1"/>
        <pt x="465" y="230" on="1"/>
        <pt x="627" y="230" on="1"/>
      </contour>
    </TTGlyph>
    <TTGlyph name="Eacute" xMin="100" yMin="0" xMax="794" yMax="698">
      <component glyphName="E" x="0" y="0" flags="0x1004"/>
      <component glyphName="acute" x="124" y="50" flags="0x1004"/>
    </TTGlyph>
    <TTGlyph name="Ecircumflex" xMin="100" yMin="0" xMax="789" yMax="711">
      <component glyphName="E" x="0" y="0" flags="0x1204"/>
      <component glyphName="circumflex" x="209" y="0" flags="0x1004"/>
    </TTGlyph>
    <TTGlyph name="Edieresis" xMin="100" yMin="0" xMax="789" yMax="711">
      <component glyphName="E" x="0" y="0" flags="0x1204"/>
      <component glyphName="dieresis" x="186" y="137" flags="0x1004"/>
    </TTGlyph>
    <TTGlyph name="Egrave" xMin="100" yMin="0" xMax="790" yMax="714">
      <component glyphName="E" x="1" y="0" flags="0x1004"/>
      <component glyphName="grave" x="0" y="52" flags="0x1004"/>
    </TTGlyph>
    <TTGlyph name="Eth" xMin="40" yMin="1" xMax="785" yMax="575">
      <contour>
        <pt x="223" y="265" on="1"/>
        <pt x="421" y="265" on="1"/>
        <pt x="421" y="184" on="1"/>
        <pt x="223" y="184" on="1"/>
        <pt x="223" y="116" on="1"/>
        <pt x="417" y="116" on="1"/>
        <pt x="417" y="1" on="1"/>
        <pt x="97" y="1" on="1"/>
        <pt x="97" y="184" on="1"/>
        <pt x="40" y="184" on="1"/>
        <pt x="40" y="265" on="1"/>
        <pt x="97" y="265" on="1"/>
        <pt x="97" y="575" on="1"/>
        <pt x="419" y="575" on="1"/>
        <pt x="419" y="460" on="1"/>
        <pt x="223" y="460" on="1"/>
      </contour>
      <contour>
        <pt x="785" y="506" on="1"/>
        <pt x="785" y="70" on="1"/>
        <pt x="670" y="1" on="1"/>
        <pt x="466" y="1" on="1"/>
        <pt x="466" y="116" on="1"/>
        <pt x="659" y="116" on="1"/>
        <pt x="659" y="460" on="1"/>
        <pt x="464" y="460" on="1"/>
        <pt x="464" y="575" on="1"/>
        <pt x="670" y="575" on="1"/>
      </contour>
    </TTGlyph>
    <TTGlyph name="Euro" xMin="30" yMin="1" xMax="722" yMax="577">
      <contour>
        <pt x="676" y="116" on="1"/>
        <pt x="722" y="1" on="1"/>
        <pt x="401" y="1" on="1"/>
        <pt x="401" y="116" on="1"/>
        <pt x="676" y="116" on="1"/>
      </contour>
      <contour>
        <pt x="676" y="462" on="1"/>
        <pt x="399" y="462" on="1"/>
        <pt x="399" y="577" on="1"/>
        <pt x="722" y="577" on="1"/>
      </contour>
      <contour>
        <pt x="353" y="462" on="1"/>
        <pt x="284" y="462" on="1"/>
        <pt x="284" y="347" on="1"/>
        <pt x="353" y="347" on="1"/>
        <pt x="353" y="232" on="1"/>
        <pt x="284" y="232" on="1"/>
        <pt x="284" y="116" on="1"/>
        <pt x="351" y="116" on="1"/>
        <pt x="351" y="1" on="1"/>
        <pt x="272" y="1" on="1"/>
        <pt x="157" y="70" on="1"/>
        <pt x="157" y="232" on="1"/>
        <pt x="30" y="232" on="1"/>
        <pt x="76" y="347" on="1"/>
        <pt x="157" y="347" on="1"/>
        <pt x="157" y="508" on="1"/>
        <pt x="272" y="577" on="1"/>
        <pt x="353" y="577" on="1"/>
      </contour>
      <contour>
        <pt x="399" y="347" on="1"/>
        <pt x="653" y="347" on="1"/>
        <pt x="653" y="232" on="1"/>
        <pt x="399" y="232" on="1"/>
        <pt x="399" y="347" on="1"/>
      </contour>
    </TTGlyph>
    <TTGlyph name="F" xMin="100" yMin="0" xMax="789" yMax="575">
      <contour>
        <pt x="100" y="575" on="1"/>
        <pt x="420" y="575" on="1"/>
        <pt x="420" y="457" on="1"/>
        <pt x="226" y="457" on="1"/>
        <pt x="226" y="344" on="1"/>
        <pt x="420" y="344" on="1"/>
        <pt x="420" y="227" on="1"/>
        <pt x="226" y="227" on="1"/>
        <pt x="226" y="0" on="1"/>
        <pt x="100" y="0" on="1"/>
        <pt x="100" y="575" on="1"/>
      </contour>
      <contour>
        <pt x="789" y="457" on="1"/>
        <pt x="789" y="575" on="1"/>
        <pt x="469" y="575" on="1"/>
        <pt x="469" y="457" on="1"/>
        <pt x="789" y="457" on="1"/>
      </contour>
      <contour>
        <pt x="631" y="227" on="1"/>
        <pt x="631" y="344" on="1"/>
        <pt x="469" y="344" on="1"/>
        <pt x="469" y="227" on="1"/>
        <pt x="631" y="227" on="1"/>
      </contour>
    </TTGlyph>
    <TTGlyph name="G" xMin="80" yMin="0" xMax="773" yMax="575">
      <contour>
        <pt x="80" y="506" on="1"/>
        <pt x="197" y="575" on="1"/>
        <pt x="404" y="575" on="1"/>
        <pt x="404" y="457" on="1"/>
        <pt x="210" y="457" on="1"/>
        <pt x="210" y="113" on="1"/>
        <pt x="400" y="113" on="1"/>
        <pt x="400" y="0" on="1"/>
        <pt x="197" y="0" on="1"/>
        <pt x="80" y="68" on="1"/>
      </contour>
      <contour>
        <pt x="773" y="389" on="1"/>
        <pt x="773" y="506" on="1"/>
        <pt x="656" y="575" on="1"/>
        <pt x="449" y="575" on="1"/>
        <pt x="449" y="457" on="1"/>
        <pt x="643" y="457" on="1"/>
        <pt x="643" y="389" on="1"/>
      </contour>
      <contour>
        <pt x="773" y="344" on="1"/>
        <pt x="449" y="344" on="1"/>
        <pt x="449" y="230" on="1"/>
        <pt x="643" y="230" on="1"/>
        <pt x="643" y="113" on="1"/>
        <pt x="453" y="113" on="1"/>
        <pt x="453" y="0" on="1"/>
        <pt x="656" y="0" on="1"/>
        <pt x="773" y="68" on="1"/>
      </contour>
    </TTGlyph>
    <TTGlyph name="H" xMin="100" yMin="0" xMax="789" yMax="575">
      <contour>
        <pt x="100" y="575" on="1"/>
        <pt x="226" y="575" on="1"/>
        <pt x="226" y="344" on="1"/>
        <pt x="420" y="344" on="1"/>
        <pt x="420" y="230" on="1"/>
        <pt x="226" y="230" on="1"/>
        <pt x="226" y="0" on="1"/>
        <pt x="100" y="0" on="1"/>
        <pt x="100" y="575" on="1"/>
      </contour>
      <contour>
        <pt x="789" y="575" on="1"/>
        <pt x="663" y="575" on="1"/>
        <pt x="663" y="344" on="1"/>
        <pt x="469" y="344" on="1"/>
        <pt x="469" y="230" on="1"/>
        <pt x="663" y="230" on="1"/>
        <pt x="663" y="0" on="1"/>
        <pt x="789" y="0" on="1"/>
        <pt x="789" y="575" on="1"/>
      </contour>
    </TTGlyph>
    <TTGlyph name="I" xMin="80" yMin="0" xMax="206" yMax="575">
      <contour>
        <pt x="80" y="575" on="1"/>
        <pt x="206" y="575" on="1"/>
        <pt x="206" y="0" on="1"/>
        <pt x="80" y="0" on="1"/>
        <pt x="80" y="575" on="1"/>
      </contour>
    </TTGlyph>
    <TTGlyph name="Iacute" xMin="46" yMin="0" xMax="275" yMax="709">
      <component glyphName="I" x="17" y="0" flags="0x1004"/>
      <component glyphName="acute" x="-395" y="61" flags="0x1004"/>
    </TTGlyph>
    <TTGlyph name="Icircumflex" xMin="46" yMin="0" xMax="354" yMax="711">
      <component glyphName="I" x="52" y="0" flags="0x1004"/>
      <component glyphName="circumflex" x="-34" y="0" flags="0x1004"/>
    </TTGlyph>
    <TTGlyph name="Idieresis" xMin="47" yMin="0" xMax="275" yMax="717">
      <component glyphName="I" x="16" y="0" flags="0x1004"/>
      <component glyphName="dieresis" x="-3" y="43" scalex="0.637634277344" scaley="1.171875" flags="0x1004"/>
    </TTGlyph>
    <TTGlyph name="Igrave" xMin="46" yMin="0" xMax="275" yMax="711">
      <component glyphName="I" x="15" y="0" flags="0x1004"/>
      <component glyphName="grave" x="-54" y="49" flags="0x1004"/>
    </TTGlyph>
    <TTGlyph name="J" xMin="10" yMin="0" xMax="699" yMax="575">
      <contour>
        <pt x="699" y="68" on="1"/>
        <pt x="586" y="0" on="1"/>
        <pt x="379" y="0" on="1"/>
        <pt x="379" y="113" on="1"/>
        <pt x="573" y="113" on="1"/>
        <pt x="573" y="575" on="1"/>
        <pt x="699" y="575" on="1"/>
      </contour>
      <contour>
        <pt x="140" y="182" on="1"/>
        <pt x="140" y="113" on="1"/>
        <pt x="330" y="113" on="1"/>
        <pt x="330" y="0" on="1"/>
        <pt x="127" y="0" on="1"/>
        <pt x="10" y="68" on="1"/>
        <pt x="10" y="182" on="1"/>
      </contour>
    </TTGlyph>
    <TTGlyph name="K" xMin="100" yMin="0" xMax="789" yMax="575">
      <contour>
        <pt x="100" y="575" on="1"/>
        <pt x="226" y="575" on="1"/>
        <pt x="226" y="344" on="1"/>
        <pt x="282" y="344" on="1"/>
        <pt x="282" y="230" on="1"/>
        <pt x="226" y="230" on="1"/>
        <pt x="226" y="0" on="1"/>
        <pt x="100" y="0" on="1"/>
      </contour>
      <contour>
        <pt x="420" y="287" on="1"/>
        <pt x="789" y="518" on="1"/>
        <pt x="671" y="575" on="1"/>
        <pt x="319" y="344" on="1"/>
        <pt x="319" y="230" on="1"/>
        <pt x="671" y="0" on="1"/>
        <pt x="789" y="57" on="1"/>
      </contour>
    </TTGlyph>
    <TTGlyph name="L" xMin="100" yMin="0" xMax="789" yMax="575">
      <contour>
        <pt x="100" y="575" on="1"/>
        <pt x="226" y="575" on="1"/>
        <pt x="226" y="117" on="1"/>
        <pt x="416" y="117" on="1"/>
        <pt x="416" y="0" on="1"/>
        <pt x="100" y="0" on="1"/>
        <pt x="100" y="575" on="1"/>
      </contour>
      <contour>
        <pt x="469" y="117" on="1"/>
        <pt x="469" y="0" on="1"/>
        <pt x="789" y="0" on="1"/>
        <pt x="789" y="117" on="1"/>
        <pt x="469" y="117" on="1"/>
      </contour>
    </TTGlyph>
    <TTGlyph name="Lslash" xMin="45" yMin="0" xMax="796" yMax="578">
      <contour>
        <pt x="230" y="578" on="1"/>
        <pt x="230" y="390" on="1"/>
        <pt x="427" y="437" on="1"/>
        <pt x="427" y="394" on="1"/>
        <pt x="230" y="345" on="1"/>
        <pt x="230" y="116" on="1"/>
        <pt x="424" y="116" on="1"/>
        <pt x="424" y="0" on="1"/>
        <pt x="103" y="0" on="1"/>
        <pt x="103" y="314" on="1"/>
        <pt x="45" y="300" on="1"/>
        <pt x="45" y="348" on="1"/>
        <pt x="103" y="360" on="1"/>
        <pt x="103" y="578" on="1"/>
      </contour>
      <contour>
        <pt x="474" y="116" on="1"/>
        <pt x="796" y="116" on="1"/>
        <pt x="796" y="0" on="1"/>
        <pt x="474" y="0" on="1"/>
      </contour>
    </TTGlyph>
    <TTGlyph name="M" xMin="100" yMin="0" xMax="789" yMax="575">
      <contour>
        <pt x="100" y="575" on="1"/>
        <pt x="214" y="575" on="1"/>
        <pt x="420" y="381" on="1"/>
        <pt x="420" y="230" on="1"/>
        <pt x="226" y="413" on="1"/>
        <pt x="226" y="0" on="1"/>
        <pt x="100" y="0" on="1"/>
        <pt x="100" y="575" on="1"/>
      </contour>
      <contour>
        <pt x="789" y="575" on="1"/>
        <pt x="676" y="575" on="1"/>
        <pt x="469" y="381" on="1"/>
        <pt x="469" y="230" on="1"/>
        <pt x="663" y="413" on="1"/>
        <pt x="663" y="0" on="1"/>
        <pt x="789" y="0" on="1"/>
        <pt x="789" y="575" on="1"/>
      </contour>
    </TTGlyph>
    <TTGlyph name="N" xMin="100" yMin="0" xMax="789" yMax="575">
      <contour>
        <pt x="100" y="575" on="1"/>
        <pt x="214" y="575" on="1"/>
        <pt x="420" y="381" on="1"/>
        <pt x="420" y="230" on="1"/>
        <pt x="226" y="417" on="1"/>
        <pt x="226" y="0" on="1"/>
        <pt x="100" y="0" on="1"/>
      </contour>
      <contour>
        <pt x="663" y="162" on="1"/>
        <pt x="663" y="575" on="1"/>
        <pt x="789" y="575" on="1"/>
        <pt x="789" y="0" on="1"/>
        <pt x="671" y="0" on="1"/>
        <pt x="465" y="198" on="1"/>
        <pt x="465" y="344" on="1"/>
      </contour>
    </TTGlyph>
    <TTGlyph name="Ntilde" xMin="100" yMin="0" xMax="789" yMax="723">
      <component glyphName="N" x="0" y="0" flags="0x1204"/>
      <component glyphName="tilde" x="181" y="104" flags="0x1004"/>
    </TTGlyph>
    <TTGlyph name="O" xMin="80" yMin="0" xMax="769" yMax="575">
      <contour>
        <pt x="80" y="506" on="1"/>
        <pt x="197" y="575" on="1"/>
        <pt x="404" y="575" on="1"/>
        <pt x="404" y="462" on="1"/>
        <pt x="206" y="462" on="1"/>
        <pt x="206" y="117" on="1"/>
        <pt x="400" y="117" on="1"/>
        <pt x="400" y="0" on="1"/>
        <pt x="197" y="0" on="1"/>
        <pt x="80" y="68" on="1"/>
        <pt x="80" y="506" on="1"/>
      </contour>
      <contour>
        <pt x="769" y="506" on="1"/>
        <pt x="656" y="575" on="1"/>
        <pt x="449" y="575" on="1"/>
        <pt x="449" y="462" on="1"/>
        <pt x="643" y="462" on="1"/>
        <pt x="643" y="117" on="1"/>
        <pt x="449" y="117" on="1"/>
        <pt x="449" y="0" on="1"/>
        <pt x="656" y="0" on="1"/>
        <pt x="769" y="68" on="1"/>
        <pt x="769" y="506" on="1"/>
      </contour>
    </TTGlyph>
    <TTGlyph name="OE" xMin="80" yMin="1" xMax="964" yMax="574">
      <contour>
        <pt x="80" y="505" on="1"/>
        <pt x="194" y="574" on="1"/>
        <pt x="308" y="574" on="1"/>
        <pt x="308" y="459" on="1"/>
        <pt x="206" y="459" on="1"/>
        <pt x="206" y="116" on="1"/>
        <pt x="306" y="116" on="1"/>
        <pt x="306" y="1" on="1"/>
        <pt x="194" y="1" on="1"/>
        <pt x="80" y="70" on="1"/>
      </contour>
      <contour>
        <pt x="355" y="574" on="1"/>
        <pt x="691" y="574" on="1"/>
        <pt x="691" y="459" on="1"/>
        <pt x="585" y="459" on="1"/>
        <pt x="585" y="345" on="1"/>
        <pt x="691" y="345" on="1"/>
        <pt x="691" y="230" on="1"/>
        <pt x="585" y="230" on="1"/>
        <pt x="585" y="116" on="1"/>
        <pt x="689" y="116" on="1"/>
        <pt x="689" y="1" on="1"/>
        <pt x="357" y="1" on="1"/>
        <pt x="357" y="116" on="1"/>
        <pt x="460" y="116" on="1"/>
        <pt x="460" y="459" on="1"/>
        <pt x="355" y="459" on="1"/>
      </contour>
      <contour>
        <pt x="739" y="1" on="1"/>
        <pt x="739" y="116" on="1"/>
        <pt x="964" y="116" on="1"/>
        <pt x="964" y="1" on="1"/>
      </contour>
      <contour>
        <pt x="964" y="574" on="1"/>
        <pt x="964" y="459" on="1"/>
        <pt x="737" y="459" on="1"/>
        <pt x="737" y="574" on="1"/>
      </contour>
      <contour>
        <pt x="804" y="345" on="1"/>
        <pt x="804" y="230" on="1"/>
        <pt x="737" y="230" on="1"/>
        <pt x="737" y="345" on="1"/>
      </contour>
    </TTGlyph>
    <TTGlyph name="Oacute" xMin="80" yMin="0" xMax="769" yMax="698">
      <component glyphName="O" x="0" y="0" flags="0x1204"/>
      <component glyphName="acute" x="-16" y="50" flags="0x1004"/>
    </TTGlyph>
    <TTGlyph name="Ocircumflex" xMin="80" yMin="0" xMax="769" yMax="711">
      <component glyphName="O" x="0" y="0" flags="0x1204"/>
      <component glyphName="circumflex" x="194" y="0" flags="0x1004"/>
    </TTGlyph>
    <TTGlyph name="Odieresis" xMin="80" yMin="0" xMax="769" yMax="711">
      <component glyphName="dieresis" x="168" y="137" flags="0x1004"/>
      <component glyphName="O" x="0" y="0" flags="0x1004"/>
    </TTGlyph>
    <TTGlyph name="Ograve" xMin="80" yMin="0" xMax="769" yMax="712">
      <component glyphName="O" x="0" y="0" flags="0x1204"/>
      <component glyphName="grave" x="97" y="50" flags="0x1004"/>
    </TTGlyph>
    <TTGlyph name="Oslash" xMin="80" yMin="3" xMax="767" yMax="575">
      <contour>
        <pt x="80" y="507" on="1"/>
        <pt x="194" y="575" on="1"/>
        <pt x="401" y="575" on="1"/>
        <pt x="401" y="460" on="1"/>
        <pt x="206" y="460" on="1"/>
        <pt x="206" y="119" on="1"/>
        <pt x="401" y="300" on="1"/>
        <pt x="401" y="236" on="1"/>
        <pt x="271" y="116" on="1"/>
        <pt x="401" y="116" on="1"/>
        <pt x="401" y="3" on="1"/>
        <pt x="194" y="3" on="1"/>
        <pt x="166" y="20" on="1"/>
        <pt x="148" y="4" on="1"/>
        <pt x="80" y="3" on="1"/>
        <pt x="125" y="43" on="1"/>
        <pt x="80" y="72" on="1"/>
      </contour>
      <contour>
        <pt x="767" y="575" on="1"/>
        <pt x="722" y="534" on="1"/>
        <pt x="767" y="507" on="1"/>
        <pt x="767" y="72" on="1"/>
        <pt x="652" y="3" on="1"/>
        <pt x="446" y="3" on="1"/>
        <pt x="446" y="116" on="1"/>
        <pt x="641" y="116" on="1"/>
        <pt x="641" y="458" on="1"/>
        <pt x="446" y="278" on="1"/>
        <pt x="446" y="343" on="1"/>
        <pt x="574" y="460" on="1"/>
        <pt x="446" y="460" on="1"/>
        <pt x="446" y="575" on="1"/>
        <pt x="652" y="575" on="1"/>
        <pt x="680" y="559" on="1"/>
        <pt x="698" y="575" on="1"/>
      </contour>
    </TTGlyph>
    <TTGlyph name="Otilde" xMin="80" yMin="0" xMax="769" yMax="723">
      <component glyphName="O" x="0" y="0" flags="0x1204"/>
      <component glyphName="tilde" x="157" y="104" flags="0x1004"/>
    </TTGlyph>
    <TTGlyph name="P" xMin="100" yMin="0" xMax="793" yMax="575">
      <contour>
        <pt x="100" y="575" on="1"/>
        <pt x="424" y="575" on="1"/>
        <pt x="424" y="462" on="1"/>
        <pt x="230" y="462" on="1"/>
        <pt x="230" y="344" on="1"/>
        <pt x="424" y="344" on="1"/>
        <pt x="424" y="227" on="1"/>
        <pt x="230" y="227" on="1"/>
        <pt x="230" y="0" on="1"/>
        <pt x="100" y="0" on="1"/>
        <pt x="100" y="575" on="1"/>
      </contour>
      <contour>
        <pt x="793" y="295" on="1"/>
        <pt x="793" y="506" on="1"/>
        <pt x="676" y="575" on="1"/>
        <pt x="469" y="575" on="1"/>
        <pt x="469" y="462" on="1"/>
        <pt x="663" y="462" on="1"/>
        <pt x="663" y="344" on="1"/>
        <pt x="469" y="344" on="1"/>
        <pt x="469" y="227" on="1"/>
        <pt x="676" y="227" on="1"/>
        <pt x="793" y="295" on="1"/>
      </contour>
    </TTGlyph>
    <TTGlyph name="Q" xMin="80" yMin="0" xMax="769" yMax="575">
      <contour>
        <pt x="80" y="506" on="1"/>
        <pt x="197" y="575" on="1"/>
        <pt x="404" y="575" on="1"/>
        <pt x="404" y="462" on="1"/>
        <pt x="206" y="462" on="1"/>
        <pt x="206" y="117" on="1"/>
        <pt x="400" y="117" on="1"/>
        <pt x="400" y="0" on="1"/>
        <pt x="197" y="0" on="1"/>
        <pt x="80" y="68" on="1"/>
      </contour>
      <contour>
        <pt x="769" y="506" on="1"/>
        <pt x="769" y="68" on="1"/>
        <pt x="656" y="0" on="1"/>
        <pt x="656" y="0" on="1"/>
        <pt x="656" y="0" on="1"/>
        <pt x="656" y="0" on="1"/>
        <pt x="449" y="0" on="1"/>
        <pt x="449" y="117" on="1"/>
        <pt x="534" y="117" on="1"/>
        <pt x="449" y="198" on="1"/>
        <pt x="530" y="275" on="1"/>
        <pt x="643" y="162" on="1"/>
        <pt x="643" y="462" on="1"/>
        <pt x="449" y="462" on="1"/>
        <pt x="449" y="575" on="1"/>
        <pt x="656" y="575" on="1"/>
      </contour>
    </TTGlyph>
    <TTGlyph name="R" xMin="100" yMin="0" xMax="789" yMax="575">
      <contour>
        <pt x="100" y="575" on="1"/>
        <pt x="420" y="575" on="1"/>
        <pt x="420" y="457" on="1"/>
        <pt x="226" y="457" on="1"/>
        <pt x="226" y="344" on="1"/>
        <pt x="420" y="344" on="1"/>
        <pt x="420" y="227" on="1"/>
        <pt x="226" y="227" on="1"/>
        <pt x="226" y="0" on="1"/>
        <pt x="100" y="0" on="1"/>
        <pt x="100" y="575" on="1"/>
      </contour>
      <contour>
        <pt x="789" y="0" on="1"/>
        <pt x="789" y="238" on="1"/>
        <pt x="695" y="287" on="1"/>
        <pt x="789" y="332" on="1"/>
        <pt x="789" y="506" on="1"/>
        <pt x="671" y="575" on="1"/>
        <pt x="465" y="575" on="1"/>
        <pt x="465" y="457" on="1"/>
        <pt x="663" y="457" on="1"/>
        <pt x="663" y="344" on="1"/>
        <pt x="465" y="344" on="1"/>
        <pt x="465" y="227" on="1"/>
        <pt x="663" y="227" on="1"/>
        <pt x="663" y="0" on="1"/>
        <pt x="789" y="0" on="1"/>
      </contour>
    </TTGlyph>
    <TTGlyph name="S" xMin="70" yMin="0" xMax="759" yMax="575">
      <contour>
        <pt x="70" y="506" on="1"/>
        <pt x="184" y="575" on="1"/>
        <pt x="390" y="575" on="1"/>
        <pt x="390" y="457" on="1"/>
        <pt x="192" y="457" on="1"/>
        <pt x="192" y="344" on="1"/>
        <pt x="390" y="344" on="1"/>
        <pt x="390" y="227" on="1"/>
        <pt x="184" y="227" on="1"/>
        <pt x="70" y="295" on="1"/>
      </contour>
      <contour>
        <pt x="759" y="275" on="1"/>
        <pt x="641" y="344" on="1"/>
        <pt x="435" y="344" on="1"/>
        <pt x="435" y="227" on="1"/>
        <pt x="633" y="227" on="1"/>
        <pt x="633" y="113" on="1"/>
        <pt x="439" y="113" on="1"/>
        <pt x="439" y="0" on="1"/>
        <pt x="641" y="0" on="1"/>
        <pt x="759" y="68" on="1"/>
      </contour>
      <contour>
        <pt x="196" y="182" on="1"/>
        <pt x="196" y="113" on="1"/>
        <pt x="390" y="113" on="1"/>
        <pt x="390" y="0" on="1"/>
        <pt x="187" y="0" on="1"/>
        <pt x="70" y="68" on="1"/>
        <pt x="70" y="182" on="1"/>
      </contour>
      <contour>
        <pt x="759" y="389" on="1"/>
        <pt x="759" y="506" on="1"/>
        <pt x="641" y="575" on="1"/>
        <pt x="435" y="575" on="1"/>
        <pt x="435" y="457" on="1"/>
        <pt x="633" y="457" on="1"/>
        <pt x="633" y="389" on="1"/>
      </contour>
    </TTGlyph>
    <TTGlyph name="Scaron" xMin="80" yMin="0" xMax="769" yMax="575">
      <component glyphName="S" x="10" y="0" flags="0x1004"/>
      <component glyphName="circumflex" x="190" y="683" scalex="0.973571777344" scaley="-0.634948730469" flags="0x1004"/>
    </TTGlyph>
    <TTGlyph name="T" xMin="30" yMin="0" xMax="719" yMax="575">
      <contour>
        <pt x="719" y="462" on="1"/>
        <pt x="431" y="462" on="1"/>
        <pt x="431" y="0" on="1"/>
        <pt x="293" y="0" on="1"/>
        <pt x="293" y="462" on="1"/>
        <pt x="30" y="462" on="1"/>
        <pt x="30" y="575" on="1"/>
        <pt x="719" y="575" on="1"/>
      </contour>
    </TTGlyph>
    <TTGlyph name="Thorn" xMin="100" yMin="1" xMax="790" yMax="712">
      <contour>
        <pt x="790" y="505" on="1"/>
        <pt x="790" y="299" on="1"/>
        <pt x="675" y="231" on="1"/>
        <pt x="467" y="231" on="1"/>
        <pt x="467" y="344" on="1"/>
        <pt x="663" y="344" on="1"/>
        <pt x="663" y="459" on="1"/>
        <pt x="467" y="459" on="1"/>
        <pt x="467" y="575" on="1"/>
        <pt x="675" y="575" on="1"/>
      </contour>
      <contour>
        <pt x="226" y="575" on="1"/>
        <pt x="422" y="575" on="1"/>
        <pt x="422" y="459" on="1"/>
        <pt x="226" y="459" on="1"/>
        <pt x="226" y="344" on="1"/>
        <pt x="422" y="344" on="1"/>
        <pt x="422" y="231" on="1"/>
        <pt x="226" y="231" on="1"/>
        <pt x="226" y="1" on="1"/>
        <pt x="100" y="1" on="1"/>
        <pt x="100" y="712" on="1"/>
        <pt x="226" y="712" on="1"/>
      </contour>
    </TTGlyph>
    <TTGlyph name="U" xMin="80" yMin="0" xMax="769" yMax="575">
      <contour>
        <pt x="80" y="575" on="1"/>
        <pt x="206" y="575" on="1"/>
        <pt x="206" y="117" on="1"/>
        <pt x="400" y="117" on="1"/>
        <pt x="400" y="0" on="1"/>
        <pt x="194" y="0" on="1"/>
        <pt x="80" y="68" on="1"/>
        <pt x="80" y="575" on="1"/>
      </contour>
      <contour>
        <pt x="769" y="575" on="1"/>
        <pt x="643" y="575" on="1"/>
        <pt x="643" y="117" on="1"/>
        <pt x="449" y="117" on="1"/>
        <pt x="449" y="0" on="1"/>
        <pt x="656" y="0" on="1"/>
        <pt x="769" y="68" on="1"/>
        <pt x="769" y="575" on="1"/>
      </contour>
    </TTGlyph>
    <TTGlyph name="Uacute" xMin="90" yMin="0" xMax="779" yMax="698">
      <component glyphName="U" x="10" y="0" flags="0x1004"/>
      <component glyphName="acute" x="105" y="50" flags="0x1004"/>
    </TTGlyph>
    <TTGlyph name="Ucircumflex" xMin="90" yMin="0" xMax="779" yMax="711">
      <component glyphName="U" x="10" y="0" flags="0x1004"/>
      <component glyphName="circumflex" x="201" y="0" flags="0x1004"/>
    </TTGlyph>
    <TTGlyph name="Udieresis" xMin="90" yMin="0" xMax="779" yMax="711">
      <component glyphName="U" x="10" y="0" flags="0x1004"/>
      <component glyphName="dieresis" x="176" y="137" flags="0x1004"/>
    </TTGlyph>
    <TTGlyph name="Ugrave" xMin="91" yMin="0" xMax="780" yMax="712">
      <component glyphName="U" x="11" y="0" flags="0x1004"/>
      <component glyphName="grave" x="-9" y="50" flags="0x1004"/>
    </TTGlyph>
    <TTGlyph name="V" xMin="10" yMin="0" xMax="699" yMax="575">
      <contour>
        <pt x="124" y="575" on="1"/>
        <pt x="330" y="230" on="1"/>
        <pt x="330" y="0" on="1"/>
        <pt x="10" y="538" on="1"/>
        <pt x="124" y="575" on="1"/>
      </contour>
      <contour>
        <pt x="586" y="575" on="1"/>
        <pt x="379" y="230" on="1"/>
        <pt x="379" y="0" on="1"/>
        <pt x="699" y="538" on="1"/>
        <pt x="586" y="575" on="1"/>
      </contour>
    </TTGlyph>
    <TTGlyph name="W" xMin="20" yMin="0" xMax="709" yMax="575">
      <contour>
        <pt x="137" y="0" on="1"/>
        <pt x="20" y="538" on="1"/>
        <pt x="137" y="575" on="1"/>
        <pt x="227" y="138" on="1"/>
        <pt x="344" y="275" on="1"/>
        <pt x="344" y="105" on="1"/>
        <pt x="251" y="0" on="1"/>
      </contour>
      <contour>
        <pt x="596" y="0" on="1"/>
        <pt x="482" y="0" on="1"/>
        <pt x="389" y="105" on="1"/>
        <pt x="389" y="275" on="1"/>
        <pt x="502" y="138" on="1"/>
        <pt x="596" y="575" on="1"/>
        <pt x="709" y="538" on="1"/>
        <pt x="596" y="0" on="1"/>
      </contour>
    </TTGlyph>
    <TTGlyph name="X" xMin="30" yMin="0" xMax="719" yMax="575">
      <contour>
        <pt x="350" y="194" on="1"/>
        <pt x="143" y="0" on="1"/>
        <pt x="30" y="36" on="1"/>
        <pt x="294" y="287" on="1"/>
        <pt x="30" y="538" on="1"/>
        <pt x="143" y="575" on="1"/>
        <pt x="350" y="381" on="1"/>
      </contour>
      <contour>
        <pt x="451" y="287" on="1"/>
        <pt x="719" y="36" on="1"/>
        <pt x="602" y="0" on="1"/>
        <pt x="395" y="194" on="1"/>
        <pt x="395" y="381" on="1"/>
        <pt x="602" y="575" on="1"/>
        <pt x="719" y="538" on="1"/>
      </contour>
    </TTGlyph>
    <TTGlyph name="Y" xMin="30" yMin="0" xMax="719" yMax="575">
      <contour>
        <pt x="431" y="263" on="1"/>
        <pt x="431" y="0" on="1"/>
        <pt x="318" y="0" on="1"/>
        <pt x="318" y="263" on="1"/>
        <pt x="30" y="538" on="1"/>
        <pt x="144" y="575" on="1"/>
        <pt x="374" y="356" on="1"/>
        <pt x="374" y="356" on="1"/>
        <pt x="606" y="575" on="1"/>
        <pt x="719" y="538" on="1"/>
      </contour>
    </TTGlyph>
    <TTGlyph name="Yacute" xMin="30" yMin="0" xMax="719" yMax="709">
      <component glyphName="Y" x="0" y="0" flags="0x1204"/>
      <component glyphName="acute" x="-62" y="61" flags="0x1004"/>
    </TTGlyph>
    <TTGlyph name="Ydieresis" xMin="30" yMin="0" xMax="719" yMax="714">
      <component glyphName="Y" x="0" y="0" flags="0x1204"/>
      <component glyphName="dieresis" x="114" y="140" flags="0x1004"/>
    </TTGlyph>
    <TTGlyph name="Z" xMin="30" yMin="0" xMax="743" yMax="575">
      <contour>
        <pt x="743" y="575" on="1"/>
        <pt x="411" y="219" on="1"/>
        <pt x="411" y="392" on="1"/>
        <pt x="468" y="462" on="1"/>
        <pt x="411" y="462" on="1"/>
        <pt x="411" y="575" on="1"/>
      </contour>
      <contour>
        <pt x="30" y="0" on="1"/>
        <pt x="362" y="356" on="1"/>
        <pt x="362" y="186" on="1"/>
        <pt x="306" y="117" on="1"/>
        <pt x="362" y="117" on="1"/>
        <pt x="362" y="0" on="1"/>
      </contour>
      <contour>
        <pt x="362" y="575" on="1"/>
        <pt x="362" y="462" on="1"/>
        <pt x="46" y="462" on="1"/>
        <pt x="46" y="575" on="1"/>
      </contour>
      <contour>
        <pt x="730" y="117" on="1"/>
        <pt x="730" y="0" on="1"/>
        <pt x="411" y="0" on="1"/>
        <pt x="411" y="117" on="1"/>
      </contour>
    </TTGlyph>
    <TTGlyph name="Zcaron" xMin="50" yMin="0" xMax="763" yMax="711">
      <component glyphName="Z" x="20" y="0" flags="0x1004"/>
      <component glyphName="caron" x="170" y="0" flags="0x1004"/>
    </TTGlyph>
    <TTGlyph name="a" xMin="80" yMin="-1" xMax="680" yMax="440">
      <contour>
        <pt x="80" y="195" on="1"/>
        <pt x="194" y="264" on="1"/>
        <pt x="358" y="264" on="1"/>
        <pt x="358" y="187" on="1"/>
        <pt x="207" y="187" on="1"/>
        <pt x="207" y="105" on="1"/>
        <pt x="358" y="105" on="1"/>
        <pt x="358" y="-1" on="1"/>
        <pt x="194" y="-1" on="1"/>
        <pt x="80" y="68" on="1"/>
      </contour>
      <contour>
        <pt x="80" y="301" on="1"/>
        <pt x="80" y="370" on="1"/>
        <pt x="194" y="440" on="1"/>
        <pt x="358" y="440" on="1"/>
        <pt x="358" y="346" on="1"/>
        <pt x="207" y="346" on="1"/>
        <pt x="207" y="301" on="1"/>
      </contour>
      <contour>
        <pt x="680" y="370" on="1"/>
        <pt x="566" y="440" on="1"/>
        <pt x="402" y="440" on="1"/>
        <pt x="402" y="346" on="1"/>
        <pt x="553" y="346" on="1"/>
        <pt x="553" y="264" on="1"/>
        <pt x="402" y="264" on="1"/>
        <pt x="402" y="187" on="1"/>
        <pt x="553" y="187" on="1"/>
        <pt x="553" y="105" on="1"/>
        <pt x="406" y="105" on="1"/>
        <pt x="406" y="-1" on="1"/>
        <pt x="680" y="-1" on="1"/>
      </contour>
    </TTGlyph>
    <TTGlyph name="aacute" xMin="80" yMin="-1" xMax="680" yMax="648">
      <component glyphName="a" x="0" y="0" flags="0x1004"/>
      <component glyphName="acute" x="-106" y="0" flags="0x1004"/>
    </TTGlyph>
    <TTGlyph name="acircumflex" xMin="80" yMin="-1" xMax="680" yMax="674">
      <component glyphName="a" x="0" y="0" flags="0x1004"/>
      <component glyphName="circumflex" x="145" y="-37" flags="0x1004"/>
    </TTGlyph>
    <TTGlyph name="acute" xMin="441" yMin="572" xMax="670" yMax="648">
      <contour>
        <pt x="670" y="648" on="1"/>
        <pt x="670" y="573" on="1"/>
        <pt x="441" y="572" on="1"/>
      </contour>
    </TTGlyph>
    <TTGlyph name="adieresis" xMin="80" yMin="-1" xMax="680" yMax="574">
      <component glyphName="a" x="0" y="0" flags="0x1004"/>
      <component glyphName="dieresis" x="117" y="0" flags="0x1004"/>
    </TTGlyph>
    <TTGlyph name="ae" xMin="80" yMin="1" xMax="763" yMax="439">
      <contour>
        <pt x="80" y="197" on="1"/>
        <pt x="196" y="266" on="1"/>
        <pt x="313" y="266" on="1"/>
        <pt x="313" y="186" on="1"/>
        <pt x="205" y="186" on="1"/>
        <pt x="205" y="105" on="1"/>
        <pt x="313" y="105" on="1"/>
        <pt x="313" y="1" on="1"/>
        <pt x="196" y="1" on="1"/>
        <pt x="80" y="70" on="1"/>
      </contour>
      <contour>
        <pt x="763" y="255" on="1"/>
        <pt x="648" y="186" on="1"/>
        <pt x="535" y="186" on="1"/>
        <pt x="535" y="266" on="1"/>
        <pt x="638" y="266" on="1"/>
        <pt x="638" y="347" on="1"/>
        <pt x="537" y="347" on="1"/>
        <pt x="537" y="439" on="1"/>
        <pt x="648" y="439" on="1"/>
        <pt x="763" y="370" on="1"/>
      </contour>
      <contour>
        <pt x="636" y="140" on="1"/>
        <pt x="636" y="105" on="1"/>
        <pt x="486" y="105" on="1"/>
        <pt x="486" y="439" on="1"/>
        <pt x="475" y="439" on="1"/>
        <pt x="423" y="408" on="1"/>
        <pt x="371" y="439" on="1"/>
        <pt x="198" y="439" on="1"/>
        <pt x="83" y="370" on="1"/>
        <pt x="83" y="301" on="1"/>
        <pt x="209" y="301" on="1"/>
        <pt x="209" y="347" on="1"/>
        <pt x="360" y="347" on="1"/>
        <pt x="360" y="1" on="1"/>
        <pt x="648" y="1" on="1"/>
        <pt x="763" y="70" on="1"/>
        <pt x="763" y="140" on="1"/>
      </contour>
    </TTGlyph>
    <TTGlyph name="agrave" xMin="80" yMin="-1" xMax="680" yMax="653">
      <component glyphName="a" x="0" y="0" flags="0x1004"/>
      <component glyphName="grave" x="89" y="-9" flags="0x1004"/>
    </TTGlyph>
    <TTGlyph name="ampersand" xMin="60" yMin="1" xMax="748" yMax="572">
      <contour>
        <pt x="667" y="116" on="1"/>
        <pt x="748" y="58" on="1"/>
        <pt x="633" y="1" on="1"/>
        <pt x="598" y="24" on="1"/>
        <pt x="576" y="1" on="1"/>
        <pt x="404" y="1" on="1"/>
        <pt x="404" y="103" on="1"/>
        <pt x="480" y="103" on="1"/>
        <pt x="404" y="154" on="1"/>
        <pt x="404" y="355" on="1"/>
        <pt x="496" y="391" on="1"/>
        <pt x="496" y="439" on="1"/>
        <pt x="404" y="439" on="1"/>
        <pt x="404" y="572" on="1"/>
        <pt x="461" y="572" on="1"/>
        <pt x="611" y="518" on="1"/>
        <pt x="611" y="321" on="1"/>
        <pt x="457" y="260" on="1"/>
        <pt x="576" y="173" on="1"/>
        <pt x="633" y="253" on="1"/>
        <pt x="748" y="219" on="1"/>
      </contour>
      <contour>
        <pt x="356" y="1" on="1"/>
        <pt x="175" y="1" on="1"/>
        <pt x="60" y="59" on="1"/>
        <pt x="60" y="219" on="1"/>
        <pt x="215" y="280" on="1"/>
        <pt x="152" y="321" on="1"/>
        <pt x="152" y="518" on="1"/>
        <pt x="298" y="572" on="1"/>
        <pt x="356" y="572" on="1"/>
        <pt x="356" y="439" on="1"/>
        <pt x="268" y="439" on="1"/>
        <pt x="268" y="391" on="1"/>
        <pt x="356" y="321" on="1"/>
        <pt x="356" y="186" on="1"/>
        <pt x="325" y="207" on="1"/>
        <pt x="184" y="150" on="1"/>
        <pt x="184" y="103" on="1"/>
        <pt x="356" y="103" on="1"/>
      </contour>
    </TTGlyph>
    <TTGlyph name="aring" xMin="80" yMin="-1" xMax="680" yMax="713">
      <component glyphName="a" x="0" y="0" flags="0x1004"/>
      <component glyphName="ring" x="168" y="0" flags="0x1004"/>
    </TTGlyph>
    <TTGlyph name="asciicircum" xMin="30" yMin="437" xMax="408" yMax="711">
      <contour>
        <pt x="348" y="437" on="1"/>
        <pt x="226" y="652" on="1"/>
        <pt x="90" y="437" on="1"/>
        <pt x="30" y="437" on="1"/>
        <pt x="204" y="711" on="1"/>
        <pt x="250" y="711" on="1"/>
        <pt x="250" y="711" on="1"/>
        <pt x="250" y="711" on="1"/>
        <pt x="408" y="437" on="1"/>
      </contour>
    </TTGlyph>
    <TTGlyph name="asciitilde" xMin="80" yMin="227" xMax="456" yMax="331">
      <contour>
        <pt x="456" y="273" on="1"/>
        <pt x="376" y="227" on="1"/>
        <pt x="308" y="227" on="1"/>
        <pt x="217" y="284" on="1"/>
        <pt x="171" y="284" on="1"/>
        <pt x="80" y="227" on="1"/>
        <pt x="80" y="283" on="1"/>
        <pt x="160" y="331" on="1"/>
        <pt x="228" y="331" on="1"/>
        <pt x="319" y="275" on="1"/>
        <pt x="365" y="275" on="1"/>
        <pt x="456" y="328" on="1"/>
      </contour>
    </TTGlyph>
    <TTGlyph name="asterisk" xMin="30" yMin="435" xMax="317" yMax="707">
      <contour>
        <pt x="317" y="547" on="1"/>
        <pt x="215" y="547" on="1"/>
        <pt x="266" y="459" on="1"/>
        <pt x="225" y="435" on="1"/>
        <pt x="174" y="523" on="1"/>
        <pt x="123" y="435" on="1"/>
        <pt x="81" y="459" on="1"/>
        <pt x="132" y="547" on="1"/>
        <pt x="30" y="547" on="1"/>
        <pt x="30" y="595" on="1"/>
        <pt x="132" y="595" on="1"/>
        <pt x="81" y="683" on="1"/>
        <pt x="123" y="707" on="1"/>
        <pt x="174" y="619" on="1"/>
        <pt x="225" y="707" on="1"/>
        <pt x="266" y="683" on="1"/>
        <pt x="215" y="595" on="1"/>
        <pt x="317" y="595" on="1"/>
      </contour>
    </TTGlyph>
    <TTGlyph name="at" xMin="80" yMin="1" xMax="772" yMax="578">
      <contour>
        <pt x="80" y="508" on="1"/>
        <pt x="195" y="578" on="1"/>
        <pt x="402" y="578" on="1"/>
        <pt x="402" y="497" on="1"/>
        <pt x="170" y="497" on="1"/>
        <pt x="170" y="103" on="1"/>
        <pt x="402" y="103" on="1"/>
        <pt x="402" y="1" on="1"/>
        <pt x="195" y="1" on="1"/>
        <pt x="80" y="71" on="1"/>
      </contour>
      <contour>
        <pt x="691" y="103" on="1"/>
        <pt x="449" y="103" on="1"/>
        <pt x="449" y="1" on="1"/>
        <pt x="656" y="1" on="1"/>
        <pt x="772" y="1" on="1"/>
        <pt x="772" y="103" on="1"/>
      </contour>
      <contour>
        <pt x="216" y="358" on="1"/>
        <pt x="334" y="428" on="1"/>
        <pt x="402" y="428" on="1"/>
        <pt x="402" y="347" on="1"/>
        <pt x="320" y="347" on="1"/>
        <pt x="320" y="255" on="1"/>
        <pt x="402" y="255" on="1"/>
        <pt x="402" y="174" on="1"/>
        <pt x="334" y="174" on="1"/>
        <pt x="216" y="243" on="1"/>
      </contour>
      <contour>
        <pt x="772" y="508" on="1"/>
        <pt x="656" y="578" on="1"/>
        <pt x="449" y="578" on="1"/>
        <pt x="449" y="497" on="1"/>
        <pt x="679" y="497" on="1"/>
        <pt x="679" y="255" on="1"/>
        <pt x="608" y="255" on="1"/>
        <pt x="608" y="428" on="1"/>
        <pt x="518" y="428" on="1"/>
        <pt x="521" y="428" on="1"/>
        <pt x="449" y="428" on="1"/>
        <pt x="449" y="347" on="1"/>
        <pt x="504" y="347" on="1"/>
        <pt x="504" y="255" on="1"/>
        <pt x="449" y="255" on="1"/>
        <pt x="449" y="174" on="1"/>
        <pt x="772" y="174" on="1"/>
      </contour>
    </TTGlyph>
    <TTGlyph name="atilde" xMin="80" yMin="-1" xMax="680" yMax="619">
      <component glyphName="a" x="0" y="0" flags="0x1004"/>
      <component glyphName="tilde" x="111" y="0" flags="0x1004"/>
    </TTGlyph>
    <TTGlyph name="b" xMin="100" yMin="0" xMax="696" yMax="576">
      <contour>
        <pt x="100" y="576" on="1"/>
        <pt x="226" y="576" on="1"/>
        <pt x="226" y="438" on="1"/>
        <pt x="376" y="438" on="1"/>
        <pt x="376" y="345" on="1"/>
        <pt x="226" y="345" on="1"/>
        <pt x="226" y="105" on="1"/>
        <pt x="372" y="105" on="1"/>
        <pt x="372" y="0" on="1"/>
        <pt x="100" y="0" on="1"/>
      </contour>
      <contour>
        <pt x="696" y="369" on="1"/>
        <pt x="582" y="438" on="1"/>
        <pt x="420" y="438" on="1"/>
        <pt x="420" y="345" on="1"/>
        <pt x="574" y="345" on="1"/>
        <pt x="574" y="105" on="1"/>
        <pt x="424" y="105" on="1"/>
        <pt x="424" y="0" on="1"/>
        <pt x="582" y="0" on="1"/>
        <pt x="696" y="69" on="1"/>
      </contour>
    </TTGlyph>
    <TTGlyph name="backslash" xMin="30" yMin="1" xMax="452" yMax="648">
      <contour>
        <pt x="91" y="648" on="1"/>
        <pt x="452" y="1" on="1"/>
        <pt x="397" y="1" on="1"/>
        <pt x="30" y="647" on="1"/>
      </contour>
    </TTGlyph>
    <TTGlyph name="bar" xMin="100" yMin="-121" xMax="158" yMax="712">
      <contour>
        <pt x="158" y="-121" on="1"/>
        <pt x="100" y="-121" on="1"/>
        <pt x="100" y="712" on="1"/>
        <pt x="158" y="712" on="1"/>
      </contour>
    </TTGlyph>
    <TTGlyph name="braceleft" xMin="30" yMin="-133" xMax="363" yMax="709">
      <contour>
        <pt x="123" y="235" on="1"/>
        <pt x="30" y="322" on="1"/>
        <pt x="123" y="408" on="1"/>
        <pt x="123" y="623" on="1"/>
        <pt x="264" y="709" on="1"/>
        <pt x="363" y="709" on="1"/>
        <pt x="179" y="595" on="1"/>
        <pt x="179" y="398" on="1"/>
        <pt x="95" y="322" on="1"/>
        <pt x="179" y="247" on="1"/>
        <pt x="179" y="-19" on="1"/>
        <pt x="363" y="-133" on="1"/>
        <pt x="264" y="-133" on="1"/>
        <pt x="123" y="-47" on="1"/>
      </contour>
    </TTGlyph>
    <TTGlyph name="braceright" xMin="20" yMin="-133" xMax="352" yMax="709">
      <contour>
        <pt x="261" y="-47" on="1"/>
        <pt x="118" y="-133" on="1"/>
        <pt x="20" y="-133" on="1"/>
        <pt x="203" y="-19" on="1"/>
        <pt x="203" y="247" on="1"/>
        <pt x="288" y="322" on="1"/>
        <pt x="203" y="398" on="1"/>
        <pt x="203" y="595" on="1"/>
        <pt x="20" y="709" on="1"/>
        <pt x="118" y="709" on="1"/>
        <pt x="261" y="623" on="1"/>
        <pt x="261" y="408" on="1"/>
        <pt x="352" y="322" on="1"/>
        <pt x="261" y="235" on="1"/>
      </contour>
    </TTGlyph>
    <TTGlyph name="bracketleft" xMin="100" yMin="-121" xMax="273" yMax="711">
      <contour>
        <pt x="100" y="-121" on="1"/>
        <pt x="100" y="711" on="1"/>
        <pt x="273" y="711" on="1"/>
        <pt x="273" y="666" on="1"/>
        <pt x="156" y="666" on="1"/>
        <pt x="156" y="-72" on="1"/>
        <pt x="273" y="-72" on="1"/>
        <pt x="273" y="-121" on="1"/>
        <pt x="100" y="-121" on="1"/>
      </contour>
    </TTGlyph>
    <TTGlyph name="bracketright" xMin="30" yMin="-121" xMax="204" yMax="711">
      <contour>
        <pt x="204" y="-121" on="1"/>
        <pt x="30" y="-121" on="1"/>
        <pt x="30" y="-74" on="1"/>
        <pt x="146" y="-74" on="1"/>
        <pt x="146" y="667" on="1"/>
        <pt x="30" y="667" on="1"/>
        <pt x="30" y="711" on="1"/>
        <pt x="204" y="711" on="1"/>
      </contour>
    </TTGlyph>
    <TTGlyph name="breve" xMin="80" yMin="573" xMax="356" yMax="712">
      <contour>
        <pt x="242" y="627" on="1"/>
        <pt x="311" y="652" on="1"/>
        <pt x="311" y="712" on="1"/>
        <pt x="356" y="712" on="1"/>
        <pt x="356" y="621" on="1"/>
        <pt x="242" y="573" on="1"/>
      </contour>
      <contour>
        <pt x="80" y="621" on="1"/>
        <pt x="80" y="712" on="1"/>
        <pt x="125" y="712" on="1"/>
        <pt x="125" y="652" on="1"/>
        <pt x="194" y="627" on="1"/>
        <pt x="194" y="573" on="1"/>
      </contour>
    </TTGlyph>
    <TTGlyph name="brokenbar" xMin="100" yMin="-121" xMax="158" yMax="712">
      <contour>
        <pt x="158" y="344" on="1"/>
        <pt x="100" y="344" on="1"/>
        <pt x="100" y="712" on="1"/>
        <pt x="158" y="712" on="1"/>
      </contour>
      <contour>
        <pt x="158" y="-121" on="1"/>
        <pt x="100" y="-121" on="1"/>
        <pt x="100" y="230" on="1"/>
        <pt x="158" y="230" on="1"/>
      </contour>
    </TTGlyph>
    <TTGlyph name="bullet" xMin="80" yMin="174" xMax="275" yMax="357">
      <contour>
        <pt x="178" y="174" on="1"/>
        <pt x="80" y="208" on="1"/>
        <pt x="80" y="323" on="1"/>
        <pt x="178" y="357" on="1"/>
        <pt x="275" y="323" on="1"/>
        <pt x="275" y="208" on="1"/>
        <pt x="178" y="174" on="1"/>
      </contour>
    </TTGlyph>
    <TTGlyph name="c" xMin="80" yMin="0" xMax="680" yMax="441">
      <contour>
        <pt x="80" y="372" on="1"/>
        <pt x="194" y="441" on="1"/>
        <pt x="358" y="441" on="1"/>
        <pt x="358" y="347" on="1"/>
        <pt x="207" y="347" on="1"/>
        <pt x="207" y="106" on="1"/>
        <pt x="354" y="106" on="1"/>
        <pt x="354" y="0" on="1"/>
        <pt x="194" y="0" on="1"/>
        <pt x="80" y="69" on="1"/>
      </contour>
      <contour>
        <pt x="680" y="302" on="1"/>
        <pt x="680" y="372" on="1"/>
        <pt x="566" y="441" on="1"/>
        <pt x="403" y="441" on="1"/>
        <pt x="403" y="347" on="1"/>
        <pt x="554" y="347" on="1"/>
        <pt x="554" y="302" on="1"/>
      </contour>
      <contour>
        <pt x="680" y="139" on="1"/>
        <pt x="680" y="69" on="1"/>
        <pt x="566" y="0" on="1"/>
        <pt x="403" y="0" on="1"/>
        <pt x="403" y="106" on="1"/>
        <pt x="554" y="106" on="1"/>
        <pt x="554" y="139" on="1"/>
      </contour>
    </TTGlyph>
    <TTGlyph name="caron" xMin="80" yMin="614" xMax="388" yMax="711">
      <contour>
        <pt x="388" y="711" on="1"/>
        <pt x="260" y="614" on="1"/>
        <pt x="260" y="614" on="1"/>
        <pt x="260" y="614" on="1"/>
        <pt x="214" y="614" on="1"/>
        <pt x="80" y="711" on="1"/>
        <pt x="157" y="711" on="1"/>
        <pt x="236" y="655" on="1"/>
        <pt x="311" y="711" on="1"/>
      </contour>
    </TTGlyph>
    <TTGlyph name="ccedilla" xMin="80" yMin="-194" xMax="680" yMax="441">
      <component glyphName="c" x="0" y="0" flags="0x1204"/>
      <component glyphName="cedilla" x="214" y="0" flags="0x1004"/>
    </TTGlyph>
    <TTGlyph name="cedilla" xMin="80" yMin="-194" xMax="331" yMax="-1">
      <contour>
        <pt x="228" y="-140" on="1"/>
        <pt x="286" y="-114" on="1"/>
        <pt x="286" y="-79" on="1"/>
        <pt x="228" y="-54" on="1"/>
        <pt x="228" y="-1" on="1"/>
        <pt x="331" y="-45" on="1"/>
        <pt x="331" y="-148" on="1"/>
        <pt x="228" y="-194" on="1"/>
      </contour>
      <contour>
        <pt x="80" y="-148" on="1"/>
        <pt x="125" y="-114" on="1"/>
        <pt x="183" y="-140" on="1"/>
        <pt x="183" y="-194" on="1"/>
      </contour>
    </TTGlyph>
    <TTGlyph name="cent" xMin="80" yMin="-90" xMax="677" yMax="564">
      <contour>
        <pt x="402" y="345" on="1"/>
        <pt x="402" y="564" on="1"/>
        <pt x="449" y="564" on="1"/>
        <pt x="449" y="438" on="1"/>
        <pt x="563" y="438" on="1"/>
        <pt x="677" y="369" on="1"/>
        <pt x="677" y="300" on="1"/>
        <pt x="552" y="300" on="1"/>
        <pt x="552" y="345" on="1"/>
      </contour>
      <contour>
        <pt x="552" y="139" on="1"/>
        <pt x="677" y="139" on="1"/>
        <pt x="677" y="71" on="1"/>
        <pt x="563" y="0" on="1"/>
        <pt x="449" y="0" on="1"/>
        <pt x="449" y="-90" on="1"/>
        <pt x="402" y="-90" on="1"/>
        <pt x="402" y="105" on="1"/>
        <pt x="552" y="105" on="1"/>
      </contour>
      <contour>
        <pt x="308" y="564" on="1"/>
        <pt x="356" y="564" on="1"/>
        <pt x="356" y="345" on="1"/>
        <pt x="205" y="345" on="1"/>
        <pt x="205" y="105" on="1"/>
        <pt x="353" y="105" on="1"/>
        <pt x="353" y="-90" on="1"/>
        <pt x="305" y="-90" on="1"/>
        <pt x="305" y="0" on="1"/>
        <pt x="195" y="0" on="1"/>
        <pt x="80" y="71" on="1"/>
        <pt x="80" y="369" on="1"/>
        <pt x="195" y="438" on="1"/>
        <pt x="308" y="438" on="1"/>
      </contour>
    </TTGlyph>
    <TTGlyph name="circumflex" xMin="80" yMin="614" xMax="388" yMax="711">
      <contour>
        <pt x="388" y="614" on="1"/>
        <pt x="311" y="614" on="1"/>
        <pt x="236" y="670" on="1"/>
        <pt x="157" y="614" on="1"/>
        <pt x="80" y="614" on="1"/>
        <pt x="214" y="711" on="1"/>
        <pt x="260" y="711" on="1"/>
        <pt x="260" y="711" on="1"/>
        <pt x="260" y="711" on="1"/>
        <pt x="388" y="614" on="1"/>
      </contour>
    </TTGlyph>
    <TTGlyph name="colon" xMin="80" yMin="1" xMax="193" yMax="436">
      <contour>
        <pt x="80" y="436" on="1"/>
        <pt x="193" y="436" on="1"/>
        <pt x="193" y="298" on="1"/>
        <pt x="80" y="298" on="1"/>
      </contour>
      <contour>
        <pt x="80" y="139" on="1"/>
        <pt x="193" y="139" on="1"/>
        <pt x="193" y="1" on="1"/>
        <pt x="80" y="1" on="1"/>
      </contour>
    </TTGlyph>
    <TTGlyph name="comma" xMin="80" yMin="-69" xMax="194" yMax="138">
      <contour>
        <pt x="80" y="138" on="1"/>
        <pt x="194" y="138" on="1"/>
        <pt x="194" y="0" on="1"/>
        <pt x="80" y="-69" on="1"/>
      </contour>
    </TTGlyph>
    <TTGlyph name="copyright" xMin="80" yMin="86" xMax="621" yMax="624">
      <contour>
        <pt x="375" y="141" on="1"/>
        <pt x="576" y="231" on="1"/>
        <pt x="579" y="482" on="1"/>
        <pt x="375" y="571" on="1"/>
        <pt x="375" y="624" on="1"/>
        <pt x="621" y="518" on="1"/>
        <pt x="621" y="197" on="1"/>
        <pt x="375" y="86" on="1"/>
      </contour>
      <contour>
        <pt x="80" y="199" on="1"/>
        <pt x="80" y="513" on="1"/>
        <pt x="329" y="624" on="1"/>
        <pt x="329" y="571" on="1"/>
        <pt x="124" y="482" on="1"/>
        <pt x="124" y="229" on="1"/>
        <pt x="329" y="141" on="1"/>
        <pt x="329" y="86" on="1"/>
      </contour>
      <contour>
        <pt x="233" y="433" on="1"/>
        <pt x="273" y="457" on="1"/>
        <pt x="343" y="457" on="1"/>
        <pt x="343" y="418" on="1"/>
        <pt x="277" y="418" on="1"/>
        <pt x="277" y="301" on="1"/>
        <pt x="342" y="301" on="1"/>
        <pt x="342" y="261" on="1"/>
        <pt x="273" y="261" on="1"/>
        <pt x="233" y="284" on="1"/>
      </contour>
      <contour>
        <pt x="469" y="324" on="1"/>
        <pt x="469" y="284" on="1"/>
        <pt x="429" y="261" on="1"/>
        <pt x="360" y="261" on="1"/>
        <pt x="360" y="301" on="1"/>
        <pt x="425" y="301" on="1"/>
        <pt x="425" y="324" on="1"/>
      </contour>
      <contour>
        <pt x="425" y="395" on="1"/>
        <pt x="425" y="418" on="1"/>
        <pt x="359" y="418" on="1"/>
        <pt x="359" y="457" on="1"/>
        <pt x="429" y="457" on="1"/>
        <pt x="469" y="433" on="1"/>
        <pt x="469" y="395" on="1"/>
      </contour>
    </TTGlyph>
    <TTGlyph name="creativecommons" xMin="80" yMin="86" xMax="621" yMax="624">
      <contour>
        <pt x="375" y="141" on="1"/>
        <pt x="576" y="231" on="1"/>
        <pt x="579" y="482" on="1"/>
        <pt x="375" y="571" on="1"/>
        <pt x="375" y="624" on="1"/>
        <pt x="621" y="518" on="1"/>
        <pt x="621" y="197" on="1"/>
        <pt x="375" y="86" on="1"/>
      </contour>
      <contour>
        <pt x="80" y="199" on="1"/>
        <pt x="80" y="513" on="1"/>
        <pt x="329" y="624" on="1"/>
        <pt x="329" y="571" on="1"/>
        <pt x="124" y="482" on="1"/>
        <pt x="124" y="229" on="1"/>
        <pt x="329" y="141" on="1"/>
        <pt x="329" y="86" on="1"/>
      </contour>
      <contour>
        <pt x="179" y="429" on="1"/>
        <pt x="236" y="464" on="1"/>
        <pt x="316" y="464" on="1"/>
        <pt x="316" y="417" on="1"/>
        <pt x="234" y="417" on="1"/>
        <pt x="234" y="297" on="1"/>
        <pt x="315" y="297" on="1"/>
        <pt x="315" y="244" on="1"/>
        <pt x="236" y="244" on="1"/>
        <pt x="179" y="280" on="1"/>
      </contour>
      <contour>
        <pt x="366" y="429" on="1"/>
        <pt x="422" y="464" on="1"/>
        <pt x="503" y="464" on="1"/>
        <pt x="503" y="417" on="1"/>
        <pt x="421" y="417" on="1"/>
        <pt x="421" y="297" on="1"/>
        <pt x="501" y="297" on="1"/>
        <pt x="501" y="244" on="1"/>
        <pt x="422" y="244" on="1"/>
        <pt x="366" y="280" on="1"/>
      </contour>
    </TTGlyph>
    <TTGlyph name="currency" xMin="30" yMin="1" xMax="742" yMax="439">
      <contour>
        <pt x="625" y="136" on="1"/>
        <pt x="742" y="85" on="1"/>
        <pt x="705" y="1" on="1"/>
        <pt x="549" y="68" on="1"/>
        <pt x="408" y="3" on="1"/>
        <pt x="408" y="115" on="1"/>
        <pt x="501" y="158" on="1"/>
        <pt x="501" y="299" on="1"/>
        <pt x="408" y="339" on="1"/>
        <pt x="408" y="438" on="1"/>
        <pt x="409" y="439" on="1"/>
        <pt x="558" y="375" on="1"/>
        <pt x="705" y="438" on="1"/>
        <pt x="742" y="354" on="1"/>
        <pt x="625" y="303" on="1"/>
      </contour>
      <contour>
        <pt x="147" y="303" on="1"/>
        <pt x="30" y="354" on="1"/>
        <pt x="67" y="438" on="1"/>
        <pt x="214" y="375" on="1"/>
        <pt x="363" y="439" on="1"/>
        <pt x="363" y="438" on="1"/>
        <pt x="363" y="339" on="1"/>
        <pt x="271" y="299" on="1"/>
        <pt x="271" y="158" on="1"/>
        <pt x="363" y="115" on="1"/>
        <pt x="363" y="3" on="1"/>
        <pt x="223" y="68" on="1"/>
        <pt x="67" y="1" on="1"/>
        <pt x="30" y="85" on="1"/>
        <pt x="147" y="136" on="1"/>
      </contour>
    </TTGlyph>
    <TTGlyph name="d" xMin="80" yMin="0" xMax="676" yMax="576">
      <contour>
        <pt x="676" y="0" on="1"/>
        <pt x="404" y="0" on="1"/>
        <pt x="404" y="105" on="1"/>
        <pt x="550" y="105" on="1"/>
        <pt x="550" y="345" on="1"/>
        <pt x="400" y="345" on="1"/>
        <pt x="400" y="438" on="1"/>
        <pt x="550" y="438" on="1"/>
        <pt x="550" y="576" on="1"/>
        <pt x="676" y="576" on="1"/>
      </contour>
      <contour>
        <pt x="80" y="369" on="1"/>
        <pt x="194" y="438" on="1"/>
        <pt x="356" y="438" on="1"/>
        <pt x="356" y="345" on="1"/>
        <pt x="202" y="345" on="1"/>
        <pt x="202" y="105" on="1"/>
        <pt x="352" y="105" on="1"/>
        <pt x="352" y="0" on="1"/>
        <pt x="194" y="0" on="1"/>
        <pt x="80" y="69" on="1"/>
      </contour>
    </TTGlyph>
    <TTGlyph name="dagger" xMin="20" yMin="-194" xMax="477" yMax="575">
      <contour>
        <pt x="477" y="230" on="1"/>
        <pt x="316" y="230" on="1"/>
        <pt x="316" y="-194" on="1"/>
        <pt x="190" y="-194" on="1"/>
        <pt x="190" y="230" on="1"/>
        <pt x="20" y="230" on="1"/>
        <pt x="20" y="265" on="1"/>
        <pt x="190" y="265" on="1"/>
        <pt x="190" y="575" on="1"/>
        <pt x="316" y="575" on="1"/>
        <pt x="316" y="265" on="1"/>
        <pt x="477" y="265" on="1"/>
      </contour>
    </TTGlyph>
    <TTGlyph name="daggerdbl" xMin="20" yMin="-194" xMax="478" yMax="577">
      <contour>
        <pt x="317" y="186" on="1"/>
        <pt x="478" y="186" on="1"/>
        <pt x="478" y="152" on="1"/>
        <pt x="317" y="152" on="1"/>
        <pt x="317" y="-194" on="1"/>
        <pt x="190" y="-194" on="1"/>
        <pt x="190" y="152" on="1"/>
        <pt x="20" y="152" on="1"/>
        <pt x="20" y="186" on="1"/>
        <pt x="190" y="186" on="1"/>
        <pt x="190" y="232" on="1"/>
        <pt x="20" y="232" on="1"/>
        <pt x="20" y="266" on="1"/>
        <pt x="190" y="266" on="1"/>
        <pt x="190" y="577" on="1"/>
        <pt x="317" y="577" on="1"/>
        <pt x="317" y="266" on="1"/>
        <pt x="478" y="266" on="1"/>
        <pt x="478" y="232" on="1"/>
        <pt x="317" y="232" on="1"/>
      </contour>
    </TTGlyph>
    <TTGlyph name="degree" xMin="80" yMin="446" xMax="331" yMax="696">
      <contour>
        <pt x="229" y="446" on="1"/>
        <pt x="229" y="501" on="1"/>
        <pt x="286" y="526" on="1"/>
        <pt x="286" y="618" on="1"/>
        <pt x="229" y="643" on="1"/>
        <pt x="229" y="696" on="1"/>
        <pt x="331" y="652" on="1"/>
        <pt x="331" y="492" on="1"/>
      </contour>
      <contour>
        <pt x="183" y="446" on="1"/>
        <pt x="80" y="492" on="1"/>
        <pt x="80" y="652" on="1"/>
        <pt x="183" y="696" on="1"/>
        <pt x="183" y="643" on="1"/>
        <pt x="125" y="618" on="1"/>
        <pt x="125" y="526" on="1"/>
        <pt x="183" y="501" on="1"/>
      </contour>
    </TTGlyph>
    <TTGlyph name="dieresis" xMin="80" yMin="513" xMax="436" yMax="574">
      <contour>
        <pt x="197" y="513" on="1"/>
        <pt x="80" y="514" on="1"/>
        <pt x="80" y="574" on="1"/>
        <pt x="197" y="574" on="1"/>
      </contour>
      <contour>
        <pt x="323" y="513" on="1"/>
        <pt x="436" y="514" on="1"/>
        <pt x="436" y="574" on="1"/>
        <pt x="323" y="574" on="1"/>
      </contour>
      <contour>
        <pt x="197" y="513" on="1"/>
        <pt x="80" y="514" on="1"/>
        <pt x="80" y="574" on="1"/>
        <pt x="197" y="574" on="1"/>
      </contour>
      <contour>
        <pt x="323" y="513" on="1"/>
        <pt x="436" y="514" on="1"/>
        <pt x="436" y="574" on="1"/>
        <pt x="323" y="574" on="1"/>
      </contour>
    </TTGlyph>
    <TTGlyph name="divide" xMin="80" yMin="66" xMax="412" yMax="388">
      <contour>
        <pt x="412" y="264" on="1"/>
        <pt x="412" y="206" on="1"/>
        <pt x="80" y="206" on="1"/>
        <pt x="80" y="264" on="1"/>
      </contour>
      <contour>
        <pt x="248" y="66" on="1"/>
        <pt x="212" y="81" on="1"/>
        <pt x="212" y="123" on="1"/>
        <pt x="248" y="138" on="1"/>
        <pt x="280" y="123" on="1"/>
        <pt x="280" y="81" on="1"/>
      </contour>
      <contour>
        <pt x="248" y="315" on="1"/>
        <pt x="212" y="331" on="1"/>
        <pt x="212" y="373" on="1"/>
        <pt x="248" y="388" on="1"/>
        <pt x="280" y="373" on="1"/>
        <pt x="280" y="331" on="1"/>
      </contour>
    </TTGlyph>
    <TTGlyph name="dollar" xMin="70" yMin="-195" xMax="758" yMax="710">
      <contour>
        <pt x="389" y="230" on="1"/>
        <pt x="185" y="230" on="1"/>
        <pt x="70" y="298" on="1"/>
        <pt x="70" y="506" on="1"/>
        <pt x="185" y="574" on="1"/>
        <pt x="343" y="574" on="1"/>
        <pt x="343" y="710" on="1"/>
        <pt x="392" y="710" on="1"/>
        <pt x="392" y="460" on="1"/>
        <pt x="392" y="460" on="1"/>
        <pt x="194" y="460" on="1"/>
        <pt x="194" y="345" on="1"/>
        <pt x="389" y="345" on="1"/>
      </contour>
      <contour>
        <pt x="438" y="345" on="1"/>
        <pt x="645" y="345" on="1"/>
        <pt x="758" y="276" on="1"/>
        <pt x="758" y="69" on="1"/>
        <pt x="645" y="1" on="1"/>
        <pt x="485" y="1" on="1"/>
        <pt x="485" y="-195" on="1"/>
        <pt x="438" y="-195" on="1"/>
        <pt x="438" y="115" on="1"/>
        <pt x="439" y="115" on="1"/>
        <pt x="439" y="115" on="1"/>
        <pt x="633" y="115" on="1"/>
        <pt x="633" y="230" on="1"/>
        <pt x="438" y="230" on="1"/>
      </contour>
      <contour>
        <pt x="392" y="115" on="1"/>
        <pt x="392" y="115" on="1"/>
        <pt x="392" y="115" on="1"/>
        <pt x="392" y="-195" on="1"/>
        <pt x="344" y="-195" on="1"/>
        <pt x="344" y="1" on="1"/>
        <pt x="186" y="1" on="1"/>
        <pt x="73" y="69" on="1"/>
        <pt x="73" y="184" on="1"/>
        <pt x="197" y="184" on="1"/>
        <pt x="197" y="115" on="1"/>
      </contour>
      <contour>
        <pt x="633" y="460" on="1"/>
        <pt x="438" y="460" on="1"/>
        <pt x="438" y="460" on="1"/>
        <pt x="438" y="710" on="1"/>
        <pt x="485" y="710" on="1"/>
        <pt x="485" y="574" on="1"/>
        <pt x="645" y="574" on="1"/>
        <pt x="758" y="506" on="1"/>
        <pt x="758" y="391" on="1"/>
        <pt x="633" y="391" on="1"/>
      </contour>
    </TTGlyph>
    <TTGlyph name="dotaccent" xMin="80" yMin="632" xMax="164" yMax="712">
      <contour>
        <pt x="80" y="712" on="1"/>
        <pt x="164" y="712" on="1"/>
        <pt x="164" y="632" on="1"/>
        <pt x="80" y="632" on="1"/>
      </contour>
    </TTGlyph>
    <TTGlyph name="dotlessi" xMin="50" yMin="-1" xMax="315" yMax="439">
      <contour>
        <pt x="315" y="439" on="1"/>
        <pt x="315" y="-1" on="1"/>
        <pt x="199" y="-1" on="1"/>
        <pt x="199" y="323" on="1"/>
        <pt x="50" y="265" on="1"/>
        <pt x="50" y="369" on="1"/>
        <pt x="212" y="439" on="1"/>
        <pt x="315" y="439" on="1"/>
      </contour>
    </TTGlyph>
    <TTGlyph name="e" xMin="80" yMin="0" xMax="684" yMax="441">
      <contour>
        <pt x="684" y="257" on="1"/>
        <pt x="566" y="188" on="1"/>
        <pt x="406" y="188" on="1"/>
        <pt x="406" y="265" on="1"/>
        <pt x="557" y="265" on="1"/>
        <pt x="557" y="347" on="1"/>
        <pt x="406" y="347" on="1"/>
        <pt x="406" y="441" on="1"/>
        <pt x="566" y="441" on="1"/>
        <pt x="684" y="371" on="1"/>
      </contour>
      <contour>
        <pt x="684" y="139" on="1"/>
        <pt x="684" y="69" on="1"/>
        <pt x="566" y="0" on="1"/>
        <pt x="406" y="0" on="1"/>
        <pt x="406" y="106" on="1"/>
        <pt x="553" y="106" on="1"/>
        <pt x="553" y="139" on="1"/>
      </contour>
      <contour>
        <pt x="80" y="69" on="1"/>
        <pt x="198" y="0" on="1"/>
        <pt x="357" y="0" on="1"/>
        <pt x="357" y="106" on="1"/>
        <pt x="206" y="106" on="1"/>
        <pt x="206" y="188" on="1"/>
        <pt x="357" y="188" on="1"/>
        <pt x="357" y="265" on="1"/>
        <pt x="206" y="265" on="1"/>
        <pt x="206" y="347" on="1"/>
        <pt x="357" y="347" on="1"/>
        <pt x="357" y="441" on="1"/>
        <pt x="198" y="441" on="1"/>
        <pt x="80" y="371" on="1"/>
      </contour>
    </TTGlyph>
    <TTGlyph name="eacute" xMin="80" yMin="0" xMax="684" yMax="648">
      <component glyphName="e" x="0" y="0" flags="0x1204"/>
      <component glyphName="acute" x="-102" y="0" flags="0x1004"/>
    </TTGlyph>
    <TTGlyph name="ecircumflex" xMin="80" yMin="0" xMax="684" yMax="674">
      <component glyphName="e" x="0" y="0" flags="0x1204"/>
      <component glyphName="circumflex" x="146" y="-37" flags="0x1004"/>
    </TTGlyph>
    <TTGlyph name="edieresis" xMin="80" yMin="0" xMax="684" yMax="576">
      <component glyphName="e" x="0" y="0" flags="0x1204"/>
      <component glyphName="dieresis" x="121" y="2" flags="0x1004"/>
    </TTGlyph>
    <TTGlyph name="egrave" xMin="80" yMin="0" xMax="684" yMax="653">
      <component glyphName="e" x="0" y="0" flags="0x1204"/>
      <component glyphName="grave" x="104" y="-9" flags="0x1004"/>
    </TTGlyph>
    <TTGlyph name="eight" xMin="80" yMin="1" xMax="774" yMax="577">
      <contour>
        <pt x="660" y="1" on="1"/>
        <pt x="452" y="1" on="1"/>
        <pt x="452" y="115" on="1"/>
        <pt x="647" y="115" on="1"/>
        <pt x="647" y="230" on="1"/>
        <pt x="452" y="230" on="1"/>
        <pt x="452" y="348" on="1"/>
        <pt x="647" y="348" on="1"/>
        <pt x="647" y="462" on="1"/>
        <pt x="452" y="462" on="1"/>
        <pt x="452" y="577" on="1"/>
        <pt x="660" y="577" on="1"/>
        <pt x="774" y="508" on="1"/>
        <pt x="774" y="336" on="1"/>
        <pt x="680" y="287" on="1"/>
        <pt x="774" y="242" on="1"/>
        <pt x="774" y="70" on="1"/>
      </contour>
      <contour>
        <pt x="80" y="70" on="1"/>
        <pt x="80" y="242" on="1"/>
        <pt x="174" y="287" on="1"/>
        <pt x="80" y="336" on="1"/>
        <pt x="80" y="508" on="1"/>
        <pt x="194" y="577" on="1"/>
        <pt x="402" y="577" on="1"/>
        <pt x="402" y="462" on="1"/>
        <pt x="207" y="462" on="1"/>
        <pt x="207" y="348" on="1"/>
        <pt x="402" y="348" on="1"/>
        <pt x="402" y="230" on="1"/>
        <pt x="207" y="230" on="1"/>
        <pt x="207" y="115" on="1"/>
        <pt x="402" y="115" on="1"/>
        <pt x="402" y="1" on="1"/>
        <pt x="194" y="1" on="1"/>
      </contour>
    </TTGlyph>
    <TTGlyph name="ellipsis" xMin="50" yMin="0" xMax="499" yMax="121">
      <contour>
        <pt x="222" y="121" on="1"/>
        <pt x="325" y="121" on="1"/>
        <pt x="325" y="1" on="1"/>
        <pt x="222" y="0" on="1"/>
      </contour>
      <contour>
        <pt x="50" y="121" on="1"/>
        <pt x="153" y="121" on="1"/>
        <pt x="153" y="1" on="1"/>
        <pt x="50" y="0" on="1"/>
      </contour>
      <contour>
        <pt x="396" y="121" on="1"/>
        <pt x="499" y="121" on="1"/>
        <pt x="499" y="1" on="1"/>
        <pt x="396" y="0" on="1"/>
      </contour>
    </TTGlyph>
    <TTGlyph name="emdash" xMin="80" yMin="247" xMax="813" yMax="306">
      <contour>
        <pt x="813" y="306" on="1"/>
        <pt x="813" y="247" on="1"/>
        <pt x="80" y="247" on="1"/>
        <pt x="80" y="306" on="1"/>
      </contour>
    </TTGlyph>
    <TTGlyph name="endash" xMin="80" yMin="247" xMax="679" yMax="306">
      <contour>
        <pt x="679" y="306" on="1"/>
        <pt x="679" y="247" on="1"/>
        <pt x="80" y="247" on="1"/>
        <pt x="80" y="306" on="1"/>
      </contour>
    </TTGlyph>
    <TTGlyph name="equal" xMin="80" yMin="136" xMax="413" yMax="311">
      <contour>
        <pt x="413" y="311" on="1"/>
        <pt x="413" y="264" on="1"/>
        <pt x="80" y="264" on="1"/>
        <pt x="80" y="311" on="1"/>
        <pt x="413" y="311" on="1"/>
      </contour>
      <contour>
        <pt x="413" y="184" on="1"/>
        <pt x="413" y="136" on="1"/>
        <pt x="80" y="136" on="1"/>
        <pt x="80" y="184" on="1"/>
        <pt x="413" y="184" on="1"/>
      </contour>
    </TTGlyph>
    <TTGlyph name="eth" xMin="80" yMin="1" xMax="665" yMax="597">
      <contour>
        <pt x="195" y="437" on="1"/>
        <pt x="355" y="437" on="1"/>
        <pt x="355" y="345" on="1"/>
        <pt x="204" y="345" on="1"/>
        <pt x="204" y="105" on="1"/>
        <pt x="355" y="105" on="1"/>
        <pt x="355" y="1" on="1"/>
        <pt x="195" y="1" on="1"/>
        <pt x="80" y="70" on="1"/>
        <pt x="80" y="369" on="1"/>
      </contour>
      <contour>
        <pt x="665" y="369" on="1"/>
        <pt x="665" y="70" on="1"/>
        <pt x="550" y="1" on="1"/>
        <pt x="401" y="1" on="1"/>
        <pt x="401" y="105" on="1"/>
        <pt x="540" y="105" on="1"/>
        <pt x="540" y="345" on="1"/>
        <pt x="401" y="345" on="1"/>
        <pt x="401" y="437" on="1"/>
        <pt x="530" y="437" on="1"/>
        <pt x="470" y="496" on="1"/>
        <pt x="432" y="458" on="1"/>
        <pt x="400" y="491" on="1"/>
        <pt x="437" y="529" on="1"/>
        <pt x="401" y="565" on="1"/>
        <pt x="433" y="597" on="1"/>
        <pt x="469" y="561" on="1"/>
        <pt x="506" y="596" on="1"/>
        <pt x="538" y="564" on="1"/>
        <pt x="503" y="529" on="1"/>
      </contour>
    </TTGlyph>
    <TTGlyph name="exclam" xMin="50" yMin="0" xMax="188" yMax="575">
      <contour>
        <pt x="50" y="138" on="1"/>
        <pt x="188" y="138" on="1"/>
        <pt x="188" y="0" on="1"/>
        <pt x="50" y="0" on="1"/>
      </contour>
      <contour>
        <pt x="50" y="575" on="1"/>
        <pt x="188" y="575" on="1"/>
        <pt x="188" y="198" on="1"/>
        <pt x="50" y="198" on="1"/>
      </contour>
    </TTGlyph>
    <TTGlyph name="exclamdown" xMin="100" yMin="0" xMax="238" yMax="575">
      <component glyphName="exclam" x="50" y="575" scalex="1.0" scaley="-0.999938964844" flags="0x1004"/>
    </TTGlyph>
    <TTGlyph name="f" xMin="30" yMin="0" xMax="571" yMax="576">
      <contour>
        <pt x="295" y="344" on="1"/>
        <pt x="446" y="344" on="1"/>
        <pt x="446" y="264" on="1"/>
        <pt x="295" y="264" on="1"/>
      </contour>
      <contour>
        <pt x="251" y="0" on="1"/>
        <pt x="126" y="0" on="1"/>
        <pt x="126" y="264" on="1"/>
        <pt x="30" y="264" on="1"/>
        <pt x="30" y="344" on="1"/>
        <pt x="126" y="344" on="1"/>
        <pt x="126" y="507" on="1"/>
        <pt x="251" y="576" on="1"/>
      </contour>
      <contour>
        <pt x="446" y="437" on="1"/>
        <pt x="446" y="483" on="1"/>
        <pt x="295" y="483" on="1"/>
        <pt x="295" y="576" on="1"/>
        <pt x="458" y="576" on="1"/>
        <pt x="571" y="507" on="1"/>
        <pt x="571" y="437" on="1"/>
      </contour>
    </TTGlyph>
    <TTGlyph name="fi" xMin="30" yMin="-1" xMax="626" yMax="576">
      <contour>
        <pt x="350" y="344" on="1"/>
        <pt x="436" y="344" on="1"/>
        <pt x="436" y="264" on="1"/>
        <pt x="350" y="264" on="1"/>
      </contour>
      <contour>
        <pt x="306" y="0" on="1"/>
        <pt x="181" y="0" on="1"/>
        <pt x="181" y="264" on="1"/>
        <pt x="30" y="264" on="1"/>
        <pt x="30" y="344" on="1"/>
        <pt x="181" y="344" on="1"/>
        <pt x="181" y="507" on="1"/>
        <pt x="306" y="576" on="1"/>
      </contour>
      <contour>
        <pt x="350" y="483" on="1"/>
        <pt x="350" y="576" on="1"/>
        <pt x="513" y="576" on="1"/>
        <pt x="626" y="576" on="1"/>
        <pt x="626" y="480" on="1"/>
      </contour>
      <contour>
        <pt x="625" y="440" on="1"/>
        <pt x="625" y="-1" on="1"/>
        <pt x="499" y="-1" on="1"/>
        <pt x="499" y="440" on="1"/>
      </contour>
    </TTGlyph>
    <TTGlyph name="five" xMin="90" yMin="1" xMax="785" yMax="577">
      <contour>
        <pt x="90" y="577" on="1"/>
        <pt x="413" y="577" on="1"/>
        <pt x="413" y="463" on="1"/>
        <pt x="217" y="463" on="1"/>
        <pt x="217" y="348" on="1"/>
        <pt x="413" y="348" on="1"/>
        <pt x="413" y="230" on="1"/>
        <pt x="90" y="230" on="1"/>
      </contour>
      <contour>
        <pt x="217" y="185" on="1"/>
        <pt x="217" y="115" on="1"/>
        <pt x="413" y="115" on="1"/>
        <pt x="413" y="1" on="1"/>
        <pt x="204" y="1" on="1"/>
        <pt x="90" y="70" on="1"/>
        <pt x="90" y="185" on="1"/>
      </contour>
      <contour>
        <pt x="785" y="463" on="1"/>
        <pt x="462" y="463" on="1"/>
        <pt x="462" y="577" on="1"/>
        <pt x="785" y="577" on="1"/>
      </contour>
      <contour>
        <pt x="785" y="279" on="1"/>
        <pt x="785" y="70" on="1"/>
        <pt x="671" y="1" on="1"/>
        <pt x="462" y="1" on="1"/>
        <pt x="462" y="115" on="1"/>
        <pt x="658" y="115" on="1"/>
        <pt x="658" y="230" on="1"/>
        <pt x="462" y="230" on="1"/>
        <pt x="462" y="348" on="1"/>
        <pt x="658" y="348" on="1"/>
      </contour>
    </TTGlyph>
    <TTGlyph name="fl" xMin="30" yMin="-1" xMax="626" yMax="576">
      <contour>
        <pt x="350" y="344" on="1"/>
        <pt x="436" y="344" on="1"/>
        <pt x="436" y="264" on="1"/>
        <pt x="350" y="264" on="1"/>
      </contour>
      <contour>
        <pt x="306" y="0" on="1"/>
        <pt x="181" y="0" on="1"/>
        <pt x="181" y="264" on="1"/>
        <pt x="30" y="264" on="1"/>
        <pt x="30" y="344" on="1"/>
        <pt x="181" y="344" on="1"/>
        <pt x="181" y="507" on="1"/>
        <pt x="306" y="576" on="1"/>
      </contour>
      <contour>
        <pt x="501" y="-1" on="1"/>
        <pt x="501" y="483" on="1"/>
        <pt x="350" y="483" on="1"/>
        <pt x="350" y="576" on="1"/>
        <pt x="513" y="576" on="1"/>
        <pt x="626" y="576" on="1"/>
        <pt x="626" y="-1" on="1"/>
      </contour>
    </TTGlyph>
    <TTGlyph name="florin" xMin="20" yMin="-194" xMax="619" yMax="578">
      <contour>
        <pt x="343" y="347" on="1"/>
        <pt x="493" y="347" on="1"/>
        <pt x="493" y="266" on="1"/>
        <pt x="343" y="266" on="1"/>
      </contour>
      <contour>
        <pt x="172" y="508" on="1"/>
        <pt x="297" y="578" on="1"/>
        <pt x="297" y="-124" on="1"/>
        <pt x="181" y="-194" on="1"/>
        <pt x="20" y="-194" on="1"/>
        <pt x="20" y="-92" on="1"/>
        <pt x="172" y="-92" on="1"/>
        <pt x="172" y="266" on="1"/>
        <pt x="20" y="266" on="1"/>
        <pt x="20" y="347" on="1"/>
        <pt x="172" y="347" on="1"/>
      </contour>
      <contour>
        <pt x="619" y="439" on="1"/>
        <pt x="493" y="439" on="1"/>
        <pt x="493" y="485" on="1"/>
        <pt x="343" y="485" on="1"/>
        <pt x="343" y="578" on="1"/>
        <pt x="505" y="578" on="1"/>
        <pt x="619" y="508" on="1"/>
      </contour>
    </TTGlyph>
    <TTGlyph name="four" xMin="20" yMin="1" xMax="721" yMax="576">
      <contour>
        <pt x="721" y="1" on="1"/>
        <pt x="604" y="1" on="1"/>
        <pt x="604" y="228" on="1"/>
        <pt x="397" y="228" on="1"/>
        <pt x="397" y="345" on="1"/>
        <pt x="604" y="345" on="1"/>
        <pt x="604" y="576" on="1"/>
        <pt x="721" y="576" on="1"/>
      </contour>
      <contour>
        <pt x="227" y="345" on="1"/>
        <pt x="348" y="345" on="1"/>
        <pt x="348" y="228" on="1"/>
        <pt x="20" y="228" on="1"/>
        <pt x="227" y="572" on="1"/>
        <pt x="364" y="572" on="1"/>
      </contour>
    </TTGlyph>
    <TTGlyph name="fraction" xMin="30" yMin="1" xMax="460" yMax="648">
      <contour>
        <pt x="460" y="648" on="1"/>
        <pt x="99" y="1" on="1"/>
        <pt x="30" y="1" on="1"/>
        <pt x="385" y="647" on="1"/>
      </contour>
    </TTGlyph>
    <TTGlyph name="g" xMin="80" yMin="-195" xMax="681" yMax="440">
      <contour>
        <pt x="80" y="-45" on="1"/>
        <pt x="80" y="-126" on="1"/>
        <pt x="197" y="-195" on="1"/>
        <pt x="355" y="-195" on="1"/>
        <pt x="355" y="-90" on="1"/>
        <pt x="209" y="-90" on="1"/>
        <pt x="209" y="-45" on="1"/>
      </contour>
      <contour>
        <pt x="80" y="371" on="1"/>
        <pt x="197" y="440" on="1"/>
        <pt x="355" y="440" on="1"/>
        <pt x="355" y="344" on="1"/>
        <pt x="207" y="344" on="1"/>
        <pt x="207" y="137" on="1"/>
        <pt x="355" y="137" on="1"/>
        <pt x="355" y="56" on="1"/>
        <pt x="197" y="56" on="1"/>
        <pt x="80" y="126" on="1"/>
      </contour>
      <contour>
        <pt x="681" y="440" on="1"/>
        <pt x="405" y="440" on="1"/>
        <pt x="405" y="344" on="1"/>
        <pt x="554" y="344" on="1"/>
        <pt x="554" y="137" on="1"/>
        <pt x="405" y="137" on="1"/>
        <pt x="405" y="56" on="1"/>
        <pt x="554" y="56" on="1"/>
        <pt x="554" y="-90" on="1"/>
        <pt x="405" y="-90" on="1"/>
        <pt x="405" y="-195" on="1"/>
        <pt x="564" y="-195" on="1"/>
        <pt x="681" y="-126" on="1"/>
      </contour>
    </TTGlyph>
    <TTGlyph name="germandbls" xMin="100" yMin="0" xMax="793" yMax="577">
      <contour>
        <pt x="100" y="577" on="1"/>
        <pt x="423" y="577" on="1"/>
        <pt x="423" y="462" on="1"/>
        <pt x="227" y="462" on="1"/>
        <pt x="227" y="0" on="1"/>
        <pt x="100" y="0" on="1"/>
        <pt x="100" y="577" on="1"/>
      </contour>
      <contour>
        <pt x="793" y="70" on="1"/>
        <pt x="793" y="243" on="1"/>
        <pt x="700" y="289" on="1"/>
        <pt x="793" y="335" on="1"/>
        <pt x="793" y="508" on="1"/>
        <pt x="677" y="577" on="1"/>
        <pt x="470" y="577" on="1"/>
        <pt x="470" y="462" on="1"/>
        <pt x="666" y="462" on="1"/>
        <pt x="666" y="347" on="1"/>
        <pt x="470" y="347" on="1"/>
        <pt x="470" y="231" on="1"/>
        <pt x="666" y="231" on="1"/>
        <pt x="666" y="116" on="1"/>
        <pt x="472" y="116" on="1"/>
        <pt x="472" y="0" on="1"/>
        <pt x="677" y="0" on="1"/>
        <pt x="793" y="70" on="1"/>
      </contour>
    </TTGlyph>
    <TTGlyph name="glyph231" xMin="-29" yMin="0" xMax="347" yMax="619">
      <component glyphName="I" x="30" y="0" scalex="0.992065429688" scaley="0.760009765625" flags="0x1004"/>
      <component glyphName="tilde" x="-109" y="0" flags="0x1004"/>
    </TTGlyph>
    <TTGlyph name="glyph232" xMin="45" yMin="1" xMax="703" yMax="579">
      <contour>
        <pt x="230" y="441" on="1"/>
        <pt x="380" y="441" on="1"/>
        <pt x="380" y="347" on="1"/>
        <pt x="230" y="347" on="1"/>
        <pt x="230" y="1" on="1"/>
        <pt x="103" y="1" on="1"/>
        <pt x="103" y="490" on="1"/>
        <pt x="45" y="490" on="1"/>
        <pt x="45" y="530" on="1"/>
        <pt x="103" y="530" on="1"/>
        <pt x="103" y="579" on="1"/>
        <pt x="230" y="579" on="1"/>
        <pt x="230" y="530" on="1"/>
        <pt x="287" y="530" on="1"/>
        <pt x="287" y="490" on="1"/>
        <pt x="230" y="490" on="1"/>
      </contour>
      <contour>
        <pt x="703" y="370" on="1"/>
        <pt x="703" y="1" on="1"/>
        <pt x="576" y="1" on="1"/>
        <pt x="576" y="347" on="1"/>
        <pt x="427" y="347" on="1"/>
        <pt x="427" y="441" on="1"/>
        <pt x="588" y="441" on="1"/>
      </contour>
    </TTGlyph>
    <TTGlyph name="gnu" xMin="80" yMin="86" xMax="621" yMax="624">
      <contour>
        <pt x="375" y="141" on="1"/>
        <pt x="576" y="231" on="1"/>
        <pt x="579" y="482" on="1"/>
        <pt x="375" y="571" on="1"/>
        <pt x="375" y="624" on="1"/>
        <pt x="621" y="518" on="1"/>
        <pt x="621" y="197" on="1"/>
        <pt x="375" y="86" on="1"/>
      </contour>
      <contour>
        <pt x="80" y="199" on="1"/>
        <pt x="80" y="513" on="1"/>
        <pt x="329" y="624" on="1"/>
        <pt x="329" y="571" on="1"/>
        <pt x="124" y="482" on="1"/>
        <pt x="124" y="229" on="1"/>
        <pt x="329" y="141" on="1"/>
        <pt x="329" y="86" on="1"/>
      </contour>
      <contour>
        <pt x="372" y="417" on="1"/>
        <pt x="404" y="396" on="1"/>
        <pt x="404" y="286" on="1"/>
        <pt x="376" y="286" on="1"/>
        <pt x="376" y="383" on="1"/>
        <pt x="325" y="383" on="1"/>
        <pt x="325" y="287" on="1"/>
        <pt x="294" y="287" on="1"/>
        <pt x="294" y="396" on="1"/>
        <pt x="325" y="417" on="1"/>
      </contour>
      <contour>
        <pt x="455" y="286" on="1"/>
        <pt x="424" y="307" on="1"/>
        <pt x="424" y="417" on="1"/>
        <pt x="452" y="417" on="1"/>
        <pt x="452" y="321" on="1"/>
        <pt x="503" y="321" on="1"/>
        <pt x="503" y="416" on="1"/>
        <pt x="534" y="416" on="1"/>
        <pt x="534" y="307" on="1"/>
        <pt x="503" y="286" on="1"/>
      </contour>
      <contour>
        <pt x="274" y="359" on="1"/>
        <pt x="274" y="300" on="1"/>
        <pt x="242" y="286" on="1"/>
        <pt x="197" y="286" on="1"/>
        <pt x="163" y="307" on="1"/>
        <pt x="163" y="396" on="1"/>
        <pt x="197" y="417" on="1"/>
        <pt x="242" y="417" on="1"/>
        <pt x="274" y="396" on="1"/>
        <pt x="274" y="390" on="1"/>
        <pt x="194" y="390" on="1"/>
        <pt x="194" y="317" on="1"/>
        <pt x="242" y="317" on="1"/>
        <pt x="242" y="341" on="1"/>
        <pt x="221" y="341" on="1"/>
        <pt x="221" y="359" on="1"/>
      </contour>
    </TTGlyph>
    <TTGlyph name="grave" xMin="100" yMin="586" xMax="329" yMax="662">
      <contour>
        <pt x="329" y="586" on="1"/>
        <pt x="100" y="587" on="1"/>
        <pt x="100" y="662" on="1"/>
      </contour>
    </TTGlyph>
    <TTGlyph name="greater" xMin="80" yMin="56" xMax="412" yMax="391">
      <contour>
        <pt x="412" y="206" on="1"/>
        <pt x="80" y="56" on="1"/>
        <pt x="80" y="114" on="1"/>
        <pt x="339" y="228" on="1"/>
        <pt x="80" y="334" on="1"/>
        <pt x="80" y="391" on="1"/>
        <pt x="412" y="252" on="1"/>
      </contour>
    </TTGlyph>
    <TTGlyph name="greaterequal" xMin="80" yMin="58" xMax="411" yMax="391">
      <contour>
        <pt x="411" y="116" on="1"/>
        <pt x="411" y="58" on="1"/>
        <pt x="80" y="58" on="1"/>
        <pt x="80" y="116" on="1"/>
      </contour>
      <contour>
        <pt x="411" y="241" on="1"/>
        <pt x="80" y="124" on="1"/>
        <pt x="80" y="182" on="1"/>
        <pt x="322" y="262" on="1"/>
        <pt x="80" y="334" on="1"/>
        <pt x="80" y="391" on="1"/>
        <pt x="411" y="286" on="1"/>
      </contour>
    </TTGlyph>
    <TTGlyph name="guillemotleft" xMin="40" yMin="60" xMax="367" yMax="391">
      <contour>
        <pt x="40" y="254" on="1"/>
        <pt x="220" y="391" on="1"/>
        <pt x="220" y="334" on="1"/>
        <pt x="84" y="231" on="1"/>
        <pt x="220" y="118" on="1"/>
        <pt x="220" y="60" on="1"/>
        <pt x="40" y="208" on="1"/>
      </contour>
      <contour>
        <pt x="187" y="254" on="1"/>
        <pt x="367" y="391" on="1"/>
        <pt x="367" y="334" on="1"/>
        <pt x="230" y="231" on="1"/>
        <pt x="367" y="118" on="1"/>
        <pt x="367" y="60" on="1"/>
        <pt x="187" y="208" on="1"/>
      </contour>
    </TTGlyph>
    <TTGlyph name="guillemotright" xMin="40" yMin="60" xMax="367" yMax="391">
      <contour>
        <pt x="367" y="208" on="1"/>
        <pt x="187" y="60" on="1"/>
        <pt x="187" y="118" on="1"/>
        <pt x="323" y="231" on="1"/>
        <pt x="187" y="334" on="1"/>
        <pt x="187" y="391" on="1"/>
        <pt x="367" y="254" on="1"/>
      </contour>
      <contour>
        <pt x="220" y="208" on="1"/>
        <pt x="40" y="60" on="1"/>
        <pt x="40" y="118" on="1"/>
        <pt x="177" y="231" on="1"/>
        <pt x="40" y="334" on="1"/>
        <pt x="40" y="391" on="1"/>
        <pt x="220" y="254" on="1"/>
      </contour>
    </TTGlyph>
    <TTGlyph name="guilsinglleft" xMin="50" yMin="60" xMax="230" yMax="391">
      <contour>
        <pt x="50" y="254" on="1"/>
        <pt x="230" y="391" on="1"/>
        <pt x="230" y="334" on="1"/>
        <pt x="94" y="231" on="1"/>
        <pt x="230" y="118" on="1"/>
        <pt x="230" y="60" on="1"/>
        <pt x="50" y="208" on="1"/>
      </contour>
    </TTGlyph>
    <TTGlyph name="guilsinglright" xMin="50" yMin="60" xMax="230" yMax="391">
      <contour>
        <pt x="230" y="208" on="1"/>
        <pt x="50" y="60" on="1"/>
        <pt x="50" y="118" on="1"/>
        <pt x="186" y="231" on="1"/>
        <pt x="50" y="334" on="1"/>
        <pt x="50" y="391" on="1"/>
        <pt x="230" y="254" on="1"/>
      </contour>
    </TTGlyph>
    <TTGlyph name="h" xMin="100" yMin="-1" xMax="695" yMax="575">
      <contour>
        <pt x="100" y="575" on="1"/>
        <pt x="223" y="575" on="1"/>
        <pt x="223" y="440" on="1"/>
        <pt x="375" y="440" on="1"/>
        <pt x="375" y="344" on="1"/>
        <pt x="223" y="344" on="1"/>
        <pt x="223" y="-1" on="1"/>
        <pt x="100" y="-1" on="1"/>
      </contour>
      <contour>
        <pt x="695" y="371" on="1"/>
        <pt x="582" y="440" on="1"/>
        <pt x="419" y="440" on="1"/>
        <pt x="419" y="344" on="1"/>
        <pt x="569" y="344" on="1"/>
        <pt x="569" y="-1" on="1"/>
        <pt x="695" y="-1" on="1"/>
      </contour>
    </TTGlyph>
    <TTGlyph name="hungarumlaut" xMin="80" yMin="621" xMax="436" yMax="714">
      <contour>
        <pt x="197" y="690" on="1"/>
        <pt x="80" y="621" on="1"/>
        <pt x="80" y="714" on="1"/>
        <pt x="197" y="714" on="1"/>
      </contour>
      <contour>
        <pt x="436" y="690" on="1"/>
        <pt x="323" y="621" on="1"/>
        <pt x="323" y="714" on="1"/>
        <pt x="436" y="714" on="1"/>
      </contour>
      <contour>
        <pt x="197" y="690" on="1"/>
        <pt x="80" y="621" on="1"/>
        <pt x="80" y="714" on="1"/>
        <pt x="197" y="714" on="1"/>
      </contour>
      <contour>
        <pt x="436" y="690" on="1"/>
        <pt x="323" y="621" on="1"/>
        <pt x="323" y="714" on="1"/>
        <pt x="436" y="714" on="1"/>
      </contour>
    </TTGlyph>
    <TTGlyph name="hyphen" xMin="80" yMin="247" xMax="316" yMax="296">
      <contour>
        <pt x="316" y="296" on="1"/>
        <pt x="316" y="247" on="1"/>
        <pt x="80" y="247" on="1"/>
        <pt x="80" y="296" on="1"/>
        <pt x="316" y="296" on="1"/>
      </contour>
    </TTGlyph>
    <TTGlyph name="i" xMin="80" yMin="-1" xMax="206" yMax="574">
      <contour>
        <pt x="206" y="440" on="1"/>
        <pt x="206" y="-1" on="1"/>
        <pt x="80" y="-1" on="1"/>
        <pt x="80" y="440" on="1"/>
      </contour>
      <contour>
        <pt x="204" y="481" on="1"/>
        <pt x="80" y="481" on="1"/>
        <pt x="80" y="574" on="1"/>
        <pt x="204" y="574" on="1"/>
      </contour>
    </TTGlyph>
    <TTGlyph name="iacute" xMin="46" yMin="0" xMax="275" yMax="649">
      <component glyphName="I" x="16" y="0" scalex="0.992065429688" scaley="0.765197753906" flags="0x1004"/>
      <component glyphName="acute" x="-395" y="1" flags="0x1004"/>
    </TTGlyph>
    <TTGlyph name="icircumflex" xMin="46" yMin="0" xMax="354" yMax="673">
      <component glyphName="I" x="57" y="0" scalex="0.992065429688" scaley="0.760009765625" flags="0x1004"/>
      <component glyphName="circumflex" x="-34" y="-38" flags="0x1004"/>
    </TTGlyph>
    <TTGlyph name="idieresis" xMin="47" yMin="0" xMax="275" yMax="577">
      <component glyphName="I" x="17" y="0" scalex="0.992065429688" scaley="0.760009765625" flags="0x1004"/>
      <component glyphName="dieresis" x="-3" y="-6" scalex="0.637634277344" scaley="1.015625" flags="0x1004"/>
    </TTGlyph>
    <TTGlyph name="igrave" xMin="46" yMin="0" xMax="275" yMax="653">
      <component glyphName="I" x="18" y="0" scalex="0.976196289062" scaley="0.760009765625" flags="0x1004"/>
      <component glyphName="grave" x="-54" y="-9" flags="0x1004"/>
    </TTGlyph>
    <TTGlyph name="j" xMin="-210" yMin="-195" xMax="235" yMax="574">
      <contour>
        <pt x="-210" y="-39" on="1"/>
        <pt x="-210" y="-126" on="1"/>
        <pt x="-94" y="-195" on="1"/>
        <pt x="65" y="-195" on="1"/>
        <pt x="65" y="-90" on="1"/>
        <pt x="-84" y="-90" on="1"/>
        <pt x="-84" y="-39" on="1"/>
      </contour>
      <contour>
        <pt x="234" y="440" on="1"/>
        <pt x="111" y="440" on="1"/>
        <pt x="111" y="-90" on="1"/>
        <pt x="111" y="-195" on="1"/>
        <pt x="234" y="-126" on="1"/>
      </contour>
      <contour>
        <pt x="235" y="480" on="1"/>
        <pt x="111" y="481" on="1"/>
        <pt x="111" y="574" on="1"/>
        <pt x="235" y="574" on="1"/>
      </contour>
    </TTGlyph>
    <TTGlyph name="k" xMin="100" yMin="-1" xMax="697" yMax="575">
      <contour>
        <pt x="100" y="575" on="1"/>
        <pt x="226" y="575" on="1"/>
        <pt x="226" y="262" on="1"/>
        <pt x="282" y="262" on="1"/>
        <pt x="282" y="189" on="1"/>
        <pt x="226" y="189" on="1"/>
        <pt x="226" y="-1" on="1"/>
        <pt x="100" y="-1" on="1"/>
      </contour>
      <contour>
        <pt x="446" y="230" on="1"/>
        <pt x="675" y="381" on="1"/>
        <pt x="592" y="440" on="1"/>
        <pt x="332" y="262" on="1"/>
        <pt x="332" y="189" on="1"/>
        <pt x="584" y="-1" on="1"/>
        <pt x="697" y="68" on="1"/>
      </contour>
    </TTGlyph>
    <TTGlyph name="l" xMin="100" yMin="-1" xMax="228" yMax="575">
      <contour>
        <pt x="100" y="575" on="1"/>
        <pt x="228" y="575" on="1"/>
        <pt x="228" y="-1" on="1"/>
        <pt x="100" y="-1" on="1"/>
      </contour>
    </TTGlyph>
    <TTGlyph name="less" xMin="30" yMin="56" xMax="362" yMax="391">
      <contour>
        <pt x="362" y="334" on="1"/>
        <pt x="103" y="228" on="1"/>
        <pt x="362" y="114" on="1"/>
        <pt x="362" y="56" on="1"/>
        <pt x="30" y="206" on="1"/>
        <pt x="30" y="252" on="1"/>
        <pt x="30" y="252" on="1"/>
        <pt x="30" y="252" on="1"/>
        <pt x="362" y="391" on="1"/>
      </contour>
    </TTGlyph>
    <TTGlyph name="lessequal" xMin="80" yMin="58" xMax="411" yMax="391">
      <contour>
        <pt x="411" y="116" on="1"/>
        <pt x="411" y="58" on="1"/>
        <pt x="80" y="58" on="1"/>
        <pt x="80" y="116" on="1"/>
      </contour>
      <contour>
        <pt x="411" y="182" on="1"/>
        <pt x="411" y="124" on="1"/>
        <pt x="80" y="241" on="1"/>
        <pt x="80" y="286" on="1"/>
        <pt x="80" y="286" on="1"/>
        <pt x="80" y="286" on="1"/>
        <pt x="411" y="391" on="1"/>
        <pt x="411" y="334" on="1"/>
        <pt x="169" y="262" on="1"/>
      </contour>
    </TTGlyph>
    <TTGlyph name="logicalnot" xMin="30" yMin="137" xMax="364" yMax="324">
      <contour>
        <pt x="30" y="324" on="1"/>
        <pt x="364" y="324" on="1"/>
        <pt x="364" y="316" on="1"/>
        <pt x="364" y="137" on="1"/>
        <pt x="308" y="137" on="1"/>
        <pt x="308" y="266" on="1"/>
        <pt x="30" y="266" on="1"/>
        <pt x="30" y="324" on="1"/>
      </contour>
    </TTGlyph>
    <TTGlyph name="lslash" xMin="50" yMin="-1" xMax="292" yMax="577">
      <contour>
        <pt x="292" y="438" on="1"/>
        <pt x="292" y="391" on="1"/>
        <pt x="235" y="377" on="1"/>
        <pt x="235" y="-1" on="1"/>
        <pt x="107" y="-1" on="1"/>
        <pt x="107" y="347" on="1"/>
        <pt x="50" y="333" on="1"/>
        <pt x="50" y="380" on="1"/>
        <pt x="107" y="393" on="1"/>
        <pt x="107" y="577" on="1"/>
        <pt x="235" y="577" on="1"/>
        <pt x="235" y="424" on="1"/>
        <pt x="292" y="438" on="1"/>
      </contour>
    </TTGlyph>
    <TTGlyph name="m" xMin="100" yMin="1" xMax="835" yMax="440">
      <contour>
        <pt x="100" y="440" on="1"/>
        <pt x="225" y="440" on="1"/>
        <pt x="225" y="397" on="1"/>
        <pt x="379" y="440" on="1"/>
        <pt x="379" y="346" on="1"/>
        <pt x="225" y="346" on="1"/>
        <pt x="225" y="1" on="1"/>
        <pt x="100" y="1" on="1"/>
      </contour>
      <contour>
        <pt x="721" y="440" on="1"/>
        <pt x="678" y="440" on="1"/>
        <pt x="550" y="385" on="1"/>
        <pt x="419" y="440" on="1"/>
        <pt x="419" y="346" on="1"/>
        <pt x="419" y="1" on="1"/>
        <pt x="550" y="1" on="1"/>
        <pt x="550" y="346" on="1"/>
        <pt x="710" y="346" on="1"/>
        <pt x="710" y="1" on="1"/>
        <pt x="835" y="1" on="1"/>
        <pt x="835" y="371" on="1"/>
      </contour>
    </TTGlyph>
    <TTGlyph name="macron" xMin="80" yMin="524" xMax="388" yMax="575">
      <contour>
        <pt x="388" y="575" on="1"/>
        <pt x="388" y="524" on="1"/>
        <pt x="80" y="524" on="1"/>
        <pt x="80" y="575" on="1"/>
      </contour>
    </TTGlyph>
    <TTGlyph name="minus" xMin="30" yMin="247" xMax="366" yMax="306">
      <contour>
        <pt x="366" y="306" on="1"/>
        <pt x="366" y="247" on="1"/>
        <pt x="30" y="247" on="1"/>
        <pt x="30" y="306" on="1"/>
      </contour>
    </TTGlyph>
    <TTGlyph name="mu" xMin="100" yMin="-194" xMax="695" yMax="438">
      <contour>
        <pt x="695" y="438" on="1"/>
        <pt x="695" y="2" on="1"/>
        <pt x="569" y="2" on="1"/>
        <pt x="569" y="48" on="1"/>
        <pt x="421" y="2" on="1"/>
        <pt x="421" y="105" on="1"/>
        <pt x="569" y="105" on="1"/>
        <pt x="569" y="438" on="1"/>
      </contour>
      <contour>
        <pt x="227" y="105" on="1"/>
        <pt x="375" y="105" on="1"/>
        <pt x="375" y="2" on="1"/>
        <pt x="227" y="2" on="1"/>
        <pt x="227" y="-194" on="1"/>
        <pt x="100" y="-194" on="1"/>
        <pt x="100" y="438" on="1"/>
        <pt x="226" y="438" on="1"/>
        <pt x="227" y="438" on="1"/>
      </contour>
    </TTGlyph>
    <TTGlyph name="multiply" xMin="80" yMin="39" xMax="438" yMax="397">
      <contour>
        <pt x="438" y="353" on="1"/>
        <pt x="313" y="218" on="1"/>
        <pt x="438" y="93" on="1"/>
        <pt x="385" y="39" on="1"/>
        <pt x="259" y="164" on="1"/>
        <pt x="134" y="39" on="1"/>
        <pt x="80" y="93" on="1"/>
        <pt x="206" y="218" on="1"/>
        <pt x="80" y="343" on="1"/>
        <pt x="134" y="397" on="1"/>
        <pt x="259" y="272" on="1"/>
        <pt x="385" y="397" on="1"/>
      </contour>
    </TTGlyph>
    <TTGlyph name="n" xMin="100" yMin="1" xMax="699" yMax="440">
      <contour>
        <pt x="100" y="440" on="1"/>
        <pt x="227" y="440" on="1"/>
        <pt x="227" y="397" on="1"/>
        <pt x="375" y="440" on="1"/>
        <pt x="375" y="346" on="1"/>
        <pt x="227" y="346" on="1"/>
        <pt x="227" y="1" on="1"/>
        <pt x="100" y="1" on="1"/>
      </contour>
      <contour>
        <pt x="699" y="371" on="1"/>
        <pt x="581" y="440" on="1"/>
        <pt x="423" y="440" on="1"/>
        <pt x="423" y="346" on="1"/>
        <pt x="574" y="346" on="1"/>
        <pt x="574" y="1" on="1"/>
        <pt x="699" y="1" on="1"/>
      </contour>
    </TTGlyph>
    <TTGlyph name="nine" xMin="80" yMin="1" xMax="766" yMax="574">
      <contour>
        <pt x="80" y="505" on="1"/>
        <pt x="193" y="574" on="1"/>
        <pt x="399" y="574" on="1"/>
        <pt x="399" y="461" on="1"/>
        <pt x="205" y="461" on="1"/>
        <pt x="205" y="344" on="1"/>
        <pt x="399" y="344" on="1"/>
        <pt x="399" y="231" on="1"/>
        <pt x="193" y="231" on="1"/>
        <pt x="80" y="300" on="1"/>
      </contour>
      <contour>
        <pt x="205" y="187" on="1"/>
        <pt x="205" y="118" on="1"/>
        <pt x="399" y="118" on="1"/>
        <pt x="399" y="1" on="1"/>
        <pt x="193" y="1" on="1"/>
        <pt x="80" y="70" on="1"/>
        <pt x="80" y="187" on="1"/>
      </contour>
      <contour>
        <pt x="766" y="70" on="1"/>
        <pt x="653" y="1" on="1"/>
        <pt x="447" y="1" on="1"/>
        <pt x="447" y="118" on="1"/>
        <pt x="641" y="118" on="1"/>
        <pt x="641" y="231" on="1"/>
        <pt x="447" y="231" on="1"/>
        <pt x="447" y="344" on="1"/>
        <pt x="641" y="344" on="1"/>
        <pt x="641" y="461" on="1"/>
        <pt x="447" y="461" on="1"/>
        <pt x="447" y="574" on="1"/>
        <pt x="641" y="574" on="1"/>
        <pt x="766" y="505" on="1"/>
      </contour>
    </TTGlyph>
    <TTGlyph name="nonbreakingspace" xMin="0" yMin="0" xMax="0" yMax="0">
      <component glyphName="space" x="0" y="0" flags="0x1004"/>
    </TTGlyph>
    <TTGlyph name="ntilde" xMin="100" yMin="1" xMax="699" yMax="619">
      <component glyphName="n" x="0" y="0" flags="0x1204"/>
      <component glyphName="tilde" x="132" y="0" flags="0x1004"/>
    </TTGlyph>
    <TTGlyph name="numbersign" xMin="50" yMin="47" xMax="384" yMax="390">
      <contour>
        <pt x="384" y="264" on="1"/>
        <pt x="318" y="264" on="1"/>
        <pt x="291" y="184" on="1"/>
        <pt x="384" y="184" on="1"/>
        <pt x="384" y="136" on="1"/>
        <pt x="275" y="136" on="1"/>
        <pt x="245" y="47" on="1"/>
        <pt x="245" y="47" on="1"/>
        <pt x="245" y="47" on="1"/>
        <pt x="199" y="47" on="1"/>
        <pt x="228" y="136" on="1"/>
        <pt x="149" y="136" on="1"/>
        <pt x="119" y="47" on="1"/>
        <pt x="119" y="47" on="1"/>
        <pt x="119" y="47" on="1"/>
        <pt x="73" y="47" on="1"/>
        <pt x="103" y="136" on="1"/>
        <pt x="50" y="136" on="1"/>
        <pt x="50" y="184" on="1"/>
        <pt x="118" y="184" on="1"/>
        <pt x="144" y="264" on="1"/>
        <pt x="50" y="264" on="1"/>
        <pt x="50" y="312" on="1"/>
        <pt x="160" y="312" on="1"/>
        <pt x="186" y="390" on="1"/>
        <pt x="234" y="390" on="1"/>
        <pt x="208" y="312" on="1"/>
        <pt x="286" y="312" on="1"/>
        <pt x="312" y="390" on="1"/>
        <pt x="360" y="390" on="1"/>
        <pt x="334" y="312" on="1"/>
        <pt x="384" y="312" on="1"/>
      </contour>
      <contour>
        <pt x="244" y="184" on="1"/>
        <pt x="270" y="264" on="1"/>
        <pt x="192" y="264" on="1"/>
        <pt x="165" y="184" on="1"/>
      </contour>
    </TTGlyph>
    <TTGlyph name="o" xMin="80" yMin="1" xMax="667" yMax="440">
      <contour>
        <pt x="80" y="371" on="1"/>
        <pt x="197" y="440" on="1"/>
        <pt x="355" y="440" on="1"/>
        <pt x="355" y="346" on="1"/>
        <pt x="205" y="346" on="1"/>
        <pt x="205" y="108" on="1"/>
        <pt x="355" y="108" on="1"/>
        <pt x="355" y="1" on="1"/>
        <pt x="197" y="1" on="1"/>
        <pt x="80" y="70" on="1"/>
      </contour>
      <contour>
        <pt x="667" y="371" on="1"/>
        <pt x="550" y="440" on="1"/>
        <pt x="391" y="440" on="1"/>
        <pt x="391" y="346" on="1"/>
        <pt x="542" y="346" on="1"/>
        <pt x="542" y="108" on="1"/>
        <pt x="391" y="108" on="1"/>
        <pt x="391" y="1" on="1"/>
        <pt x="550" y="1" on="1"/>
        <pt x="667" y="70" on="1"/>
      </contour>
    </TTGlyph>
    <TTGlyph name="oacute" xMin="80" yMin="1" xMax="667" yMax="648">
      <component glyphName="o" x="0" y="0" flags="0x1204"/>
      <component glyphName="acute" x="-118" y="0" flags="0x1004"/>
    </TTGlyph>
    <TTGlyph name="ocircumflex" xMin="80" yMin="1" xMax="667" yMax="674">
      <component glyphName="o" x="0" y="0" flags="0x1204"/>
      <component glyphName="circumflex" x="144" y="-48" scalex="0.9365234375" scaley="1.01458740234" flags="0x1004"/>
    </TTGlyph>
    <TTGlyph name="odieresis" xMin="80" yMin="1" xMax="667" yMax="576">
      <component glyphName="o" x="0" y="0" flags="0x1204"/>
      <component glyphName="dieresis" x="112" y="2" flags="0x1004"/>
    </TTGlyph>
    <TTGlyph name="oe" xMin="80" yMin="0" xMax="793" yMax="437">
      <contour>
        <pt x="678" y="183" on="1"/>
        <pt x="600" y="183" on="1"/>
        <pt x="600" y="264" on="1"/>
        <pt x="669" y="264" on="1"/>
        <pt x="669" y="344" on="1"/>
        <pt x="602" y="344" on="1"/>
        <pt x="602" y="437" on="1"/>
        <pt x="678" y="437" on="1"/>
        <pt x="793" y="368" on="1"/>
        <pt x="793" y="253" on="1"/>
      </contour>
      <contour>
        <pt x="793" y="137" on="1"/>
        <pt x="793" y="68" on="1"/>
        <pt x="678" y="0" on="1"/>
        <pt x="600" y="0" on="1"/>
        <pt x="600" y="103" on="1"/>
        <pt x="667" y="103" on="1"/>
        <pt x="667" y="137" on="1"/>
      </contour>
      <contour>
        <pt x="195" y="437" on="1"/>
        <pt x="261" y="437" on="1"/>
        <pt x="261" y="344" on="1"/>
        <pt x="204" y="344" on="1"/>
        <pt x="204" y="103" on="1"/>
        <pt x="261" y="103" on="1"/>
        <pt x="261" y="0" on="1"/>
        <pt x="195" y="0" on="1"/>
        <pt x="80" y="68" on="1"/>
        <pt x="80" y="368" on="1"/>
      </contour>
      <contour>
        <pt x="494" y="344" on="1"/>
        <pt x="494" y="264" on="1"/>
        <pt x="553" y="264" on="1"/>
        <pt x="553" y="183" on="1"/>
        <pt x="494" y="183" on="1"/>
        <pt x="494" y="103" on="1"/>
        <pt x="553" y="103" on="1"/>
        <pt x="553" y="0" on="1"/>
        <pt x="482" y="0" on="1"/>
        <pt x="429" y="31" on="1"/>
        <pt x="375" y="0" on="1"/>
        <pt x="307" y="0" on="1"/>
        <pt x="307" y="103" on="1"/>
        <pt x="366" y="103" on="1"/>
        <pt x="366" y="344" on="1"/>
        <pt x="307" y="344" on="1"/>
        <pt x="307" y="437" on="1"/>
        <pt x="375" y="437" on="1"/>
        <pt x="382" y="432" on="0"/>
        <pt x="391" y="427" on="1"/>
        <pt x="399" y="422" on="0"/>
        <pt x="417" y="410" on="0"/>
        <pt x="428" y="404" on="1"/>
        <pt x="482" y="437" on="1"/>
        <pt x="552" y="437" on="1"/>
        <pt x="552" y="344" on="1"/>
      </contour>
    </TTGlyph>
    <TTGlyph name="ogonek" xMin="80" yMin="-194" xMax="331" yMax="-1">
      <contour>
        <pt x="183" y="-194" on="1"/>
        <pt x="80" y="-148" on="1"/>
        <pt x="80" y="-45" on="1"/>
        <pt x="183" y="-1" on="1"/>
        <pt x="183" y="-54" on="1"/>
        <pt x="125" y="-79" on="1"/>
        <pt x="125" y="-114" on="1"/>
        <pt x="183" y="-140" on="1"/>
      </contour>
      <contour>
        <pt x="228" y="-194" on="1"/>
        <pt x="228" y="-140" on="1"/>
        <pt x="286" y="-114" on="1"/>
        <pt x="331" y="-148" on="1"/>
      </contour>
    </TTGlyph>
    <TTGlyph name="ograve" xMin="80" yMin="1" xMax="667" yMax="653">
      <component glyphName="o" x="0" y="0" flags="0x1204"/>
      <component glyphName="grave" x="100" y="-9" flags="0x1004"/>
    </TTGlyph>
    <TTGlyph name="one" xMin="20" yMin="0" xMax="341" yMax="577">
      <contour>
        <pt x="341" y="577" on="1"/>
        <pt x="341" y="0" on="1"/>
        <pt x="227" y="1" on="1"/>
        <pt x="227" y="440" on="1"/>
        <pt x="20" y="354" on="1"/>
        <pt x="20" y="484" on="1"/>
        <pt x="227" y="577" on="1"/>
        <pt x="227" y="577" on="1"/>
        <pt x="341" y="577" on="1"/>
      </contour>
    </TTGlyph>
    <TTGlyph name="onehalf" xMin="40" yMin="-40" xMax="540" yMax="714">
      <contour>
        <pt x="495" y="672" on="1"/>
        <pt x="121" y="1" on="1"/>
        <pt x="61" y="1" on="1"/>
        <pt x="427" y="672" on="1"/>
      </contour>
      <contour>
        <pt x="331" y="79" on="1"/>
        <pt x="382" y="109" on="1"/>
        <pt x="425" y="109" on="1"/>
        <pt x="425" y="59" on="1"/>
        <pt x="386" y="59" on="1"/>
        <pt x="386" y="10" on="1"/>
        <pt x="424" y="10" on="1"/>
        <pt x="424" y="-40" on="1"/>
        <pt x="331" y="-40" on="1"/>
      </contour>
      <contour>
        <pt x="331" y="129" on="1"/>
        <pt x="331" y="179" on="1"/>
        <pt x="382" y="208" on="1"/>
        <pt x="425" y="208" on="1"/>
        <pt x="425" y="159" on="1"/>
        <pt x="386" y="159" on="1"/>
        <pt x="386" y="129" on="1"/>
      </contour>
      <contour>
        <pt x="540" y="-40" on="1"/>
        <pt x="447" y="-40" on="1"/>
        <pt x="447" y="10" on="1"/>
        <pt x="540" y="10" on="1"/>
      </contour>
      <contour>
        <pt x="484" y="59" on="1"/>
        <pt x="446" y="59" on="1"/>
        <pt x="446" y="109" on="1"/>
        <pt x="484" y="109" on="1"/>
        <pt x="484" y="159" on="1"/>
        <pt x="446" y="159" on="1"/>
        <pt x="446" y="208" on="1"/>
        <pt x="490" y="208" on="1"/>
        <pt x="540" y="179" on="1"/>
        <pt x="540" y="90" on="1"/>
      </contour>
      <contour>
        <pt x="180" y="463" on="1"/>
        <pt x="130" y="463" on="1"/>
        <pt x="130" y="652" on="1"/>
        <pt x="40" y="617" on="1"/>
        <pt x="40" y="672" on="1"/>
        <pt x="130" y="714" on="1"/>
        <pt x="130" y="714" on="1"/>
        <pt x="180" y="714" on="1"/>
      </contour>
    </TTGlyph>
    <TTGlyph name="onequarter" xMin="40" yMin="-41" xMax="543" yMax="714">
      <contour>
        <pt x="496" y="672" on="1"/>
        <pt x="122" y="0" on="1"/>
        <pt x="61" y="0" on="1"/>
        <pt x="426" y="672" on="1"/>
      </contour>
      <contour>
        <pt x="180" y="463" on="1"/>
        <pt x="130" y="463" on="1"/>
        <pt x="130" y="653" on="1"/>
        <pt x="40" y="618" on="1"/>
        <pt x="40" y="672" on="1"/>
        <pt x="130" y="714" on="1"/>
        <pt x="180" y="714" on="1"/>
      </contour>
      <contour>
        <pt x="543" y="-41" on="1"/>
        <pt x="493" y="-41" on="1"/>
        <pt x="493" y="59" on="1"/>
        <pt x="448" y="59" on="1"/>
        <pt x="448" y="108" on="1"/>
        <pt x="493" y="108" on="1"/>
        <pt x="493" y="211" on="1"/>
        <pt x="543" y="211" on="1"/>
      </contour>
      <contour>
        <pt x="380" y="108" on="1"/>
        <pt x="429" y="108" on="1"/>
        <pt x="429" y="59" on="1"/>
        <pt x="331" y="59" on="1"/>
        <pt x="331" y="208" on="1"/>
        <pt x="380" y="208" on="1"/>
      </contour>
    </TTGlyph>
    <TTGlyph name="onesuperior" xMin="30" yMin="338" xMax="155" yMax="577">
      <contour>
        <pt x="155" y="338" on="1"/>
        <pt x="109" y="338" on="1"/>
        <pt x="109" y="532" on="1"/>
        <pt x="30" y="487" on="1"/>
        <pt x="30" y="532" on="1"/>
        <pt x="107" y="577" on="1"/>
        <pt x="107" y="577" on="1"/>
        <pt x="155" y="577" on="1"/>
      </contour>
    </TTGlyph>
    <TTGlyph name="ordfeminine" xMin="80" yMin="338" xMax="274" yMax="577">
      <contour>
        <pt x="80" y="510" on="1"/>
        <pt x="80" y="555" on="1"/>
        <pt x="122" y="577" on="1"/>
        <pt x="161" y="577" on="1"/>
        <pt x="161" y="532" on="1"/>
        <pt x="124" y="532" on="1"/>
        <pt x="124" y="510" on="1"/>
      </contour>
      <contour>
        <pt x="80" y="464" on="1"/>
        <pt x="115" y="487" on="1"/>
        <pt x="161" y="487" on="1"/>
        <pt x="161" y="441" on="1"/>
        <pt x="124" y="441" on="1"/>
        <pt x="124" y="384" on="1"/>
        <pt x="161" y="384" on="1"/>
        <pt x="161" y="338" on="1"/>
        <pt x="122" y="338" on="1"/>
        <pt x="80" y="362" on="1"/>
      </contour>
      <contour>
        <pt x="274" y="555" on="1"/>
        <pt x="228" y="577" on="1"/>
        <pt x="183" y="577" on="1"/>
        <pt x="183" y="532" on="1"/>
        <pt x="228" y="532" on="1"/>
        <pt x="228" y="487" on="1"/>
        <pt x="183" y="487" on="1"/>
        <pt x="183" y="441" on="1"/>
        <pt x="228" y="441" on="1"/>
        <pt x="228" y="384" on="1"/>
        <pt x="183" y="384" on="1"/>
        <pt x="183" y="338" on="1"/>
        <pt x="274" y="338" on="1"/>
      </contour>
    </TTGlyph>
    <TTGlyph name="ordmasculine" xMin="80" yMin="338" xMax="274" yMax="577">
      <contour>
        <pt x="80" y="543" on="1"/>
        <pt x="126" y="577" on="1"/>
        <pt x="165" y="577" on="1"/>
        <pt x="165" y="533" on="1"/>
        <pt x="126" y="533" on="1"/>
        <pt x="126" y="383" on="1"/>
        <pt x="165" y="383" on="1"/>
        <pt x="165" y="338" on="1"/>
        <pt x="126" y="338" on="1"/>
        <pt x="80" y="374" on="1"/>
      </contour>
      <contour>
        <pt x="274" y="539" on="1"/>
        <pt x="229" y="577" on="1"/>
        <pt x="187" y="577" on="1"/>
        <pt x="187" y="532" on="1"/>
        <pt x="229" y="532" on="1"/>
        <pt x="229" y="383" on="1"/>
        <pt x="187" y="383" on="1"/>
        <pt x="187" y="338" on="1"/>
        <pt x="229" y="338" on="1"/>
        <pt x="274" y="374" on="1"/>
      </contour>
    </TTGlyph>
    <TTGlyph name="oslash" xMin="80" yMin="1" xMax="669" yMax="440">
      <contour>
        <pt x="356" y="2" on="1"/>
        <pt x="195" y="2" on="1"/>
        <pt x="169" y="18" on="1"/>
        <pt x="149" y="2" on="1"/>
        <pt x="80" y="1" on="1"/>
        <pt x="128" y="43" on="1"/>
        <pt x="80" y="71" on="1"/>
        <pt x="80" y="371" on="1"/>
        <pt x="195" y="440" on="1"/>
        <pt x="356" y="440" on="1"/>
        <pt x="356" y="347" on="1"/>
        <pt x="203" y="347" on="1"/>
        <pt x="203" y="106" on="1"/>
        <pt x="356" y="234" on="1"/>
        <pt x="356" y="178" on="1"/>
        <pt x="272" y="106" on="1"/>
        <pt x="356" y="106" on="1"/>
      </contour>
      <contour>
        <pt x="619" y="399" on="1"/>
        <pt x="628" y="394" on="0"/>
        <pt x="645" y="384" on="0"/>
        <pt x="653" y="380" on="1"/>
        <pt x="661" y="376" on="0"/>
        <pt x="669" y="371" on="1"/>
        <pt x="669" y="71" on="1"/>
        <pt x="552" y="2" on="1"/>
        <pt x="401" y="2" on="1"/>
        <pt x="401" y="106" on="1"/>
        <pt x="542" y="106" on="1"/>
        <pt x="542" y="336" on="1"/>
        <pt x="401" y="215" on="1"/>
        <pt x="401" y="274" on="1"/>
        <pt x="489" y="347" on="1"/>
        <pt x="401" y="347" on="1"/>
        <pt x="401" y="440" on="1"/>
        <pt x="552" y="440" on="1"/>
        <pt x="555" y="438" on="0"/>
        <pt x="559" y="435" on="1"/>
        <pt x="563" y="433" on="0"/>
        <pt x="572" y="427" on="0"/>
        <pt x="579" y="423" on="1"/>
        <pt x="598" y="439" on="1"/>
        <pt x="669" y="440" on="1"/>
      </contour>
    </TTGlyph>
    <TTGlyph name="otilde" xMin="80" yMin="1" xMax="667" yMax="619">
      <component glyphName="o" x="0" y="0" flags="0x1204"/>
      <component glyphName="tilde" x="105" y="0" flags="0x1004"/>
    </TTGlyph>
    <TTGlyph name="p" xMin="100" yMin="-193" xMax="697" yMax="440">
      <contour>
        <pt x="697" y="128" on="1"/>
        <pt x="585" y="60" on="1"/>
        <pt x="427" y="60" on="1"/>
        <pt x="427" y="140" on="1"/>
        <pt x="572" y="140" on="1"/>
        <pt x="572" y="346" on="1"/>
        <pt x="421" y="346" on="1"/>
        <pt x="421" y="440" on="1"/>
        <pt x="585" y="440" on="1"/>
        <pt x="697" y="371" on="1"/>
      </contour>
      <contour>
        <pt x="100" y="440" on="1"/>
        <pt x="377" y="440" on="1"/>
        <pt x="377" y="346" on="1"/>
        <pt x="227" y="346" on="1"/>
        <pt x="227" y="140" on="1"/>
        <pt x="372" y="140" on="1"/>
        <pt x="372" y="60" on="1"/>
        <pt x="227" y="60" on="1"/>
        <pt x="227" y="-193" on="1"/>
        <pt x="100" y="-193" on="1"/>
      </contour>
    </TTGlyph>
    <TTGlyph name="paragraph" xMin="30" yMin="-193" xMax="599" yMax="620">
      <contour>
        <pt x="360" y="620" on="1"/>
        <pt x="360" y="-193" on="1"/>
        <pt x="302" y="-193" on="1"/>
        <pt x="302" y="264" on="1"/>
        <pt x="145" y="264" on="1"/>
        <pt x="30" y="332" on="1"/>
        <pt x="30" y="552" on="1"/>
        <pt x="145" y="620" on="1"/>
      </contour>
      <contour>
        <pt x="508" y="493" on="1"/>
        <pt x="508" y="-193" on="1"/>
        <pt x="451" y="-193" on="1"/>
        <pt x="451" y="620" on="1"/>
        <pt x="599" y="620" on="1"/>
        <pt x="599" y="506" on="1"/>
        <pt x="508" y="506" on="1"/>
      </contour>
    </TTGlyph>
    <TTGlyph name="parenleft" xMin="90" yMin="-132" xMax="332" yMax="711">
      <contour>
        <pt x="90" y="626" on="1"/>
        <pt x="232" y="711" on="1"/>
        <pt x="332" y="711" on="1"/>
        <pt x="147" y="597" on="1"/>
        <pt x="147" y="-19" on="1"/>
        <pt x="332" y="-132" on="1"/>
        <pt x="232" y="-132" on="1"/>
        <pt x="90" y="-47" on="1"/>
      </contour>
    </TTGlyph>
    <TTGlyph name="parenright" xMin="0" yMin="-134" xMax="242" yMax="711">
      <contour>
        <pt x="242" y="-48" on="1"/>
        <pt x="99" y="-134" on="1"/>
        <pt x="0" y="-134" on="1"/>
        <pt x="185" y="-20" on="1"/>
        <pt x="185" y="597" on="1"/>
        <pt x="0" y="711" on="1"/>
        <pt x="99" y="711" on="1"/>
        <pt x="242" y="625" on="1"/>
      </contour>
    </TTGlyph>
    <TTGlyph name="percent" xMin="60" yMin="-44" xMax="574" yMax="713">
      <contour>
        <pt x="532" y="664" on="1"/>
        <pt x="162" y="1" on="1"/>
        <pt x="92" y="1" on="1"/>
        <pt x="455" y="663" on="1"/>
      </contour>
      <contour>
        <pt x="213" y="513" on="1"/>
        <pt x="271" y="539" on="1"/>
        <pt x="271" y="633" on="1"/>
        <pt x="213" y="658" on="1"/>
        <pt x="213" y="713" on="1"/>
        <pt x="317" y="668" on="1"/>
        <pt x="317" y="504" on="1"/>
        <pt x="213" y="457" on="1"/>
      </contour>
      <contour>
        <pt x="60" y="504" on="1"/>
        <pt x="60" y="668" on="1"/>
        <pt x="165" y="713" on="1"/>
        <pt x="165" y="658" on="1"/>
        <pt x="106" y="633" on="1"/>
        <pt x="106" y="539" on="1"/>
        <pt x="165" y="513" on="1"/>
        <pt x="165" y="457" on="1"/>
      </contour>
      <contour>
        <pt x="470" y="12" on="1"/>
        <pt x="528" y="38" on="1"/>
        <pt x="528" y="132" on="1"/>
        <pt x="470" y="158" on="1"/>
        <pt x="470" y="212" on="1"/>
        <pt x="574" y="167" on="1"/>
        <pt x="574" y="3" on="1"/>
        <pt x="470" y="-44" on="1"/>
      </contour>
      <contour>
        <pt x="317" y="3" on="1"/>
        <pt x="317" y="167" on="1"/>
        <pt x="422" y="212" on="1"/>
        <pt x="422" y="158" on="1"/>
        <pt x="363" y="132" on="1"/>
        <pt x="363" y="38" on="1"/>
        <pt x="422" y="12" on="1"/>
        <pt x="422" y="-44" on="1"/>
      </contour>
    </TTGlyph>
    <TTGlyph name="period" xMin="80" yMin="0" xMax="218" yMax="138">
      <contour>
        <pt x="80" y="138" on="1"/>
        <pt x="218" y="138" on="1"/>
        <pt x="218" y="0" on="1"/>
        <pt x="80" y="0" on="1"/>
      </contour>
    </TTGlyph>
    <TTGlyph name="periodcentered" xMin="80" yMin="228" xMax="192" yMax="343">
      <contour>
        <pt x="192" y="343" on="1"/>
        <pt x="192" y="228" on="1"/>
        <pt x="80" y="228" on="1"/>
        <pt x="80" y="343" on="1"/>
        <pt x="192" y="343" on="1"/>
      </contour>
    </TTGlyph>
    <TTGlyph name="perthousand" xMin="80" yMin="-44" xMax="902" yMax="713">
      <contour>
        <pt x="552" y="664" on="1"/>
        <pt x="182" y="1" on="1"/>
        <pt x="112" y="1" on="1"/>
        <pt x="475" y="663" on="1"/>
      </contour>
      <contour>
        <pt x="233" y="513" on="1"/>
        <pt x="291" y="539" on="1"/>
        <pt x="291" y="633" on="1"/>
        <pt x="233" y="658" on="1"/>
        <pt x="233" y="713" on="1"/>
        <pt x="337" y="668" on="1"/>
        <pt x="337" y="504" on="1"/>
        <pt x="233" y="457" on="1"/>
      </contour>
      <contour>
        <pt x="80" y="504" on="1"/>
        <pt x="80" y="668" on="1"/>
        <pt x="185" y="713" on="1"/>
        <pt x="185" y="658" on="1"/>
        <pt x="126" y="633" on="1"/>
        <pt x="126" y="539" on="1"/>
        <pt x="185" y="513" on="1"/>
        <pt x="185" y="457" on="1"/>
      </contour>
      <contour>
        <pt x="490" y="12" on="1"/>
        <pt x="548" y="38" on="1"/>
        <pt x="548" y="132" on="1"/>
        <pt x="490" y="158" on="1"/>
        <pt x="490" y="212" on="1"/>
        <pt x="594" y="167" on="1"/>
        <pt x="594" y="3" on="1"/>
        <pt x="490" y="-44" on="1"/>
      </contour>
      <contour>
        <pt x="337" y="3" on="1"/>
        <pt x="337" y="167" on="1"/>
        <pt x="442" y="212" on="1"/>
        <pt x="442" y="158" on="1"/>
        <pt x="383" y="132" on="1"/>
        <pt x="383" y="38" on="1"/>
        <pt x="442" y="12" on="1"/>
        <pt x="442" y="-44" on="1"/>
      </contour>
      <contour>
        <pt x="798" y="12" on="1"/>
        <pt x="856" y="38" on="1"/>
        <pt x="856" y="132" on="1"/>
        <pt x="798" y="158" on="1"/>
        <pt x="798" y="212" on="1"/>
        <pt x="902" y="167" on="1"/>
        <pt x="902" y="3" on="1"/>
        <pt x="798" y="-44" on="1"/>
      </contour>
      <contour>
        <pt x="645" y="3" on="1"/>
        <pt x="645" y="167" on="1"/>
        <pt x="750" y="212" on="1"/>
        <pt x="750" y="158" on="1"/>
        <pt x="691" y="132" on="1"/>
        <pt x="691" y="38" on="1"/>
        <pt x="750" y="12" on="1"/>
        <pt x="750" y="-44" on="1"/>
      </contour>
    </TTGlyph>
    <TTGlyph name="plus" xMin="30" yMin="103" xMax="365" yMax="438">
      <contour>
        <pt x="365" y="295" on="1"/>
        <pt x="365" y="246" on="1"/>
        <pt x="221" y="246" on="1"/>
        <pt x="221" y="103" on="1"/>
        <pt x="174" y="103" on="1"/>
        <pt x="174" y="246" on="1"/>
        <pt x="30" y="246" on="1"/>
        <pt x="30" y="295" on="1"/>
        <pt x="174" y="295" on="1"/>
        <pt x="174" y="438" on="1"/>
        <pt x="221" y="438" on="1"/>
        <pt x="221" y="295" on="1"/>
        <pt x="365" y="295" on="1"/>
      </contour>
    </TTGlyph>
    <TTGlyph name="plusminus" xMin="80" yMin="58" xMax="412" yMax="390">
      <contour>
        <pt x="80" y="58" on="1"/>
        <pt x="80" y="116" on="1"/>
        <pt x="410" y="116" on="1"/>
        <pt x="410" y="58" on="1"/>
      </contour>
      <contour>
        <pt x="275" y="296" on="1"/>
        <pt x="412" y="296" on="1"/>
        <pt x="412" y="238" on="1"/>
        <pt x="275" y="238" on="1"/>
        <pt x="275" y="136" on="1"/>
        <pt x="217" y="136" on="1"/>
        <pt x="217" y="238" on="1"/>
        <pt x="80" y="238" on="1"/>
        <pt x="80" y="296" on="1"/>
        <pt x="217" y="296" on="1"/>
        <pt x="217" y="390" on="1"/>
        <pt x="275" y="390" on="1"/>
      </contour>
    </TTGlyph>
    <TTGlyph name="q" xMin="80" yMin="-193" xMax="681" yMax="440">
      <contour>
        <pt x="80" y="371" on="1"/>
        <pt x="198" y="440" on="1"/>
        <pt x="357" y="440" on="1"/>
        <pt x="357" y="346" on="1"/>
        <pt x="207" y="346" on="1"/>
        <pt x="207" y="140" on="1"/>
        <pt x="357" y="140" on="1"/>
        <pt x="357" y="60" on="1"/>
        <pt x="198" y="60" on="1"/>
        <pt x="80" y="128" on="1"/>
      </contour>
      <contour>
        <pt x="681" y="440" on="1"/>
        <pt x="406" y="440" on="1"/>
        <pt x="406" y="346" on="1"/>
        <pt x="556" y="346" on="1"/>
        <pt x="556" y="140" on="1"/>
        <pt x="406" y="140" on="1"/>
        <pt x="406" y="60" on="1"/>
        <pt x="556" y="60" on="1"/>
        <pt x="556" y="-193" on="1"/>
        <pt x="681" y="-193" on="1"/>
      </contour>
    </TTGlyph>
    <TTGlyph name="question" xMin="50" yMin="0" xMax="739" yMax="575">
      <contour>
        <pt x="289" y="141" on="1"/>
        <pt x="427" y="141" on="1"/>
        <pt x="427" y="0" on="1"/>
        <pt x="289" y="0" on="1"/>
      </contour>
      <contour>
        <pt x="739" y="300" on="1"/>
        <pt x="626" y="230" on="1"/>
        <pt x="427" y="230" on="1"/>
        <pt x="427" y="194" on="1"/>
        <pt x="302" y="194" on="1"/>
        <pt x="302" y="275" on="1"/>
        <pt x="419" y="344" on="1"/>
        <pt x="613" y="344" on="1"/>
        <pt x="613" y="462" on="1"/>
        <pt x="419" y="462" on="1"/>
        <pt x="419" y="575" on="1"/>
        <pt x="626" y="575" on="1"/>
        <pt x="739" y="506" on="1"/>
      </contour>
      <contour>
        <pt x="50" y="392" on="1"/>
        <pt x="50" y="506" on="1"/>
        <pt x="164" y="575" on="1"/>
        <pt x="370" y="575" on="1"/>
        <pt x="370" y="462" on="1"/>
        <pt x="164" y="462" on="1"/>
        <pt x="164" y="392" on="1"/>
      </contour>
    </TTGlyph>
    <TTGlyph name="questiondown" xMin="60" yMin="-138" xMax="749" yMax="437">
      <contour>
        <pt x="510" y="296" on="1"/>
        <pt x="372" y="296" on="1"/>
        <pt x="372" y="437" on="1"/>
        <pt x="510" y="437" on="1"/>
      </contour>
      <contour>
        <pt x="60" y="-69" on="1"/>
        <pt x="173" y="-138" on="1"/>
        <pt x="380" y="-138" on="1"/>
        <pt x="380" y="-25" on="1"/>
        <pt x="186" y="-25" on="1"/>
        <pt x="186" y="93" on="1"/>
        <pt x="380" y="93" on="1"/>
        <pt x="497" y="162" on="1"/>
        <pt x="497" y="243" on="1"/>
        <pt x="372" y="243" on="1"/>
        <pt x="372" y="207" on="1"/>
        <pt x="173" y="207" on="1"/>
        <pt x="60" y="137" on="1"/>
      </contour>
      <contour>
        <pt x="749" y="45" on="1"/>
        <pt x="749" y="-69" on="1"/>
        <pt x="635" y="-138" on="1"/>
        <pt x="429" y="-138" on="1"/>
        <pt x="429" y="-25" on="1"/>
        <pt x="635" y="-25" on="1"/>
        <pt x="635" y="45" on="1"/>
      </contour>
    </TTGlyph>
    <TTGlyph name="quotedbl" xMin="30" yMin="552" xMax="235" yMax="711">
      <contour>
        <pt x="151" y="711" on="1"/>
        <pt x="235" y="711" on="1"/>
        <pt x="235" y="554" on="1"/>
        <pt x="151" y="553" on="1"/>
      </contour>
      <contour>
        <pt x="30" y="711" on="1"/>
        <pt x="114" y="711" on="1"/>
        <pt x="114" y="554" on="1"/>
        <pt x="30" y="552" on="1"/>
      </contour>
    </TTGlyph>
    <TTGlyph name="quotedblbase" xMin="80" yMin="-48" xMax="285" yMax="139">
      <contour>
        <pt x="201" y="139" on="1"/>
        <pt x="285" y="139" on="1"/>
        <pt x="285" y="1" on="1"/>
        <pt x="201" y="-48" on="1"/>
      </contour>
      <contour>
        <pt x="80" y="139" on="1"/>
        <pt x="164" y="139" on="1"/>
        <pt x="164" y="1" on="1"/>
        <pt x="80" y="-48" on="1"/>
      </contour>
    </TTGlyph>
    <TTGlyph name="quotedblleft" xMin="80" yMin="527" xMax="285" yMax="714">
      <contour>
        <pt x="164" y="527" on="1"/>
        <pt x="80" y="527" on="1"/>
        <pt x="80" y="665" on="1"/>
        <pt x="164" y="714" on="1"/>
      </contour>
      <contour>
        <pt x="285" y="527" on="1"/>
        <pt x="201" y="527" on="1"/>
        <pt x="201" y="665" on="1"/>
        <pt x="285" y="714" on="1"/>
      </contour>
    </TTGlyph>
    <TTGlyph name="quotedblright" xMin="80" yMin="525" xMax="285" yMax="712">
      <contour>
        <pt x="201" y="712" on="1"/>
        <pt x="285" y="712" on="1"/>
        <pt x="285" y="574" on="1"/>
        <pt x="201" y="525" on="1"/>
      </contour>
      <contour>
        <pt x="80" y="712" on="1"/>
        <pt x="164" y="712" on="1"/>
        <pt x="164" y="574" on="1"/>
        <pt x="80" y="525" on="1"/>
      </contour>
    </TTGlyph>
    <TTGlyph name="quoteleft" xMin="67" yMin="525" xMax="151" yMax="712">
      <contour>
        <pt x="151" y="525" on="1"/>
        <pt x="67" y="525" on="1"/>
        <pt x="67" y="663" on="1"/>
        <pt x="151" y="712" on="1"/>
      </contour>
    </TTGlyph>
    <TTGlyph name="quoteright" xMin="30" yMin="525" xMax="114" yMax="711">
      <contour>
        <pt x="30" y="711" on="1"/>
        <pt x="114" y="711" on="1"/>
        <pt x="114" y="574" on="1"/>
        <pt x="30" y="525" on="1"/>
      </contour>
    </TTGlyph>
    <TTGlyph name="quotesinglbase" xMin="80" yMin="-69" xMax="194" yMax="138">
      <contour>
        <pt x="80" y="138" on="1"/>
        <pt x="194" y="138" on="1"/>
        <pt x="194" y="0" on="1"/>
        <pt x="80" y="-69" on="1"/>
      </contour>
    </TTGlyph>
    <TTGlyph name="quotesingle" xMin="80" yMin="552" xMax="164" yMax="712">
      <contour>
        <pt x="80" y="712" on="1"/>
        <pt x="164" y="712" on="1"/>
        <pt x="164" y="554" on="1"/>
        <pt x="80" y="552" on="1"/>
      </contour>
    </TTGlyph>
    <TTGlyph name="r" xMin="100" yMin="0" xMax="550" yMax="437">
      <contour>
        <pt x="100" y="437" on="1"/>
        <pt x="225" y="437" on="1"/>
        <pt x="225" y="394" on="1"/>
        <pt x="375" y="437" on="1"/>
        <pt x="375" y="344" on="1"/>
        <pt x="225" y="344" on="1"/>
        <pt x="225" y="0" on="1"/>
        <pt x="100" y="0" on="1"/>
      </contour>
      <contour>
        <pt x="550" y="382" on="1"/>
        <pt x="420" y="437" on="1"/>
        <pt x="420" y="301" on="1"/>
        <pt x="550" y="301" on="1"/>
      </contour>
    </TTGlyph>
    <TTGlyph name="registered" xMin="80" yMin="88" xMax="621" yMax="623">
      <contour>
        <pt x="124" y="230" on="1"/>
        <pt x="327" y="143" on="1"/>
        <pt x="327" y="88" on="1"/>
        <pt x="80" y="201" on="1"/>
        <pt x="80" y="512" on="1"/>
        <pt x="327" y="623" on="1"/>
        <pt x="327" y="571" on="1"/>
        <pt x="124" y="482" on="1"/>
      </contour>
      <contour>
        <pt x="579" y="482" on="1"/>
        <pt x="374" y="571" on="1"/>
        <pt x="374" y="623" on="1"/>
        <pt x="621" y="512" on="1"/>
        <pt x="621" y="201" on="1"/>
        <pt x="374" y="88" on="1"/>
        <pt x="374" y="143" on="1"/>
        <pt x="579" y="230" on="1"/>
      </contour>
      <contour>
        <pt x="235" y="456" on="1"/>
        <pt x="342" y="456" on="1"/>
        <pt x="342" y="416" on="1"/>
        <pt x="277" y="416" on="1"/>
        <pt x="277" y="378" on="1"/>
        <pt x="342" y="378" on="1"/>
        <pt x="342" y="339" on="1"/>
        <pt x="277" y="339" on="1"/>
        <pt x="277" y="262" on="1"/>
        <pt x="235" y="262" on="1"/>
        <pt x="235" y="456" on="1"/>
      </contour>
      <contour>
        <pt x="467" y="262" on="1"/>
        <pt x="424" y="262" on="1"/>
        <pt x="424" y="339" on="1"/>
        <pt x="357" y="339" on="1"/>
        <pt x="357" y="378" on="1"/>
        <pt x="424" y="378" on="1"/>
        <pt x="424" y="416" on="1"/>
        <pt x="357" y="416" on="1"/>
        <pt x="357" y="456" on="1"/>
        <pt x="427" y="456" on="1"/>
        <pt x="467" y="433" on="1"/>
        <pt x="467" y="374" on="1"/>
        <pt x="435" y="359" on="1"/>
        <pt x="467" y="342" on="1"/>
      </contour>
    </TTGlyph>
    <TTGlyph name="ring" xMin="80" yMin="458" xMax="356" yMax="713">
      <contour>
        <pt x="242" y="514" on="1"/>
        <pt x="311" y="539" on="1"/>
        <pt x="311" y="632" on="1"/>
        <pt x="242" y="656" on="1"/>
        <pt x="242" y="713" on="1"/>
        <pt x="356" y="668" on="1"/>
        <pt x="356" y="506" on="1"/>
        <pt x="242" y="458" on="1"/>
      </contour>
      <contour>
        <pt x="80" y="506" on="1"/>
        <pt x="80" y="668" on="1"/>
        <pt x="194" y="709" on="1"/>
        <pt x="194" y="656" on="1"/>
        <pt x="125" y="632" on="1"/>
        <pt x="125" y="539" on="1"/>
        <pt x="194" y="514" on="1"/>
        <pt x="194" y="458" on="1"/>
      </contour>
    </TTGlyph>
    <TTGlyph name="s" xMin="80" yMin="0" xMax="676" yMax="437">
      <contour>
        <pt x="676" y="69" on="1"/>
        <pt x="562" y="0" on="1"/>
        <pt x="401" y="0" on="1"/>
        <pt x="401" y="105" on="1"/>
        <pt x="555" y="105" on="1"/>
        <pt x="555" y="186" on="1"/>
        <pt x="404" y="186" on="1"/>
        <pt x="404" y="264" on="1"/>
        <pt x="562" y="264" on="1"/>
        <pt x="676" y="194" on="1"/>
      </contour>
      <contour>
        <pt x="80" y="368" on="1"/>
        <pt x="194" y="437" on="1"/>
        <pt x="356" y="437" on="1"/>
        <pt x="356" y="344" on="1"/>
        <pt x="206" y="344" on="1"/>
        <pt x="206" y="264" on="1"/>
        <pt x="356" y="264" on="1"/>
        <pt x="356" y="186" on="1"/>
        <pt x="194" y="186" on="1"/>
        <pt x="80" y="255" on="1"/>
      </contour>
      <contour>
        <pt x="206" y="139" on="1"/>
        <pt x="206" y="105" on="1"/>
        <pt x="356" y="105" on="1"/>
        <pt x="356" y="0" on="1"/>
        <pt x="194" y="0" on="1"/>
        <pt x="80" y="69" on="1"/>
        <pt x="80" y="139" on="1"/>
      </contour>
      <contour>
        <pt x="551" y="301" on="1"/>
        <pt x="551" y="344" on="1"/>
        <pt x="401" y="344" on="1"/>
        <pt x="401" y="437" on="1"/>
        <pt x="562" y="437" on="1"/>
        <pt x="676" y="368" on="1"/>
        <pt x="676" y="301" on="1"/>
      </contour>
    </TTGlyph>
    <TTGlyph name="scaron" xMin="80" yMin="0" xMax="676" yMax="672">
      <component glyphName="s" x="0" y="0" flags="0x1204"/>
      <component glyphName="circumflex" x="145" y="1286" scalex="1.0" scaley="-0.999938964844" flags="0x1004"/>
    </TTGlyph>
    <TTGlyph name="section" xMin="80" yMin="-194" xMax="586" yMax="620">
      <contour>
        <pt x="208" y="-45" on="1"/>
        <pt x="208" y="-91" on="1"/>
        <pt x="313" y="-91" on="1"/>
        <pt x="313" y="-194" on="1"/>
        <pt x="199" y="-194" on="1"/>
        <pt x="84" y="-125" on="1"/>
        <pt x="84" y="-45" on="1"/>
      </contour>
      <contour>
        <pt x="462" y="471" on="1"/>
        <pt x="462" y="517" on="1"/>
        <pt x="357" y="517" on="1"/>
        <pt x="357" y="620" on="1"/>
        <pt x="472" y="620" on="1"/>
        <pt x="586" y="551" on="1"/>
        <pt x="586" y="471" on="1"/>
      </contour>
      <contour>
        <pt x="586" y="-125" on="1"/>
        <pt x="586" y="1" on="1"/>
        <pt x="494" y="47" on="1"/>
        <pt x="586" y="93" on="1"/>
        <pt x="586" y="368" on="1"/>
        <pt x="472" y="437" on="1"/>
        <pt x="357" y="437" on="1"/>
        <pt x="357" y="345" on="1"/>
        <pt x="460" y="345" on="1"/>
        <pt x="460" y="104" on="1"/>
        <pt x="357" y="104" on="1"/>
        <pt x="357" y="1" on="1"/>
        <pt x="460" y="1" on="1"/>
        <pt x="460" y="-91" on="1"/>
        <pt x="359" y="-91" on="1"/>
        <pt x="359" y="-194" on="1"/>
        <pt x="472" y="-194" on="1"/>
      </contour>
      <contour>
        <pt x="80" y="58" on="1"/>
        <pt x="80" y="334" on="1"/>
        <pt x="171" y="379" on="1"/>
        <pt x="80" y="425" on="1"/>
        <pt x="80" y="551" on="1"/>
        <pt x="194" y="620" on="1"/>
        <pt x="311" y="620" on="1"/>
        <pt x="311" y="520" on="1"/>
        <pt x="206" y="520" on="1"/>
        <pt x="206" y="437" on="1"/>
        <pt x="311" y="437" on="1"/>
        <pt x="311" y="345" on="1"/>
        <pt x="206" y="345" on="1"/>
        <pt x="206" y="104" on="1"/>
        <pt x="309" y="104" on="1"/>
        <pt x="309" y="1" on="1"/>
        <pt x="194" y="1" on="1"/>
      </contour>
    </TTGlyph>
    <TTGlyph name="semicolon" xMin="80" yMin="-69" xMax="194" yMax="436">
      <contour>
        <pt x="80" y="138" on="1"/>
        <pt x="194" y="138" on="1"/>
        <pt x="194" y="0" on="1"/>
        <pt x="80" y="-69" on="1"/>
      </contour>
      <contour>
        <pt x="80" y="436" on="1"/>
        <pt x="193" y="436" on="1"/>
        <pt x="193" y="298" on="1"/>
        <pt x="80" y="298" on="1"/>
      </contour>
    </TTGlyph>
    <TTGlyph name="seven" xMin="30" yMin="1" xMax="726" yMax="576">
      <contour>
        <pt x="726" y="576" on="1"/>
        <pt x="406" y="1" on="1"/>
        <pt x="244" y="1" on="1"/>
        <pt x="506" y="462" on="1"/>
        <pt x="394" y="462" on="1"/>
        <pt x="394" y="576" on="1"/>
      </contour>
      <contour>
        <pt x="346" y="576" on="1"/>
        <pt x="346" y="462" on="1"/>
        <pt x="30" y="462" on="1"/>
        <pt x="30" y="576" on="1"/>
      </contour>
    </TTGlyph>
    <TTGlyph name="six" xMin="80" yMin="1" xMax="768" yMax="576">
      <contour>
        <pt x="768" y="70" on="1"/>
        <pt x="655" y="1" on="1"/>
        <pt x="448" y="1" on="1"/>
        <pt x="448" y="118" on="1"/>
        <pt x="647" y="118" on="1"/>
        <pt x="647" y="231" on="1"/>
        <pt x="448" y="231" on="1"/>
        <pt x="448" y="345" on="1"/>
        <pt x="655" y="345" on="1"/>
        <pt x="768" y="276" on="1"/>
      </contour>
      <contour>
        <pt x="643" y="393" on="1"/>
        <pt x="643" y="463" on="1"/>
        <pt x="448" y="463" on="1"/>
        <pt x="448" y="576" on="1"/>
        <pt x="655" y="576" on="1"/>
        <pt x="768" y="507" on="1"/>
        <pt x="768" y="393" on="1"/>
      </contour>
      <contour>
        <pt x="80" y="507" on="1"/>
        <pt x="193" y="576" on="1"/>
        <pt x="400" y="576" on="1"/>
        <pt x="400" y="463" on="1"/>
        <pt x="205" y="463" on="1"/>
        <pt x="205" y="345" on="1"/>
        <pt x="400" y="345" on="1"/>
        <pt x="400" y="231" on="1"/>
        <pt x="205" y="231" on="1"/>
        <pt x="205" y="118" on="1"/>
        <pt x="400" y="118" on="1"/>
        <pt x="400" y="1" on="1"/>
        <pt x="205" y="1" on="1"/>
        <pt x="80" y="70" on="1"/>
      </contour>
    </TTGlyph>
    <TTGlyph name="slash" xMin="0" yMin="1" xMax="416" yMax="648">
      <contour>
        <pt x="416" y="648" on="1"/>
        <pt x="55" y="1" on="1"/>
        <pt x="0" y="1" on="1"/>
        <pt x="355" y="647" on="1"/>
      </contour>
    </TTGlyph>
    <TTGlyph name="socialagerillan" xMin="100" yMin="-1" xMax="935" yMax="806">
      <contour>
        <pt x="745" y="351" on="1"/>
        <pt x="745" y="367" on="1"/>
        <pt x="935" y="367" on="1"/>
        <pt x="935" y="112" on="1"/>
        <pt x="819" y="-1" on="1"/>
        <pt x="532" y="-1" on="1"/>
        <pt x="449" y="80" on="1"/>
        <pt x="417" y="80" on="1"/>
        <pt x="417" y="2" on="1"/>
        <pt x="100" y="2" on="1"/>
        <pt x="100" y="274" on="1"/>
        <pt x="179" y="274" on="1"/>
        <pt x="179" y="84" on="1"/>
        <pt x="339" y="84" on="1"/>
        <pt x="339" y="292" on="1"/>
        <pt x="100" y="292" on="1"/>
        <pt x="100" y="573" on="1"/>
        <pt x="417" y="573" on="1"/>
        <pt x="417" y="546" on="1"/>
        <pt x="446" y="546" on="1"/>
        <pt x="510" y="608" on="1"/>
        <pt x="510" y="806" on="1"/>
        <pt x="677" y="806" on="1"/>
        <pt x="757" y="726" on="1"/>
        <pt x="757" y="575" on="1"/>
        <pt x="855" y="575" on="1"/>
        <pt x="855" y="575" on="1"/>
        <pt x="935" y="492" on="1"/>
        <pt x="935" y="384" on="1"/>
        <pt x="859" y="384" on="1"/>
        <pt x="859" y="461" on="1"/>
        <pt x="858" y="461" on="1"/>
        <pt x="825" y="492" on="1"/>
        <pt x="825" y="493" on="1"/>
        <pt x="680" y="493" on="1"/>
        <pt x="680" y="695" on="1"/>
        <pt x="647" y="726" on="1"/>
        <pt x="589" y="726" on="1"/>
        <pt x="589" y="576" on="1"/>
        <pt x="480" y="467" on="1"/>
        <pt x="417" y="467" on="1"/>
        <pt x="417" y="324" on="1"/>
        <pt x="339" y="324" on="1"/>
        <pt x="339" y="494" on="1"/>
        <pt x="179" y="494" on="1"/>
        <pt x="179" y="308" on="1"/>
        <pt x="417" y="308" on="1"/>
        <pt x="417" y="158" on="1"/>
        <pt x="482" y="158" on="1"/>
        <pt x="561" y="83" on="1"/>
        <pt x="790" y="83" on="1"/>
        <pt x="859" y="147" on="1"/>
        <pt x="859" y="351" on="1"/>
        <pt x="745" y="351" on="1"/>
      </contour>
    </TTGlyph>
    <TTGlyph name="sterling" xMin="50" yMin="-1" xMax="652" yMax="574">
      <contour>
        <pt x="652" y="437" on="1"/>
        <pt x="526" y="437" on="1"/>
        <pt x="526" y="482" on="1"/>
        <pt x="444" y="482" on="1"/>
        <pt x="444" y="574" on="1"/>
        <pt x="537" y="574" on="1"/>
        <pt x="652" y="505" on="1"/>
      </contour>
      <contour>
        <pt x="444" y="103" on="1"/>
        <pt x="650" y="103" on="1"/>
        <pt x="650" y="-1" on="1"/>
        <pt x="444" y="-1" on="1"/>
      </contour>
      <contour>
        <pt x="400" y="482" on="1"/>
        <pt x="280" y="482" on="1"/>
        <pt x="280" y="344" on="1"/>
        <pt x="400" y="344" on="1"/>
        <pt x="400" y="263" on="1"/>
        <pt x="280" y="263" on="1"/>
        <pt x="280" y="103" on="1"/>
        <pt x="396" y="103" on="1"/>
        <pt x="396" y="-1" on="1"/>
        <pt x="95" y="-1" on="1"/>
        <pt x="95" y="103" on="1"/>
        <pt x="153" y="103" on="1"/>
        <pt x="153" y="263" on="1"/>
        <pt x="50" y="263" on="1"/>
        <pt x="50" y="344" on="1"/>
        <pt x="153" y="344" on="1"/>
        <pt x="153" y="436" on="1"/>
        <pt x="153" y="505" on="1"/>
        <pt x="269" y="574" on="1"/>
        <pt x="400" y="574" on="1"/>
      </contour>
    </TTGlyph>
    <TTGlyph name="t" xMin="10" yMin="0" xMax="546" yMax="506">
      <contour>
        <pt x="270" y="437" on="1"/>
        <pt x="420" y="437" on="1"/>
        <pt x="420" y="344" on="1"/>
        <pt x="270" y="344" on="1"/>
      </contour>
      <contour>
        <pt x="546" y="150" on="1"/>
        <pt x="546" y="69" on="1"/>
        <pt x="432" y="0" on="1"/>
        <pt x="270" y="0" on="1"/>
        <pt x="270" y="105" on="1"/>
        <pt x="420" y="105" on="1"/>
        <pt x="420" y="150" on="1"/>
      </contour>
      <contour>
        <pt x="225" y="506" on="1"/>
        <pt x="225" y="105" on="1"/>
        <pt x="225" y="0" on="1"/>
        <pt x="100" y="69" on="1"/>
        <pt x="100" y="344" on="1"/>
        <pt x="10" y="343" on="1"/>
        <pt x="10" y="387" on="1"/>
      </contour>
    </TTGlyph>
    <TTGlyph name="thorn" xMin="100" yMin="-195" xMax="697" yMax="575">
      <contour>
        <pt x="697" y="368" on="1"/>
        <pt x="697" y="126" on="1"/>
        <pt x="582" y="58" on="1"/>
        <pt x="423" y="58" on="1"/>
        <pt x="423" y="138" on="1"/>
        <pt x="574" y="138" on="1"/>
        <pt x="574" y="344" on="1"/>
        <pt x="421" y="344" on="1"/>
        <pt x="421" y="436" on="1"/>
        <pt x="582" y="436" on="1"/>
      </contour>
      <contour>
        <pt x="225" y="436" on="1"/>
        <pt x="375" y="436" on="1"/>
        <pt x="375" y="344" on="1"/>
        <pt x="225" y="344" on="1"/>
        <pt x="225" y="138" on="1"/>
        <pt x="372" y="138" on="1"/>
        <pt x="372" y="58" on="1"/>
        <pt x="225" y="58" on="1"/>
        <pt x="225" y="-195" on="1"/>
        <pt x="100" y="-195" on="1"/>
        <pt x="100" y="575" on="1"/>
        <pt x="225" y="575" on="1"/>
      </contour>
    </TTGlyph>
    <TTGlyph name="three" xMin="80" yMin="-1" xMax="775" yMax="576">
      <contour>
        <pt x="661" y="-1" on="1"/>
        <pt x="454" y="-1" on="1"/>
        <pt x="454" y="117" on="1"/>
        <pt x="649" y="117" on="1"/>
        <pt x="649" y="231" on="1"/>
        <pt x="454" y="231" on="1"/>
        <pt x="454" y="344" on="1"/>
        <pt x="649" y="344" on="1"/>
        <pt x="649" y="462" on="1"/>
        <pt x="454" y="462" on="1"/>
        <pt x="454" y="576" on="1"/>
        <pt x="661" y="576" on="1"/>
        <pt x="775" y="507" on="1"/>
        <pt x="775" y="336" on="1"/>
        <pt x="681" y="288" on="1"/>
        <pt x="775" y="243" on="1"/>
        <pt x="775" y="68" on="1"/>
      </contour>
      <contour>
        <pt x="210" y="186" on="1"/>
        <pt x="210" y="117" on="1"/>
        <pt x="405" y="117" on="1"/>
        <pt x="405" y="-1" on="1"/>
        <pt x="198" y="-1" on="1"/>
        <pt x="80" y="68" on="1"/>
        <pt x="80" y="186" on="1"/>
      </contour>
      <contour>
        <pt x="84" y="393" on="1"/>
        <pt x="84" y="507" on="1"/>
        <pt x="198" y="576" on="1"/>
        <pt x="405" y="576" on="1"/>
        <pt x="405" y="462" on="1"/>
        <pt x="210" y="462" on="1"/>
        <pt x="210" y="393" on="1"/>
      </contour>
      <contour>
        <pt x="405" y="231" on="1"/>
        <pt x="279" y="231" on="1"/>
        <pt x="279" y="344" on="1"/>
        <pt x="405" y="344" on="1"/>
      </contour>
    </TTGlyph>
    <TTGlyph name="threequarters" xMin="40" yMin="-41" xMax="545" yMax="716">
      <contour>
        <pt x="497" y="674" on="1"/>
        <pt x="121" y="0" on="1"/>
        <pt x="62" y="0" on="1"/>
        <pt x="430" y="674" on="1"/>
      </contour>
      <contour>
        <pt x="545" y="-41" on="1"/>
        <pt x="496" y="-41" on="1"/>
        <pt x="496" y="58" on="1"/>
        <pt x="451" y="58" on="1"/>
        <pt x="451" y="109" on="1"/>
        <pt x="496" y="109" on="1"/>
        <pt x="496" y="211" on="1"/>
        <pt x="545" y="211" on="1"/>
      </contour>
      <contour>
        <pt x="382" y="109" on="1"/>
        <pt x="429" y="109" on="1"/>
        <pt x="429" y="58" on="1"/>
        <pt x="333" y="58" on="1"/>
        <pt x="333" y="210" on="1"/>
        <pt x="382" y="210" on="1"/>
      </contour>
      <contour>
        <pt x="204" y="466" on="1"/>
        <pt x="159" y="466" on="1"/>
        <pt x="159" y="516" on="1"/>
        <pt x="199" y="516" on="1"/>
        <pt x="199" y="566" on="1"/>
        <pt x="158" y="566" on="1"/>
        <pt x="158" y="616" on="1"/>
        <pt x="199" y="616" on="1"/>
        <pt x="199" y="666" on="1"/>
        <pt x="158" y="666" on="1"/>
        <pt x="158" y="716" on="1"/>
        <pt x="204" y="716" on="1"/>
        <pt x="253" y="686" on="1"/>
        <pt x="253" y="611" on="1"/>
        <pt x="214" y="592" on="1"/>
        <pt x="253" y="571" on="1"/>
        <pt x="253" y="496" on="1"/>
      </contour>
      <contour>
        <pt x="95" y="547" on="1"/>
        <pt x="95" y="516" on="1"/>
        <pt x="137" y="516" on="1"/>
        <pt x="137" y="466" on="1"/>
        <pt x="90" y="466" on="1"/>
        <pt x="40" y="496" on="1"/>
        <pt x="40" y="547" on="1"/>
      </contour>
      <contour>
        <pt x="41" y="637" on="1"/>
        <pt x="41" y="686" on="1"/>
        <pt x="90" y="716" on="1"/>
        <pt x="138" y="716" on="1"/>
        <pt x="138" y="666" on="1"/>
        <pt x="95" y="666" on="1"/>
        <pt x="95" y="637" on="1"/>
      </contour>
      <contour>
        <pt x="138" y="566" on="1"/>
        <pt x="126" y="566" on="1"/>
        <pt x="126" y="616" on="1"/>
        <pt x="138" y="616" on="1"/>
      </contour>
    </TTGlyph>
    <TTGlyph name="threesuperior" xMin="80" yMin="338" xMax="274" yMax="577">
      <contour>
        <pt x="228" y="338" on="1"/>
        <pt x="181" y="338" on="1"/>
        <pt x="181" y="384" on="1"/>
        <pt x="228" y="384" on="1"/>
        <pt x="228" y="441" on="1"/>
        <pt x="180" y="441" on="1"/>
        <pt x="180" y="486" on="1"/>
        <pt x="228" y="486" on="1"/>
        <pt x="228" y="532" on="1"/>
        <pt x="180" y="532" on="1"/>
        <pt x="180" y="577" on="1"/>
        <pt x="228" y="577" on="1"/>
        <pt x="274" y="548" on="1"/>
        <pt x="274" y="486" on="1"/>
        <pt x="235" y="464" on="1"/>
        <pt x="274" y="441" on="1"/>
        <pt x="274" y="362" on="1"/>
      </contour>
      <contour>
        <pt x="119" y="411" on="1"/>
        <pt x="119" y="384" on="1"/>
        <pt x="160" y="384" on="1"/>
        <pt x="160" y="338" on="1"/>
        <pt x="126" y="338" on="1"/>
        <pt x="80" y="362" on="1"/>
        <pt x="80" y="411" on="1"/>
      </contour>
      <contour>
        <pt x="80" y="509" on="1"/>
        <pt x="80" y="548" on="1"/>
        <pt x="126" y="577" on="1"/>
        <pt x="161" y="577" on="1"/>
        <pt x="161" y="532" on="1"/>
        <pt x="126" y="532" on="1"/>
        <pt x="126" y="509" on="1"/>
      </contour>
      <contour>
        <pt x="161" y="441" on="1"/>
        <pt x="149" y="441" on="1"/>
        <pt x="149" y="486" on="1"/>
        <pt x="161" y="486" on="1"/>
      </contour>
    </TTGlyph>
    <TTGlyph name="tilde" xMin="80" yMin="515" xMax="456" yMax="619">
      <contour>
        <pt x="456" y="616" on="1"/>
        <pt x="456" y="561" on="1"/>
        <pt x="376" y="515" on="1"/>
        <pt x="308" y="515" on="1"/>
        <pt x="217" y="572" on="1"/>
        <pt x="171" y="572" on="1"/>
        <pt x="80" y="515" on="1"/>
        <pt x="80" y="571" on="1"/>
        <pt x="160" y="619" on="1"/>
        <pt x="228" y="619" on="1"/>
        <pt x="319" y="563" on="1"/>
        <pt x="365" y="563" on="1"/>
        <pt x="456" y="616" on="1"/>
      </contour>
    </TTGlyph>
    <TTGlyph name="trademark" xMin="80" yMin="88" xMax="621" yMax="623">
      <contour>
        <pt x="124" y="230" on="1"/>
        <pt x="327" y="143" on="1"/>
        <pt x="327" y="88" on="1"/>
        <pt x="80" y="201" on="1"/>
        <pt x="80" y="512" on="1"/>
        <pt x="327" y="623" on="1"/>
        <pt x="327" y="571" on="1"/>
        <pt x="124" y="482" on="1"/>
      </contour>
      <contour>
        <pt x="177" y="455" on="1"/>
        <pt x="332" y="455" on="1"/>
        <pt x="332" y="418" on="1"/>
        <pt x="275" y="418" on="1"/>
        <pt x="275" y="261" on="1"/>
        <pt x="228" y="261" on="1"/>
        <pt x="228" y="418" on="1"/>
        <pt x="177" y="418" on="1"/>
      </contour>
      <contour>
        <pt x="513" y="455" on="1"/>
        <pt x="513" y="261" on="1"/>
        <pt x="473" y="261" on="1"/>
        <pt x="473" y="399" on="1"/>
        <pt x="433" y="359" on="1"/>
        <pt x="397" y="399" on="1"/>
        <pt x="397" y="261" on="1"/>
        <pt x="355" y="261" on="1"/>
        <pt x="355" y="455" on="1"/>
        <pt x="391" y="455" on="1"/>
        <pt x="433" y="409" on="1"/>
        <pt x="476" y="455" on="1"/>
      </contour>
      <contour>
        <pt x="579" y="482" on="1"/>
        <pt x="374" y="571" on="1"/>
        <pt x="374" y="623" on="1"/>
        <pt x="621" y="512" on="1"/>
        <pt x="621" y="201" on="1"/>
        <pt x="374" y="88" on="1"/>
        <pt x="374" y="143" on="1"/>
        <pt x="579" y="230" on="1"/>
      </contour>
    </TTGlyph>
    <TTGlyph name="two" xMin="90" yMin="0" xMax="781" yMax="577">
      <contour>
        <pt x="90" y="276" on="1"/>
        <pt x="204" y="345" on="1"/>
        <pt x="411" y="345" on="1"/>
        <pt x="411" y="232" on="1"/>
        <pt x="212" y="232" on="1"/>
        <pt x="212" y="118" on="1"/>
        <pt x="407" y="118" on="1"/>
        <pt x="407" y="0" on="1"/>
        <pt x="90" y="0" on="1"/>
      </contour>
      <contour>
        <pt x="90" y="394" on="1"/>
        <pt x="90" y="508" on="1"/>
        <pt x="204" y="577" on="1"/>
        <pt x="411" y="577" on="1"/>
        <pt x="411" y="463" on="1"/>
        <pt x="216" y="463" on="1"/>
        <pt x="216" y="394" on="1"/>
      </contour>
      <contour>
        <pt x="781" y="0" on="1"/>
        <pt x="460" y="0" on="1"/>
        <pt x="460" y="118" on="1"/>
        <pt x="781" y="118" on="1"/>
      </contour>
      <contour>
        <pt x="651" y="232" on="1"/>
        <pt x="456" y="232" on="1"/>
        <pt x="456" y="345" on="1"/>
        <pt x="651" y="345" on="1"/>
        <pt x="651" y="463" on="1"/>
        <pt x="456" y="463" on="1"/>
        <pt x="456" y="577" on="1"/>
        <pt x="663" y="577" on="1"/>
        <pt x="781" y="508" on="1"/>
        <pt x="781" y="301" on="1"/>
      </contour>
    </TTGlyph>
    <TTGlyph name="twosuperior" xMin="80" yMin="339" xMax="273" yMax="577">
      <contour>
        <pt x="80" y="464" on="1"/>
        <pt x="125" y="487" on="1"/>
        <pt x="160" y="487" on="1"/>
        <pt x="160" y="441" on="1"/>
        <pt x="125" y="441" on="1"/>
        <pt x="125" y="384" on="1"/>
        <pt x="160" y="384" on="1"/>
        <pt x="160" y="339" on="1"/>
        <pt x="80" y="339" on="1"/>
      </contour>
      <contour>
        <pt x="80" y="510" on="1"/>
        <pt x="80" y="548" on="1"/>
        <pt x="137" y="577" on="1"/>
        <pt x="160" y="577" on="1"/>
        <pt x="160" y="532" on="1"/>
        <pt x="125" y="532" on="1"/>
        <pt x="125" y="510" on="1"/>
      </contour>
      <contour>
        <pt x="273" y="339" on="1"/>
        <pt x="182" y="339" on="1"/>
        <pt x="182" y="384" on="1"/>
        <pt x="273" y="384" on="1"/>
      </contour>
      <contour>
        <pt x="230" y="441" on="1"/>
        <pt x="182" y="441" on="1"/>
        <pt x="182" y="487" on="1"/>
        <pt x="228" y="487" on="1"/>
        <pt x="228" y="532" on="1"/>
        <pt x="182" y="532" on="1"/>
        <pt x="182" y="577" on="1"/>
        <pt x="228" y="577" on="1"/>
        <pt x="273" y="548" on="1"/>
        <pt x="273" y="464" on="1"/>
      </contour>
    </TTGlyph>
    <TTGlyph name="u" xMin="90" yMin="0" xMax="686" yMax="437">
      <contour>
        <pt x="686" y="0" on="1"/>
        <pt x="561" y="0" on="1"/>
        <pt x="561" y="45" on="1"/>
        <pt x="411" y="0" on="1"/>
        <pt x="411" y="105" on="1"/>
        <pt x="561" y="105" on="1"/>
        <pt x="561" y="437" on="1"/>
        <pt x="686" y="437" on="1"/>
      </contour>
      <contour>
        <pt x="90" y="69" on="1"/>
        <pt x="203" y="0" on="1"/>
        <pt x="365" y="0" on="1"/>
        <pt x="365" y="105" on="1"/>
        <pt x="216" y="105" on="1"/>
        <pt x="216" y="437" on="1"/>
        <pt x="90" y="437" on="1"/>
      </contour>
    </TTGlyph>
    <TTGlyph name="uacute" xMin="90" yMin="0" xMax="686" yMax="648">
      <component glyphName="u" x="0" y="0" flags="0x1204"/>
      <component glyphName="acute" x="16" y="0" flags="0x1004"/>
    </TTGlyph>
    <TTGlyph name="ucircumflex" xMin="90" yMin="0" xMax="686" yMax="674">
      <component glyphName="u" x="0" y="0" flags="0x1204"/>
      <component glyphName="circumflex" x="157" y="-48" scalex="0.9365234375" scaley="1.01458740234" flags="0x1004"/>
    </TTGlyph>
    <TTGlyph name="udieresis" xMin="90" yMin="0" xMax="686" yMax="576">
      <component glyphName="u" x="0" y="0" flags="0x1204"/>
      <component glyphName="dieresis" x="130" y="2" flags="0x1004"/>
    </TTGlyph>
    <TTGlyph name="ugrave" xMin="91" yMin="0" xMax="689" yMax="653">
      <component glyphName="u" x="3" y="0" flags="0x1004"/>
      <component glyphName="grave" x="-9" y="-9" flags="0x1004"/>
    </TTGlyph>
    <TTGlyph name="underscore" xMin="80" yMin="0" xMax="319" yMax="59">
      <contour>
        <pt x="319" y="59" on="1"/>
        <pt x="319" y="0" on="1"/>
        <pt x="80" y="0" on="1"/>
        <pt x="80" y="59" on="1"/>
      </contour>
    </TTGlyph>
    <TTGlyph name="uni00AD" xMin="80" yMin="247" xMax="416" yMax="306">
      <component glyphName="minus" x="50" y="0" flags="0x1004"/>
    </TTGlyph>
    <TTGlyph name="uogonek" xMin="90" yMin="-194" xMax="686" yMax="437">
      <component glyphName="u" x="0" y="0" flags="0x1204"/>
      <component glyphName="ogonek" x="182" y="0" flags="0x1004"/>
    </TTGlyph>
    <TTGlyph name="v" xMin="10" yMin="0" xMax="630" yMax="437">
      <contour>
        <pt x="136" y="437" on="1"/>
        <pt x="301" y="186" on="1"/>
        <pt x="301" y="0" on="1"/>
        <pt x="262" y="0" on="1"/>
        <pt x="10" y="401" on="1"/>
      </contour>
      <contour>
        <pt x="509" y="437" on="1"/>
        <pt x="351" y="186" on="1"/>
        <pt x="351" y="0" on="1"/>
        <pt x="387" y="0" on="1"/>
        <pt x="630" y="401" on="1"/>
      </contour>
    </TTGlyph>
    <TTGlyph name="w" xMin="30" yMin="0" xMax="704" yMax="441">
      <contour>
        <pt x="30" y="406" on="1"/>
        <pt x="145" y="441" on="1"/>
        <pt x="226" y="150" on="1"/>
        <pt x="344" y="265" on="1"/>
        <pt x="344" y="106" on="1"/>
        <pt x="238" y="0" on="1"/>
        <pt x="145" y="0" on="1"/>
      </contour>
      <contour>
        <pt x="599" y="0" on="1"/>
        <pt x="496" y="0" on="1"/>
        <pt x="389" y="106" on="1"/>
        <pt x="389" y="265" on="1"/>
        <pt x="504" y="150" on="1"/>
        <pt x="575" y="441" on="1"/>
        <pt x="704" y="406" on="1"/>
      </contour>
    </TTGlyph>
    <TTGlyph name="x" xMin="30" yMin="0" xMax="631" yMax="441">
      <contour>
        <pt x="356" y="314" on="1"/>
        <pt x="491" y="441" on="1"/>
        <pt x="631" y="406" on="1"/>
        <pt x="414" y="233" on="1"/>
        <pt x="631" y="37" on="1"/>
        <pt x="491" y="0" on="1"/>
        <pt x="356" y="138" on="1"/>
      </contour>
      <contour>
        <pt x="308" y="314" on="1"/>
        <pt x="167" y="441" on="1"/>
        <pt x="30" y="406" on="1"/>
        <pt x="247" y="233" on="1"/>
        <pt x="30" y="37" on="1"/>
        <pt x="167" y="0" on="1"/>
        <pt x="308" y="138" on="1"/>
      </contour>
    </TTGlyph>
    <TTGlyph name="y" xMin="90" yMin="-195" xMax="688" yMax="438">
      <contour>
        <pt x="90" y="438" on="1"/>
        <pt x="216" y="438" on="1"/>
        <pt x="216" y="138" on="1"/>
        <pt x="366" y="138" on="1"/>
        <pt x="366" y="58" on="1"/>
        <pt x="205" y="58" on="1"/>
        <pt x="90" y="127" on="1"/>
      </contour>
      <contour>
        <pt x="216" y="-45" on="1"/>
        <pt x="216" y="-91" on="1"/>
        <pt x="366" y="-91" on="1"/>
        <pt x="366" y="-195" on="1"/>
        <pt x="205" y="-195" on="1"/>
        <pt x="90" y="-126" on="1"/>
        <pt x="90" y="-45" on="1"/>
      </contour>
      <contour>
        <pt x="688" y="438" on="1"/>
        <pt x="688" y="-126" on="1"/>
        <pt x="562" y="-195" on="1"/>
        <pt x="412" y="-195" on="1"/>
        <pt x="412" y="-91" on="1"/>
        <pt x="562" y="-91" on="1"/>
        <pt x="562" y="58" on="1"/>
        <pt x="412" y="58" on="1"/>
        <pt x="412" y="138" on="1"/>
        <pt x="562" y="138" on="1"/>
        <pt x="562" y="438" on="1"/>
      </contour>
    </TTGlyph>
    <TTGlyph name="y.001" xMin="90" yMin="-196" xMax="691" yMax="441">
      <contour>
        <pt x="90" y="441" on="1"/>
        <pt x="215" y="441" on="1"/>
        <pt x="215" y="138" on="1"/>
        <pt x="368" y="138" on="1"/>
        <pt x="368" y="57" on="1"/>
        <pt x="205" y="57" on="1"/>
        <pt x="90" y="127" on="1"/>
      </contour>
      <contour>
        <pt x="215" y="-46" on="1"/>
        <pt x="215" y="-91" on="1"/>
        <pt x="368" y="-91" on="1"/>
        <pt x="368" y="-196" on="1"/>
        <pt x="205" y="-196" on="1"/>
        <pt x="90" y="-127" on="1"/>
        <pt x="90" y="-46" on="1"/>
      </contour>
      <contour>
        <pt x="691" y="441" on="1"/>
        <pt x="691" y="-127" on="1"/>
        <pt x="563" y="-196" on="1"/>
        <pt x="416" y="-196" on="1"/>
        <pt x="416" y="-91" on="1"/>
        <pt x="563" y="-91" on="1"/>
        <pt x="563" y="57" on="1"/>
        <pt x="413" y="57" on="1"/>
        <pt x="413" y="138" on="1"/>
        <pt x="563" y="138" on="1"/>
        <pt x="563" y="441" on="1"/>
      </contour>
    </TTGlyph>
    <TTGlyph name="yacute" xMin="90" yMin="-196" xMax="693" yMax="648">
      <component glyphName="y.001" x="0" y="0" flags="0x1004"/>
      <component glyphName="acute" x="23" y="0" flags="0x1004"/>
    </TTGlyph>
    <TTGlyph name="ydieresis" xMin="90" yMin="-196" xMax="691" yMax="576">
      <component glyphName="y.001" x="0" y="0" flags="0x1204"/>
      <component glyphName="dieresis" x="132" y="2" flags="0x1004"/>
    </TTGlyph>
    <TTGlyph name="yen" xMin="30" yMin="-1" xMax="725" yMax="578">
      <contour>
        <pt x="725" y="543" on="1"/>
        <pt x="435" y="265" on="1"/>
        <pt x="609" y="265" on="1"/>
        <pt x="609" y="230" on="1"/>
        <pt x="435" y="230" on="1"/>
        <pt x="435" y="184" on="1"/>
        <pt x="609" y="184" on="1"/>
        <pt x="609" y="150" on="1"/>
        <pt x="435" y="150" on="1"/>
        <pt x="435" y="-1" on="1"/>
        <pt x="319" y="-1" on="1"/>
        <pt x="319" y="150" on="1"/>
        <pt x="149" y="150" on="1"/>
        <pt x="149" y="184" on="1"/>
        <pt x="319" y="184" on="1"/>
        <pt x="319" y="230" on="1"/>
        <pt x="149" y="230" on="1"/>
        <pt x="149" y="265" on="1"/>
        <pt x="319" y="265" on="1"/>
        <pt x="319" y="265" on="1"/>
        <pt x="30" y="543" on="1"/>
        <pt x="146" y="578" on="1"/>
        <pt x="377" y="358" on="1"/>
        <pt x="377" y="358" on="1"/>
        <pt x="609" y="578" on="1"/>
        <pt x="725" y="543" on="1"/>
      </contour>
    </TTGlyph>
    <TTGlyph name="z" xMin="30" yMin="0" xMax="631" yMax="441">
      <contour>
        <pt x="631" y="441" on="1"/>
        <pt x="353" y="175" on="1"/>
        <pt x="353" y="326" on="1"/>
        <pt x="378" y="349" on="1"/>
        <pt x="353" y="349" on="1"/>
        <pt x="353" y="441" on="1"/>
      </contour>
      <contour>
        <pt x="309" y="0" on="1"/>
        <pt x="30" y="0" on="1"/>
        <pt x="309" y="278" on="1"/>
        <pt x="309" y="127" on="1"/>
        <pt x="283" y="102" on="1"/>
        <pt x="309" y="102" on="1"/>
      </contour>
      <contour>
        <pt x="309" y="441" on="1"/>
        <pt x="309" y="349" on="1"/>
        <pt x="30" y="349" on="1"/>
        <pt x="30" y="441" on="1"/>
      </contour>
      <contour>
        <pt x="631" y="106" on="1"/>
        <pt x="631" y="0" on="1"/>
        <pt x="353" y="0" on="1"/>
        <pt x="353" y="106" on="1"/>
      </contour>
    </TTGlyph>
    <TTGlyph name="zcaron" xMin="50" yMin="0" xMax="651" yMax="673">
      <component glyphName="z" x="20" y="0" flags="0x1004"/>
      <component glyphName="caron" x="118" y="-38" flags="0x1004"/>
    </TTGlyph>
    <TTGlyph name="zero" xMin="80" yMin="0" xMax="773" yMax="575">
      <contour>
        <pt x="773" y="506" on="1"/>
        <pt x="773" y="69" on="1"/>
        <pt x="659" y="0" on="1"/>
        <pt x="447" y="0" on="1"/>
        <pt x="447" y="114" on="1"/>
        <pt x="647" y="114" on="1"/>
        <pt x="647" y="428" on="1"/>
        <pt x="447" y="216" on="1"/>
        <pt x="447" y="391" on="1"/>
        <pt x="508" y="461" on="1"/>
        <pt x="451" y="461" on="1"/>
        <pt x="451" y="575" on="1"/>
        <pt x="647" y="575" on="1"/>
      </contour>
      <contour>
        <pt x="206" y="147" on="1"/>
        <pt x="402" y="355" on="1"/>
        <pt x="402" y="183" on="1"/>
        <pt x="345" y="114" on="1"/>
        <pt x="402" y="114" on="1"/>
        <pt x="402" y="0" on="1"/>
        <pt x="402" y="0" on="1"/>
        <pt x="402" y="0" on="1"/>
        <pt x="263" y="0" on="1"/>
        <pt x="263" y="0" on="1"/>
        <pt x="194" y="0" on="1"/>
        <pt x="80" y="69" on="1"/>
        <pt x="80" y="506" on="1"/>
        <pt x="206" y="575" on="1"/>
        <pt x="206" y="575" on="1"/>
        <pt x="402" y="575" on="1"/>
        <pt x="402" y="461" on="1"/>
        <pt x="206" y="461" on="1"/>
      </contour>
    </TTGlyph>
</ttFont>
